<svg width="523" height="727" viewBox="0 0 523 727" fill="none" xmlns="http://www.w3.org/2000/svg">
<g clip-path="url(#clip0_85_1058)">
<rect width="522.92" height="726.278" rx="49.8019" fill="white"/>
<g opacity="0.5">
<path d="M249.107 52.5744C256.057 31.4757 244.349 10.1739 237.627 -0.271973H120.033C120.033 9.65679 143.924 40.3739 145.786 98.0849C147.647 155.796 127.169 225.297 112.897 321.792C98.624 418.288 118.171 507.026 120.033 567.84C121.522 616.491 77.0322 696.963 62.2424 725.716H164.47C162.712 718.889 148.009 694.528 143.678 665.939C131.727 587.061 161.078 539.657 189.593 489.206C212.118 449.355 204.775 399.995 212.118 370.519C222.792 342.718 253.428 278.502 250.237 256.163C244.652 217.068 209.392 198.614 209.392 136.869C209.392 83.7624 240.419 78.9477 249.107 52.5744Z" fill="#D9D9D9"/>
<path d="M97.3829 36.0301C103.826 18.7874 98.7274 5.83008 97.3829 -0.271973H-22.0129V68.76C68.561 77.5726 92.2183 49.8506 97.3829 36.0301Z" fill="#D9D9D9"/>
</g>
<path d="M282.928 639.204C286.474 636.101 290.891 635.998 293.787 636.101C298.131 636.011 304.026 637.342 304.026 642.307C304.026 647.271 311.783 652.235 309.301 658.751C306.819 665.267 301.234 665.888 287.582 665.267C273.93 664.646 274.861 655.338 274.861 651.925C274.861 648.512 280.446 641.376 282.928 639.204Z" fill="#D9D9D9"/>
<path d="M319.54 639.204C319.85 632.068 327.297 629.248 330.71 628.344C341.259 625.552 349.962 637.383 349.326 642.307C348.365 649.753 341.259 650.064 336.915 654.097C332.572 658.131 319.096 658.99 316.748 654.097C313.024 646.34 319.23 646.34 319.54 639.204Z" fill="#D9D9D9"/>
<path d="M411.691 536.193C416.345 533.7 424.102 538.225 428.136 539.606C441.478 544.175 443.65 543.64 443.65 560.394C443.65 577.149 430.928 579.321 428.136 579.631C425.343 579.942 408.589 581.183 403.624 573.426C398.66 565.669 403.004 557.292 403.624 550.466C404.095 545.286 403.004 540.847 411.691 536.193Z" fill="#D9D9D9"/>
<path d="M404.865 238.951C402.383 230.263 407.658 220.334 414.794 220.334C421.93 220.334 419.29 224.541 426.274 227.16C431.239 229.022 429.297 236.802 427.515 240.812C425.033 246.397 418.517 248.259 416.035 248.259C412.622 248.259 407.347 247.638 404.865 238.951Z" fill="#D9D9D9"/>
<path d="M376.941 144.627C376.941 140.283 387.49 139.663 388.11 139.663C395.867 139.663 397.419 146.489 397.419 150.213C397.419 153.074 397.607 156.54 394.316 159.831C390.903 163.244 374.769 163.244 372.907 159.831C371.045 156.418 376.941 148.971 376.941 144.627Z" fill="#D9D9D9"/>
<path d="M339.087 94.9833C335.612 92.7493 332.261 93.4319 331.02 94.0525C327.297 95.9141 322.643 99.9476 322.643 102.43C322.643 104.912 322.332 108.635 328.538 108.635C334.743 108.635 337.846 110.187 343.121 108.635C348.395 107.084 349.326 102.43 347.154 99.3271C344.982 96.2244 343.431 97.7757 339.087 94.9833Z" fill="#D9D9D9"/>
<path d="M352.119 87.847C352.119 83.8755 357.704 80.4004 360.496 79.1593C366.702 76.3668 374.458 84.1237 374.458 86.6059C374.458 89.0881 375.079 90.0189 370.425 94.0525C365.771 98.086 364.219 101.809 358.945 100.878C353.67 99.9476 352.119 92.8113 352.119 87.847Z" fill="#D9D9D9"/>
<path d="M350.878 47.2011C343.183 51.9172 336.708 49.9935 334.433 48.4422C327.297 44.4086 329.469 36.3415 331.02 31.0668C332.571 25.7922 343.431 19.897 349.326 19.897C355.221 19.897 357.704 30.136 357.704 33.8593C357.704 37.5826 360.496 41.3059 350.878 47.2011Z" fill="#D9D9D9"/>
<path d="M407.968 267.806C407.968 261.911 412.932 259.428 414.794 259.428C421.62 256.946 429.997 262.841 429.997 269.668C429.997 276.494 426.274 283.32 418.517 283.32C410.761 283.32 407.968 273.701 407.968 267.806Z" fill="#D9D9D9"/>
<path d="M449.491 -0.271973C434.027 13.5894 385.873 42.4839 375.696 45.9589M375.696 45.9589C378.695 54.5432 384.383 74.9385 383.142 87.8459M375.696 45.9589C336.83 64.4437 290.717 58.095 266.355 51.6242M250.198 45.9589C251.172 46.5358 252.911 47.313 255.306 48.1973M383.142 87.8459C381.591 103.98 367.629 105.221 362.354 105.842C357.079 106.462 345.599 112.047 343.738 115.15M383.142 87.8459C381.694 94.5685 379.419 109.441 381.901 115.15C385.004 122.286 376.937 137.8 380.04 154.245C383.142 170.689 397.105 175.653 397.105 187.754C397.105 191.627 397.282 195.127 397.663 198.303M434.027 231.192C410.019 225.057 400.001 217.775 397.663 198.303M397.663 198.303C396.401 212.99 394.635 245.465 397.663 257.876M397.663 257.876C401.449 273.39 396.794 282.077 406.413 286.731M397.663 257.876C399.028 260.668 403 266.564 407.964 267.805M266.355 51.6242C259.99 52.2769 246.282 53.1906 242.365 51.6242M266.355 51.6242C263.581 48.5235 256.465 42.2243 250.198 41.8327M266.355 51.6242C261.877 50.4349 258.134 49.2414 255.306 48.1973M255.306 48.1973C254.42 48.6869 251.863 49.6661 248.73 49.6661" stroke="#F1F1F1" stroke-width="1.73267"/>
<path d="M435.272 311.865C422.55 320.449 396.612 341.776 394.626 358.406C392.144 379.195 405.175 385.4 405.175 397.501C405.175 409.602 406.105 445.904 418.827 457.384C429.004 466.568 442.097 476.517 447.372 480.344" stroke="#F1F1F1" stroke-width="1.73267"/>
<path d="M451.227 415.569L409.577 417.898C395.771 418.67 384.36 428.942 382.146 442.592L379.345 459.865C378.78 463.353 377.591 466.711 375.836 469.778L347.334 519.593C345.171 523.373 342.197 526.626 338.626 529.118L297.819 557.602L279.736 569.109C275.915 571.54 272.707 574.82 270.359 578.693L255.311 603.522M255.311 603.522L175.571 584.595M255.311 603.522L341.903 623.215C345.977 624.142 349.806 625.924 353.138 628.443L406.931 669.123C409.263 670.886 411.319 672.987 413.032 675.355L435.58 706.533" stroke="#F1F1F1" stroke-width="1.73267"/>
<path d="M240.702 81.7083C224.388 88.9011 194.19 129.921 248.442 206.182C295.55 272.399 194.13 356.956 215.243 442.046C223.1 473.713 253.625 521.783 239.806 534.067C222.532 549.421 193.416 552.641 179.667 569.254C153.459 600.922 149.277 660.424 172.309 676.097C195.341 691.77 222.852 631.953 256.12 623.316C289.388 614.679 339.61 625.235 373.519 585.249C407.427 545.263 399.936 516.371 404.094 504.215C405.672 499.603 393.667 487.077 404.863 475.774C416.059 464.472 432.698 449.361 433.977 426.585C435.577 398.115 398.714 386.609 393.671 365.166C388.55 343.384 402.628 335.417 400.709 307.906C398.692 278.997 382.347 247.512 374.158 226.015C367.402 208.279 359.124 164.661 342.489 140.605C321.697 110.536 290.284 59.8479 240.702 81.7083Z" fill="#D9D9D9" fill-opacity="0.2"/>
<path d="M85.0137 131.647C99.1621 142.496 123.2 182.074 109.981 231.033C88.7991 309.487 110.164 351.978 69.5142 429.655C54.3857 458.563 13.3524 498.044 23.872 513.249C37.0214 532.255 64.5482 542.274 73.975 561.669C91.9438 598.639 81.9251 657.441 55.8383 667.218C29.7515 676.995 17.179 612.366 -13.1003 596.101C-43.3795 579.837 -94.6734 578.207 -118.155 531.333C-141.637 484.458 -127.522 458.159 -128.685 445.365C-129.127 440.51 -114.498 431.181 -122.701 417.55C-130.905 403.919 -143.494 385.299 -139.348 362.868C-134.164 334.828 -95.6253 332.373 -85.6516 312.733C-75.5202 292.781 -87.3136 281.709 -78.9382 255.434C-70.1368 227.823 -46.8054 201.1 -33.7616 182.152C-22.9998 166.519 -34.9548 187.312 -13.1003 167.876C14.2179 143.582 42.013 98.6731 85.0137 131.647Z" fill="#D9D9D9" fill-opacity="0.2"/>
<path d="M258.998 181.23C256.753 183.475 262.261 186.477 259.958 189.547C257.932 191.68 254.023 197.95 258.678 200.744C265.076 204.582 266.355 194.986 268.595 194.026C270.834 193.066 278.831 194.026 278.511 188.588C278.172 182.83 270.514 185.389 267.635 184.749C264.756 184.109 261.243 178.986 258.998 181.23Z" fill="#D9D9D9"/>
<path d="M265.076 127.809C262.304 129.729 257.207 134.719 258.998 139.325C261.237 145.083 268.595 139.645 271.474 136.446C274.353 133.247 277.232 131.328 275.952 128.129C274.831 125.327 270.514 123.011 265.076 127.809Z" fill="#D9D9D9"/>
<path d="M247.802 102.218C243.632 102.859 245.243 108.296 243.324 108.296C241.404 108.296 237.246 110.855 239.805 115.334C242.364 119.812 254.84 116.613 254.52 113.734C254.2 110.855 251.972 101.577 247.802 102.218Z" fill="#D9D9D9"/>
<path d="M345.688 137.406C343.289 137.616 344.28 138.365 339.93 139.645C334.492 141.244 335.131 148.922 342.169 148.922C349.206 148.922 352.085 142.844 350.806 140.285C349.526 137.726 348.086 137.195 345.688 137.406Z" fill="#D9D9D9"/>
<path d="M354.325 148.282C350.806 148.282 351.653 154.435 349.846 155.639C347.927 156.919 345.048 156.279 345.048 158.518C345.048 160.757 348.886 162.037 349.846 163.317C350.806 164.596 351.446 167.155 354.325 167.155C358.163 167.155 357.843 162.464 360.083 161.717C362.322 160.971 363.939 160.917 364.241 158.198C364.543 155.479 360.722 155.319 359.123 153.4C357.523 151.481 357.843 148.282 354.325 148.282Z" fill="#D9D9D9"/>
<path d="M375.757 258.323C370.425 256.054 366.096 253.205 360.722 253.205C355.924 253.205 354.325 256.724 354.325 264.081C354.325 271.439 361.12 280.41 366.16 281.355C376.397 283.275 381.515 272.718 381.835 268.88C382.155 265.041 381.089 260.593 375.757 258.323Z" fill="#D9D9D9"/>
<path d="M367.12 311.425C368.506 309.612 370.447 305.603 367.12 304.067C362.962 302.148 354.005 310.785 354.325 314.304C354.644 317.822 366.16 324.54 368.08 319.422C369.999 314.304 367.12 315.263 367.12 311.425Z" fill="#D9D9D9"/>
<path d="M380.235 310.465C379.276 310.465 371.598 312.704 373.838 318.462C376.077 324.22 382.875 323.836 384.394 322.621C385.993 321.341 385.354 308.036 380.235 310.465Z" fill="#D9D9D9"/>
<path opacity="0.4" d="M253.559 159.478C253.559 176.432 285.548 168.115 285.548 184.429C285.548 196.265 261.876 201.703 261.876 242.009C261.876 268.88 282.989 262.546 285.548 280.716C282.349 283.701 276.399 292.487 278.19 303.748C280.43 317.823 298.018 317.765 298.018 328.961C298.018 340.157 305.701 345.653 302.822 357.489C299.943 369.324 294.824 369.644 293.865 380.201C292.905 390.757 299.943 400.354 299.943 408.351C299.943 420.506 287.881 435.641 285.548 444.818C281.389 461.171 285.071 483.601 278.033 491.918C270.996 500.235 247.685 521.056 259.769 539.455C271.853 557.853 306.522 533.71 318.678 533.39C334.82 532.965 339.609 513.274 341.208 503.037C342.808 492.801 363.28 477.766 364.24 468.49C365.2 459.213 366.479 435.541 373.517 420.506C380.554 405.472 388.871 408.351 388.871 396.195C388.871 384.039 380.265 370.469 377.036 357.489C375.136 349.853 377.675 346.612 373.517 336.376C369.358 326.14 352.724 327.419 348.566 316.863C344.407 306.307 362.961 303.108 360.401 287.753C357.842 272.399 331.931 277.197 328.733 266.96C325.534 256.724 347.926 249.686 344.727 225.695C341.528 201.703 334.171 193.386 328.733 179.951C323.294 166.516 324.254 157.879 320.415 151.161C316.577 144.443 308.26 118.852 295.144 120.452C282.029 122.051 285.228 135.487 278.19 141.884C271.153 148.282 253.559 148.602 253.559 159.478Z" fill="#D9D9D9"/>
<path d="M260.277 107.019C261.045 95.5027 271.047 92.1972 275.952 91.9839C297.384 89.7447 297.064 111.817 306.661 116.935C316.258 122.053 320.416 144.126 301.543 146.365C282.669 148.604 280.43 129.091 278.191 124.293C275.952 119.494 259.318 121.414 260.277 107.019Z" fill="#D9D9D9"/>
<g opacity="0.2">
<ellipse cx="198.596" cy="622.215" rx="291.305" ry="316.274" stroke="black" stroke-width="0.979178" stroke-dasharray="1.96 1.96"/>
<circle cx="191.669" cy="590.801" r="441.83" stroke="black" stroke-width="0.979178" stroke-dasharray="1.96 1.96"/>
<path d="M187.106 304.354C186.448 304.354 185.872 304.226 185.379 303.971C184.885 303.715 184.497 303.377 184.213 302.956C183.93 302.527 183.761 302.061 183.706 301.558H185.296C185.324 301.768 185.411 301.978 185.557 302.189C185.712 302.39 185.918 302.559 186.174 302.696C186.439 302.824 186.745 302.888 187.092 302.888C187.449 302.888 187.755 302.828 188.011 302.709C188.266 302.581 188.463 302.408 188.6 302.189C188.737 301.969 188.806 301.718 188.806 301.435C188.806 301.151 188.737 300.9 188.6 300.681C188.463 300.461 188.257 300.288 187.983 300.16C187.718 300.032 187.403 299.968 187.037 299.968H186.352V298.638H186.969C187.298 298.638 187.586 298.583 187.832 298.474C188.079 298.355 188.266 298.195 188.394 297.994C188.522 297.784 188.586 297.546 188.586 297.281C188.586 297.016 188.522 296.783 188.394 296.582C188.276 296.372 188.097 296.207 187.86 296.088C187.631 295.96 187.362 295.896 187.051 295.896C186.749 295.896 186.48 295.956 186.242 296.075C186.005 296.193 185.817 296.353 185.68 296.554C185.543 296.746 185.461 296.952 185.433 297.171H183.843C183.88 296.696 184.035 296.248 184.309 295.828C184.593 295.407 184.972 295.069 185.447 294.813C185.922 294.557 186.452 294.429 187.037 294.429C187.65 294.429 188.193 294.557 188.669 294.813C189.144 295.06 189.514 295.394 189.779 295.814C190.044 296.225 190.176 296.678 190.176 297.171C190.176 297.528 190.099 297.847 189.943 298.131C189.788 298.414 189.587 298.656 189.34 298.857C189.094 299.049 188.815 299.214 188.504 299.351V299.09C188.842 299.2 189.153 299.355 189.436 299.556C189.72 299.758 189.948 300.027 190.122 300.365C190.304 300.694 190.396 301.092 190.396 301.558C190.396 302.051 190.259 302.513 189.985 302.942C189.71 303.372 189.322 303.715 188.819 303.971C188.326 304.226 187.755 304.354 187.106 304.354ZM194.617 304.354C194.013 304.354 193.47 304.226 192.985 303.971C192.51 303.715 192.126 303.377 191.834 302.956C191.551 302.527 191.381 302.07 191.327 301.585H192.917C192.944 301.777 193.031 301.978 193.177 302.189C193.333 302.39 193.534 302.559 193.78 302.696C194.027 302.824 194.306 302.888 194.617 302.888C194.964 302.888 195.275 302.81 195.549 302.655C195.832 302.49 196.051 302.271 196.207 301.997C196.362 301.713 196.44 301.398 196.44 301.051C196.44 300.703 196.362 300.388 196.207 300.105C196.051 299.822 195.832 299.602 195.549 299.447C195.275 299.282 194.964 299.2 194.617 299.2C194.16 299.2 193.799 299.31 193.534 299.529C193.278 299.739 193.086 299.981 192.958 300.256H191.532L192.149 294.594H197.345V296.061H193.04L193.506 295.636L193.177 298.679L192.944 298.624C193.026 298.505 193.159 298.387 193.342 298.268C193.525 298.14 193.748 298.035 194.013 297.953C194.279 297.861 194.566 297.815 194.877 297.815C195.471 297.815 196.006 297.957 196.481 298.24C196.956 298.515 197.331 298.898 197.605 299.392C197.888 299.876 198.03 300.429 198.03 301.051C198.03 301.672 197.884 302.234 197.591 302.737C197.308 303.239 196.906 303.637 196.385 303.929C195.864 304.213 195.275 304.354 194.617 304.354Z" fill="black"/>
<path d="M183.912 465.754V464.534L187.243 461.134C187.599 460.787 187.869 460.504 188.052 460.284C188.244 460.056 188.39 459.828 188.49 459.599C188.591 459.371 188.641 459.124 188.641 458.859C188.641 458.585 188.573 458.342 188.436 458.132C188.308 457.922 188.12 457.758 187.873 457.639C187.627 457.52 187.343 457.461 187.024 457.461C186.53 457.461 186.128 457.611 185.817 457.913C185.506 458.214 185.347 458.598 185.337 459.064H183.788C183.797 458.489 183.939 457.968 184.213 457.502C184.497 457.036 184.885 456.67 185.379 456.405C185.872 456.131 186.42 455.994 187.024 455.994C187.654 455.994 188.212 456.117 188.696 456.364C189.18 456.611 189.555 456.949 189.82 457.378C190.094 457.808 190.231 458.283 190.231 458.804C190.231 459.215 190.154 459.604 189.998 459.969C189.843 460.335 189.637 460.677 189.381 460.997C189.126 461.308 188.797 461.669 188.394 462.08L185.79 464.699L185.639 464.233H190.204V465.754H183.912ZM194.536 465.919C193.933 465.919 193.389 465.791 192.905 465.535C192.43 465.279 192.046 464.941 191.754 464.52C191.47 464.091 191.301 463.634 191.246 463.15H192.836C192.864 463.341 192.951 463.543 193.097 463.753C193.252 463.954 193.453 464.123 193.7 464.26C193.947 464.388 194.226 464.452 194.536 464.452C194.884 464.452 195.194 464.374 195.469 464.219C195.752 464.054 195.971 463.835 196.127 463.561C196.282 463.277 196.36 462.962 196.36 462.615C196.36 462.268 196.282 461.952 196.127 461.669C195.971 461.386 195.752 461.166 195.469 461.011C195.194 460.847 194.884 460.764 194.536 460.764C194.079 460.764 193.718 460.874 193.453 461.093C193.197 461.303 193.006 461.546 192.878 461.82H191.452L192.069 456.158H197.264V457.625H192.96L193.426 457.2L193.097 460.243L192.864 460.189C192.946 460.07 193.079 459.951 193.261 459.832C193.444 459.704 193.668 459.599 193.933 459.517C194.198 459.425 194.486 459.38 194.797 459.38C195.391 459.38 195.925 459.521 196.401 459.805C196.876 460.079 197.251 460.463 197.525 460.956C197.808 461.441 197.95 461.993 197.95 462.615C197.95 463.236 197.804 463.798 197.511 464.301C197.228 464.804 196.826 465.201 196.305 465.494C195.784 465.777 195.194 465.919 194.536 465.919Z" fill="black"/>
<path d="M187.997 147.521V144.931V144.807V139.557H188.312L185.2 144.506L185.008 144.177H190.56V145.643H183.679V144.286L187.682 137.926H189.546V147.521H187.997ZM194.67 147.686C194.067 147.686 193.523 147.558 193.039 147.302C192.564 147.046 192.18 146.708 191.887 146.288C191.604 145.858 191.435 145.401 191.38 144.917H192.97C192.998 145.109 193.085 145.31 193.231 145.52C193.386 145.721 193.587 145.89 193.834 146.027C194.081 146.155 194.359 146.219 194.67 146.219C195.017 146.219 195.328 146.141 195.602 145.986C195.886 145.822 196.105 145.602 196.26 145.328C196.416 145.045 196.493 144.73 196.493 144.382C196.493 144.035 196.416 143.72 196.26 143.436C196.105 143.153 195.886 142.934 195.602 142.778C195.328 142.614 195.017 142.532 194.67 142.532C194.213 142.532 193.852 142.641 193.587 142.861C193.331 143.071 193.139 143.313 193.011 143.587H191.586L192.203 137.926H197.398V139.392H193.094L193.56 138.967L193.231 142.011L192.998 141.956C193.08 141.837 193.213 141.718 193.395 141.599C193.578 141.471 193.802 141.366 194.067 141.284C194.332 141.193 194.62 141.147 194.931 141.147C195.525 141.147 196.059 141.289 196.535 141.572C197.01 141.846 197.384 142.23 197.659 142.724C197.942 143.208 198.084 143.761 198.084 144.382C198.084 145.004 197.937 145.566 197.645 146.068C197.362 146.571 196.96 146.969 196.439 147.261C195.918 147.544 195.328 147.686 194.67 147.686Z" fill="black"/>
<circle cx="191.674" cy="623.068" r="155.758" stroke="black" stroke-width="0.979178" stroke-dasharray="1.96 1.96"/>
</g>
<circle cx="191.674" cy="619.248" r="53.3652" fill="#D9D9D9"/>
</g>
<defs>
<clipPath id="clip0_85_1058">
<rect width="522.92" height="726.278" rx="49.8019" fill="white"/>
</clipPath>
</defs>
</svg>
