<svg width="131" height="72" viewBox="0 0 131 72" fill="none" xmlns="http://www.w3.org/2000/svg">
<g clip-path="url(#clip0_54_103)">
<rect width="72" height="72" rx="36" fill="#E4E5E7"/>
<g filter="url(#filter0_d_54_103)">
<mask id="path-2-outside-1_54_103" maskUnits="userSpaceOnUse" x="-5.10571" y="14.8738" width="68" height="37" fill="black">
<rect fill="white" x="-5.10571" y="14.8738" width="68" height="37"/>
<path d="M20.1813 31.4674C20.4466 31.4674 20.6567 31.5559 20.8115 31.7328C20.9662 31.9097 21.0436 32.1197 21.0436 32.363C21.0436 32.8494 20.6456 33.4243 19.8496 34.0877C19.0757 34.751 18.2907 35.3812 17.4947 35.9782C16.7208 36.5532 16.3338 36.9954 16.3338 37.305C16.3338 37.4819 16.4775 37.5703 16.765 37.5703C17.7158 37.5703 19.1641 37.0175 21.11 35.9119C21.9502 35.4476 22.8457 34.8837 23.7966 34.2204L23.8629 34.7179C23.1111 35.2043 22.2708 35.7019 21.3421 36.2104C20.8115 36.5421 20.0375 36.918 19.0204 37.3381C18.0032 37.7804 17.163 38.0015 16.4996 38.0015C15.8363 38.0015 15.5046 37.703 15.5046 37.106C15.5046 36.5089 15.9026 35.8456 16.6986 35.1159C17.5168 34.3862 18.3239 33.745 19.1199 33.1922C19.938 32.6394 20.3471 32.2966 20.3471 32.164C20.3471 32.0092 20.1592 31.9318 19.7832 31.9318C18.7661 31.9318 17.2183 32.573 15.1398 33.8555C14.1447 34.4525 12.5085 35.8014 10.2309 37.902L2.138 45.6632C0.435383 47.3216 -0.493315 48.2282 -0.648098 48.383C-0.824992 48.5599 -1.10139 48.6483 -1.47729 48.6483C-1.87531 48.6483 -2.07431 48.5709 -2.07431 48.4162C-2.07431 48.1066 4.06173 42.247 16.3338 30.8372L13.6472 32.6615C12.5858 33.4133 11.4692 34.154 10.2973 34.8837L10.1978 34.4194C14.3106 31.589 17.2072 29.5769 18.8877 28.3828C21.5633 25.9063 23.0669 24.668 23.3985 24.668C23.5754 24.668 23.6639 24.7675 23.6639 24.9665C23.6639 25.2761 22.5472 26.2822 20.3139 27.9848L13.8462 34.2535C16.5439 32.3961 18.6555 31.4674 20.1813 31.4674ZM30.6081 31.3016C30.6081 31.1247 30.4312 31.0363 30.0774 31.0363C29.7236 31.0363 29.005 31.379 27.9215 32.0645C26.8381 32.7278 25.9204 33.4464 25.1686 34.2204C26.6501 33.9771 27.9215 33.5349 28.9829 32.8936C30.0664 32.2303 30.6081 31.6996 30.6081 31.3016ZM24.1072 35.9782C24.1072 36.6195 24.5495 36.9401 25.4339 36.9401C27.1145 36.9401 29.204 36.0335 31.7027 34.2204L31.769 34.7179C29.1598 36.5532 26.9265 37.4708 25.0691 37.4708C23.7424 37.4708 23.079 36.918 23.079 35.8124C23.079 34.7068 23.8972 33.557 25.5335 32.363C27.1918 31.1689 28.8945 30.5719 30.6413 30.5719C31.1941 30.5719 31.4705 30.7377 31.4705 31.0694C31.4705 31.6001 30.8514 32.2413 29.6131 32.9931C28.3969 33.7228 26.7938 34.2646 24.8038 34.6184C24.3394 35.1491 24.1072 35.6023 24.1072 35.9782ZM37.0852 30.2071C37.1736 30.0744 37.2731 30.0081 37.3837 30.0081C37.5163 30.0081 37.5827 30.0744 37.5827 30.2071C37.5827 30.3397 37.5163 30.4724 37.3837 30.6051C37.251 30.7377 37.1515 31.1468 37.0852 31.8323C37.0409 32.4956 36.8751 33.3138 36.5876 34.2867C36.3002 35.2375 35.8027 36.0999 35.0951 36.8738C35.0951 36.918 35.1393 36.9401 35.2278 36.9401C35.3826 36.9401 35.9464 36.6748 36.9193 36.1441L37.3837 35.9119C38.2239 35.4476 39.1195 34.8837 40.0703 34.2204L40.1366 34.7179C36.6872 36.9512 34.0448 38.0678 32.2095 38.0678C31.4798 38.0678 30.9491 37.913 30.6175 37.6035C30.2637 37.2939 30.0868 36.9512 30.0868 36.5753C30.0868 36.1994 30.1752 35.9009 30.3521 35.6797C30.529 35.4365 30.7501 35.3149 31.0155 35.3149C31.3471 35.3149 31.513 35.4918 31.513 35.8456C31.513 36.0667 31.3361 36.2657 30.9823 36.4426C30.8717 36.5089 30.8165 36.6195 30.8165 36.7743C30.8165 36.9291 30.9491 37.106 31.2145 37.305C31.4577 37.5261 31.723 37.6366 32.0105 37.6366C32.9834 37.6366 33.8126 37.0286 34.4981 35.8124C35.2057 34.5741 35.659 33.3469 35.858 32.1308V32.0313C33.7131 33.4907 32.2648 34.4415 31.513 34.8837L31.4135 34.4194C35.0177 32.0976 36.9083 30.6935 37.0852 30.2071ZM59.1733 18.6647C59.1733 18.5099 59.0628 18.4325 58.8417 18.4325C57.9572 18.4325 55.7681 20.0135 52.2745 23.1755C48.8029 26.3375 45.6851 29.4 42.9211 32.363C46.1052 30.3066 49.61 27.6863 53.4353 24.5022C57.2607 21.3181 59.1733 19.3723 59.1733 18.6647ZM44.9112 36.6748C44.9112 36.9622 45.0549 37.106 45.3424 37.106C45.652 37.106 46.1052 36.9733 46.7023 36.7079C47.2993 36.4426 47.83 36.1773 48.2943 35.9119C48.7587 35.6245 49.3115 35.2817 49.9527 34.8837C50.6161 34.4636 50.9699 34.2425 51.0141 34.2204L51.0804 34.7179C48.0953 36.7079 46.0057 37.703 44.8117 37.703C44.2368 37.703 43.9493 37.4155 43.9493 36.8406C43.9493 36.2657 44.3031 35.6355 45.0107 34.95C45.7404 34.2425 46.459 33.6123 47.1666 33.0595C47.8963 32.5067 48.2612 32.1087 48.2612 31.8654C48.2612 31.777 48.1838 31.7328 48.029 31.7328C47.5204 31.7328 46.1384 32.374 43.883 33.6565C41.6276 34.9169 40.1572 35.8456 39.4717 36.4426L38.2777 37.4376C38.1892 37.5261 37.9681 37.5703 37.6143 37.5703C37.2605 37.5703 37.0836 37.504 37.0836 37.3713C37.0836 37.305 37.1278 37.2165 37.2163 37.106C39.538 34.4968 42.1362 31.7659 45.0107 28.9135C47.8852 26.0611 50.6935 23.5182 53.4353 21.2849C56.1993 19.0295 58.0788 17.9018 59.0738 17.9018C59.6045 17.9018 59.8699 18.0677 59.8699 18.3993C59.8699 19.1069 58.7532 20.4778 56.5199 22.5121C54.3087 24.5243 51.8212 26.5475 49.0572 28.5818C46.2932 30.6161 43.9162 32.2303 41.9261 33.4243C41.1522 34.3088 40.71 34.8727 40.5994 35.1159C40.6878 35.1159 40.7542 35.1048 40.7984 35.0827C42.2136 34.0877 43.684 33.2032 45.2097 32.4293C46.7354 31.6554 47.6973 31.2684 48.0953 31.2684C48.4933 31.2684 48.7587 31.3458 48.8913 31.5006C49.0461 31.6554 49.1235 31.8212 49.1235 31.9981C49.1235 32.5288 48.7697 33.1258 48.0621 33.7892C47.3767 34.4525 46.6802 35.0496 45.9726 35.5802C45.265 36.1109 44.9112 36.4758 44.9112 36.6748Z"/>
</mask>
<path d="M20.1813 31.4674C20.4466 31.4674 20.6567 31.5559 20.8115 31.7328C20.9662 31.9097 21.0436 32.1197 21.0436 32.363C21.0436 32.8494 20.6456 33.4243 19.8496 34.0877C19.0757 34.751 18.2907 35.3812 17.4947 35.9782C16.7208 36.5532 16.3338 36.9954 16.3338 37.305C16.3338 37.4819 16.4775 37.5703 16.765 37.5703C17.7158 37.5703 19.1641 37.0175 21.11 35.9119C21.9502 35.4476 22.8457 34.8837 23.7966 34.2204L23.8629 34.7179C23.1111 35.2043 22.2708 35.7019 21.3421 36.2104C20.8115 36.5421 20.0375 36.918 19.0204 37.3381C18.0032 37.7804 17.163 38.0015 16.4996 38.0015C15.8363 38.0015 15.5046 37.703 15.5046 37.106C15.5046 36.5089 15.9026 35.8456 16.6986 35.1159C17.5168 34.3862 18.3239 33.745 19.1199 33.1922C19.938 32.6394 20.3471 32.2966 20.3471 32.164C20.3471 32.0092 20.1592 31.9318 19.7832 31.9318C18.7661 31.9318 17.2183 32.573 15.1398 33.8555C14.1447 34.4525 12.5085 35.8014 10.2309 37.902L2.138 45.6632C0.435383 47.3216 -0.493315 48.2282 -0.648098 48.383C-0.824992 48.5599 -1.10139 48.6483 -1.47729 48.6483C-1.87531 48.6483 -2.07431 48.5709 -2.07431 48.4162C-2.07431 48.1066 4.06173 42.247 16.3338 30.8372L13.6472 32.6615C12.5858 33.4133 11.4692 34.154 10.2973 34.8837L10.1978 34.4194C14.3106 31.589 17.2072 29.5769 18.8877 28.3828C21.5633 25.9063 23.0669 24.668 23.3985 24.668C23.5754 24.668 23.6639 24.7675 23.6639 24.9665C23.6639 25.2761 22.5472 26.2822 20.3139 27.9848L13.8462 34.2535C16.5439 32.3961 18.6555 31.4674 20.1813 31.4674ZM30.6081 31.3016C30.6081 31.1247 30.4312 31.0363 30.0774 31.0363C29.7236 31.0363 29.005 31.379 27.9215 32.0645C26.8381 32.7278 25.9204 33.4464 25.1686 34.2204C26.6501 33.9771 27.9215 33.5349 28.9829 32.8936C30.0664 32.2303 30.6081 31.6996 30.6081 31.3016ZM24.1072 35.9782C24.1072 36.6195 24.5495 36.9401 25.4339 36.9401C27.1145 36.9401 29.204 36.0335 31.7027 34.2204L31.769 34.7179C29.1598 36.5532 26.9265 37.4708 25.0691 37.4708C23.7424 37.4708 23.079 36.918 23.079 35.8124C23.079 34.7068 23.8972 33.557 25.5335 32.363C27.1918 31.1689 28.8945 30.5719 30.6413 30.5719C31.1941 30.5719 31.4705 30.7377 31.4705 31.0694C31.4705 31.6001 30.8514 32.2413 29.6131 32.9931C28.3969 33.7228 26.7938 34.2646 24.8038 34.6184C24.3394 35.1491 24.1072 35.6023 24.1072 35.9782ZM37.0852 30.2071C37.1736 30.0744 37.2731 30.0081 37.3837 30.0081C37.5163 30.0081 37.5827 30.0744 37.5827 30.2071C37.5827 30.3397 37.5163 30.4724 37.3837 30.6051C37.251 30.7377 37.1515 31.1468 37.0852 31.8323C37.0409 32.4956 36.8751 33.3138 36.5876 34.2867C36.3002 35.2375 35.8027 36.0999 35.0951 36.8738C35.0951 36.918 35.1393 36.9401 35.2278 36.9401C35.3826 36.9401 35.9464 36.6748 36.9193 36.1441L37.3837 35.9119C38.2239 35.4476 39.1195 34.8837 40.0703 34.2204L40.1366 34.7179C36.6872 36.9512 34.0448 38.0678 32.2095 38.0678C31.4798 38.0678 30.9491 37.913 30.6175 37.6035C30.2637 37.2939 30.0868 36.9512 30.0868 36.5753C30.0868 36.1994 30.1752 35.9009 30.3521 35.6797C30.529 35.4365 30.7501 35.3149 31.0155 35.3149C31.3471 35.3149 31.513 35.4918 31.513 35.8456C31.513 36.0667 31.3361 36.2657 30.9823 36.4426C30.8717 36.5089 30.8165 36.6195 30.8165 36.7743C30.8165 36.9291 30.9491 37.106 31.2145 37.305C31.4577 37.5261 31.723 37.6366 32.0105 37.6366C32.9834 37.6366 33.8126 37.0286 34.4981 35.8124C35.2057 34.5741 35.659 33.3469 35.858 32.1308V32.0313C33.7131 33.4907 32.2648 34.4415 31.513 34.8837L31.4135 34.4194C35.0177 32.0976 36.9083 30.6935 37.0852 30.2071ZM59.1733 18.6647C59.1733 18.5099 59.0628 18.4325 58.8417 18.4325C57.9572 18.4325 55.7681 20.0135 52.2745 23.1755C48.8029 26.3375 45.6851 29.4 42.9211 32.363C46.1052 30.3066 49.61 27.6863 53.4353 24.5022C57.2607 21.3181 59.1733 19.3723 59.1733 18.6647ZM44.9112 36.6748C44.9112 36.9622 45.0549 37.106 45.3424 37.106C45.652 37.106 46.1052 36.9733 46.7023 36.7079C47.2993 36.4426 47.83 36.1773 48.2943 35.9119C48.7587 35.6245 49.3115 35.2817 49.9527 34.8837C50.6161 34.4636 50.9699 34.2425 51.0141 34.2204L51.0804 34.7179C48.0953 36.7079 46.0057 37.703 44.8117 37.703C44.2368 37.703 43.9493 37.4155 43.9493 36.8406C43.9493 36.2657 44.3031 35.6355 45.0107 34.95C45.7404 34.2425 46.459 33.6123 47.1666 33.0595C47.8963 32.5067 48.2612 32.1087 48.2612 31.8654C48.2612 31.777 48.1838 31.7328 48.029 31.7328C47.5204 31.7328 46.1384 32.374 43.883 33.6565C41.6276 34.9169 40.1572 35.8456 39.4717 36.4426L38.2777 37.4376C38.1892 37.5261 37.9681 37.5703 37.6143 37.5703C37.2605 37.5703 37.0836 37.504 37.0836 37.3713C37.0836 37.305 37.1278 37.2165 37.2163 37.106C39.538 34.4968 42.1362 31.7659 45.0107 28.9135C47.8852 26.0611 50.6935 23.5182 53.4353 21.2849C56.1993 19.0295 58.0788 17.9018 59.0738 17.9018C59.6045 17.9018 59.8699 18.0677 59.8699 18.3993C59.8699 19.1069 58.7532 20.4778 56.5199 22.5121C54.3087 24.5243 51.8212 26.5475 49.0572 28.5818C46.2932 30.6161 43.9162 32.2303 41.9261 33.4243C41.1522 34.3088 40.71 34.8727 40.5994 35.1159C40.6878 35.1159 40.7542 35.1048 40.7984 35.0827C42.2136 34.0877 43.684 33.2032 45.2097 32.4293C46.7354 31.6554 47.6973 31.2684 48.0953 31.2684C48.4933 31.2684 48.7587 31.3458 48.8913 31.5006C49.0461 31.6554 49.1235 31.8212 49.1235 31.9981C49.1235 32.5288 48.7697 33.1258 48.0621 33.7892C47.3767 34.4525 46.6802 35.0496 45.9726 35.5802C45.265 36.1109 44.9112 36.4758 44.9112 36.6748Z" fill="white"/>
<path d="M19.8496 34.0877L18.0801 31.9643C18.0703 31.9725 18.0605 31.9808 18.0508 31.9891L19.8496 34.0877ZM17.4947 35.9782L19.1429 38.197L19.1531 38.1894L17.4947 35.9782ZM21.11 35.9119L19.7731 33.4928C19.7635 33.498 19.754 33.5034 19.7445 33.5088L21.11 35.9119ZM23.7966 34.2204L26.5363 33.8551C26.4088 32.8992 25.7924 32.0789 24.9098 31.6905C24.0272 31.3021 23.0059 31.4018 22.2151 31.9535L23.7966 34.2204ZM23.8629 34.7179L25.3644 37.0384C26.2617 36.4578 26.7439 35.412 26.6026 34.3526L23.8629 34.7179ZM21.3421 36.2104L20.0146 33.7861C19.968 33.8116 19.9222 33.8385 19.8772 33.8666L21.3421 36.2104ZM19.0204 37.3381L17.9652 34.7835C17.9495 34.79 17.9339 34.7966 17.9183 34.8034L19.0204 37.3381ZM16.6986 35.1159L14.8589 33.0531C14.8495 33.0615 14.8402 33.0699 14.831 33.0784L16.6986 35.1159ZM19.1199 33.1922L17.5725 30.902C17.5627 30.9085 17.553 30.9152 17.5433 30.9219L19.1199 33.1922ZM15.1398 33.8555L16.5618 36.2256C16.5716 36.2197 16.5814 36.2138 16.5911 36.2078L15.1398 33.8555ZM10.2309 37.902L8.357 35.8702C8.34382 35.8824 8.33075 35.8947 8.31781 35.9071L10.2309 37.902ZM2.138 45.6632L0.224872 43.6684C0.219712 43.6733 0.214571 43.6783 0.20945 43.6833L2.138 45.6632ZM-0.648098 48.383L-2.60253 46.4286L-2.60253 46.4286L-0.648098 48.383ZM16.3338 30.8372L18.2158 32.8615C19.274 31.8777 19.3959 30.2449 18.4955 29.1149C17.5952 27.9849 15.9765 27.7389 14.7811 28.5506L16.3338 30.8372ZM13.6472 32.6615L12.0945 30.3748C12.0795 30.3851 12.0645 30.3955 12.0496 30.406L13.6472 32.6615ZM10.2973 34.8837L7.59464 35.4628C7.78326 36.3431 8.38871 37.0763 9.21736 37.428C10.046 37.7797 10.994 37.7059 11.7582 37.23L10.2973 34.8837ZM10.1978 34.4194L8.63085 32.1424C7.70905 32.7768 7.26068 33.9044 7.49514 34.9985L10.1978 34.4194ZM18.8877 28.3828L20.4886 30.636C20.5856 30.5671 20.678 30.492 20.7653 30.4112L18.8877 28.3828ZM20.3139 27.9848L18.6382 25.7868C18.5514 25.8529 18.4686 25.9241 18.3903 26.0001L20.3139 27.9848ZM13.8462 34.2535L11.9226 32.2688C10.8905 33.2691 10.7973 34.8934 11.7082 36.0052C12.619 37.1169 14.2299 37.3451 15.4137 36.5301L13.8462 34.2535ZM20.1813 31.4674V34.2314C20.0053 34.2314 19.7508 34.2014 19.4652 34.0812C19.1713 33.9574 18.9213 33.77 18.7313 33.5529L20.8115 31.7328L22.8916 29.9127C22.141 29.0549 21.1292 28.7035 20.1813 28.7035V31.4674ZM20.8115 31.7328L18.7313 33.5529C18.5974 33.3998 18.4759 33.2063 18.392 32.9785C18.3086 32.7522 18.2796 32.5392 18.2796 32.363H21.0436H23.8076C23.8076 31.4757 23.5037 30.6123 22.8916 29.9127L20.8115 31.7328ZM21.0436 32.363H18.2796C18.2796 32.1033 18.3333 31.9012 18.381 31.7739C18.4272 31.6507 18.4714 31.5875 18.4726 31.5857C18.4746 31.5828 18.4507 31.6173 18.3823 31.6882C18.3151 31.7579 18.2171 31.8502 18.0801 31.9643L19.8496 34.0877L21.619 36.211C22.126 35.7886 22.6261 35.2979 23.0176 34.7323C23.4026 34.1762 23.8076 33.3651 23.8076 32.363H21.0436ZM19.8496 34.0877L18.0508 31.9891C17.3214 32.6144 16.5832 33.2069 15.8363 33.7671L17.4947 35.9782L19.1531 38.1894C19.9982 37.5555 20.83 36.8877 21.6484 36.1863L19.8496 34.0877ZM17.4947 35.9782L15.8464 33.7595C15.3883 34.0998 14.9224 34.4885 14.5439 34.921C14.2557 35.2504 13.5698 36.0956 13.5698 37.305H16.3338H19.0978C19.0978 37.7985 18.947 38.1515 18.8639 38.3128C18.8185 38.401 18.7771 38.4637 18.7513 38.5C18.7251 38.537 18.7074 38.5575 18.7041 38.5612C18.7001 38.5658 18.7284 38.5335 18.8083 38.4634C18.8858 38.3955 18.9951 38.3068 19.1429 38.197L17.4947 35.9782ZM16.3338 37.305H13.5698C13.5698 38.2971 14.057 39.2819 14.993 39.8579C15.7089 40.2985 16.4276 40.3343 16.765 40.3343V37.5703V34.8063C16.8149 34.8063 17.318 34.7979 17.8902 35.15C18.2168 35.351 18.552 35.6631 18.7911 36.1046C19.0271 36.5402 19.0978 36.9689 19.0978 37.305H16.3338ZM16.765 37.5703V40.3343C17.7229 40.3343 18.6841 40.0685 19.5499 39.738C20.4485 39.395 21.4291 38.9096 22.4754 38.3151L21.11 35.9119L19.7445 33.5088C18.845 34.0198 18.1285 34.3636 17.5787 34.5734C16.9962 34.7958 16.7579 34.8063 16.765 34.8063V37.5703ZM21.11 35.9119L22.4469 38.3311C23.3863 37.8119 24.364 37.1947 25.378 36.4872L23.7966 34.2204L22.2151 31.9535C21.3275 32.5728 20.5141 33.0833 19.7731 33.4928L21.11 35.9119ZM23.7966 34.2204L21.0568 34.5857L21.1232 35.0832L23.8629 34.7179L26.6026 34.3526L26.5363 33.8551L23.7966 34.2204ZM23.8629 34.7179L22.3614 32.3973C21.6753 32.8412 20.8943 33.3044 20.0146 33.7861L21.3421 36.2104L22.6697 38.6347C23.6473 38.0993 24.5468 37.5675 25.3644 37.0384L23.8629 34.7179ZM21.3421 36.2104L19.8772 33.8666C19.5392 34.0778 18.9296 34.3852 17.9652 34.7835L19.0204 37.3381L20.0756 39.8928C21.1455 39.4508 22.0837 39.0064 22.807 38.5543L21.3421 36.2104ZM19.0204 37.3381L17.9183 34.8034C17.0459 35.1827 16.6119 35.2375 16.4996 35.2375V38.0015V40.7655C17.7141 40.7655 18.9606 40.3781 20.1225 39.8729L19.0204 37.3381ZM16.4996 38.0015V35.2375C16.5263 35.2375 17.0624 35.2372 17.6024 35.7232C18.1977 36.2589 18.2686 36.8988 18.2686 37.106H15.5046H12.7406C12.7406 37.9101 12.9774 38.9978 13.9044 39.8321C14.776 40.6165 15.8096 40.7655 16.4996 40.7655V38.0015ZM15.5046 37.106H18.2686C18.2686 37.436 18.1573 37.6093 18.1732 37.5827C18.1799 37.5716 18.2085 37.5269 18.2748 37.4495C18.3407 37.3727 18.4351 37.2736 18.5663 37.1534L16.6986 35.1159L14.831 33.0784C13.8902 33.9407 12.7406 35.3008 12.7406 37.106H15.5046ZM16.6986 35.1159L18.5384 37.1786C19.2837 36.5139 20.0033 35.9438 20.6965 35.4624L19.1199 33.1922L17.5433 30.9219C16.6445 31.5461 15.7499 32.2585 14.8589 33.0531L16.6986 35.1159ZM19.1199 33.1922L20.6673 35.4824C21.1011 35.1893 21.5009 34.9026 21.8154 34.6392C21.9649 34.5139 22.172 34.3306 22.3655 34.1056C22.4618 33.9938 22.6104 33.8079 22.7475 33.5597C22.8653 33.3464 23.1111 32.8466 23.1111 32.164H20.3471H17.5831C17.5831 31.8217 17.648 31.541 17.7112 31.3447C17.7747 31.1471 17.8503 30.9926 17.9084 30.8874C18.0199 30.6855 18.1302 30.5525 18.1753 30.5001C18.2665 30.394 18.3203 30.3557 18.2652 30.4019C18.1706 30.4811 17.9569 30.6422 17.5725 30.902L19.1199 33.1922ZM20.3471 32.164H23.1111C23.1111 31.5171 22.8974 30.8634 22.4602 30.3233C22.0593 29.8282 21.5859 29.5688 21.2585 29.434C20.6567 29.1862 20.0781 29.1678 19.7832 29.1678V31.9318V34.6958C19.7831 34.6958 19.7805 34.6958 19.7757 34.6956C19.7709 34.6955 19.7633 34.6952 19.7531 34.6946C19.7336 34.6935 19.6997 34.6909 19.6541 34.6846C19.5771 34.674 19.3907 34.6432 19.1538 34.5456C18.9204 34.4495 18.5174 34.2386 18.1636 33.8015C17.7733 33.3194 17.5831 32.7335 17.5831 32.164H20.3471ZM19.7832 31.9318V29.1678C18.7514 29.1678 17.7217 29.478 16.8016 29.8592C15.8451 30.2555 14.8018 30.8162 13.6884 31.5033L15.1398 33.8555L16.5911 36.2078C17.5562 35.6123 18.3261 35.2112 18.9174 34.9662C19.5452 34.7062 19.7979 34.6958 19.7832 34.6958V31.9318ZM15.1398 33.8555L13.7177 31.4854C12.4464 32.2482 10.6172 33.7856 8.357 35.8702L10.2309 37.902L12.1049 39.9337C14.3997 37.8171 15.8431 36.6568 16.5618 36.2256L15.1398 33.8555ZM10.2309 37.902L8.31781 35.9071L0.224872 43.6684L2.138 45.6632L4.05112 47.6581L12.1441 39.8969L10.2309 37.902ZM2.138 45.6632L0.20945 43.6833C-1.48141 45.3302 -2.43085 46.2569 -2.60253 46.4286L-0.648098 48.383L1.30633 50.3374C1.44422 50.1995 2.35217 49.3131 4.06654 47.6432L2.138 45.6632ZM-0.648098 48.383L-2.60253 46.4286C-2.33323 46.1593 -2.0444 46.018 -1.83046 45.9495C-1.62961 45.8852 -1.49554 45.8844 -1.47729 45.8844V48.6483V51.4123C-0.732174 51.4123 0.400702 51.2431 1.30634 50.3374L-0.648098 48.383ZM-1.47729 48.6483V45.8844C-1.57741 45.8844 -1.31085 45.8635 -0.923263 46.0143C-0.707929 46.098 -0.303615 46.2929 0.0615721 46.719C0.471869 47.1976 0.68967 47.804 0.68967 48.4162H-2.07431H-4.83829C-4.83829 49.1057 -4.59562 49.7798 -4.13557 50.3165C-3.72063 50.8006 -3.24169 51.0439 -2.92685 51.1663C-2.34025 51.3945 -1.77519 51.4123 -1.47729 51.4123V48.6483ZM-2.07431 48.4162H0.68967C0.68967 48.9192 0.549499 49.2906 0.499126 49.4174C0.433285 49.5833 0.365394 49.7049 0.330221 49.7651C0.259426 49.8863 0.199991 49.9632 0.193442 49.9717C0.172565 49.999 0.185119 49.9804 0.263776 49.8933C0.410548 49.731 0.661117 49.4693 1.03589 49.0925C1.77713 48.3472 2.90692 47.249 4.43661 45.7882C7.49084 42.8715 12.0819 38.5644 18.2158 32.8615L16.3338 30.8372L14.4518 28.813C8.31361 34.5198 3.70063 38.8473 0.618826 41.7903C-0.919505 43.2594 -2.09074 44.3972 -2.8835 45.1942C-3.27573 45.5886 -3.60042 45.9246 -3.83715 46.1865C-3.95024 46.3116 -4.0815 46.4617 -4.19825 46.6144C-4.25274 46.6857 -4.34813 46.8144 -4.44289 46.9766C-4.49005 47.0574 -4.56693 47.1968 -4.63876 47.3777C-4.69513 47.5197 -4.83829 47.9035 -4.83829 48.4162H-2.07431ZM16.3338 30.8372L14.7811 28.5506L12.0945 30.3748L13.6472 32.6615L15.1999 34.9481L17.8865 33.1239L16.3338 30.8372ZM13.6472 32.6615L12.0496 30.406C11.0355 31.1243 9.96462 31.8349 8.83634 32.5374L10.2973 34.8837L11.7582 37.23C12.9738 36.4732 14.1362 35.7022 15.2448 34.9169L13.6472 32.6615ZM10.2973 34.8837L12.9999 34.3046L12.9004 33.8402L10.1978 34.4194L7.49514 34.9985L7.59464 35.4628L10.2973 34.8837ZM10.1978 34.4194L11.7647 36.6963C15.8774 33.866 18.7894 31.8433 20.4886 30.636L18.8877 28.3828L17.2868 26.1297C15.625 27.3104 12.7437 29.3121 8.63085 32.1424L10.1978 34.4194ZM18.8877 28.3828L20.7653 30.4112C22.0913 29.1839 23.0897 28.2981 23.7792 27.7303C24.1298 27.4416 24.354 27.2737 24.4759 27.1915C24.5404 27.1479 24.5232 27.1646 24.4465 27.2026C24.4069 27.2223 24.3115 27.2676 24.1738 27.3122C24.0552 27.3506 23.775 27.432 23.3985 27.432V24.668V21.9041C22.6731 21.9041 22.1205 22.1858 21.9919 22.2495C21.7591 22.3649 21.5491 22.4977 21.3841 22.609C21.0472 22.8363 20.6662 23.1327 20.265 23.4631C19.4508 24.1336 18.3597 25.1053 17.0102 26.3544L18.8877 28.3828ZM23.3985 24.668V27.432C22.9711 27.432 22.1698 27.2968 21.5317 26.579C20.9488 25.9231 20.8999 25.2182 20.8999 24.9665H23.6639H26.4279C26.4279 24.5159 26.3348 23.6617 25.6634 22.9064C24.9368 22.089 24.0029 21.9041 23.3985 21.9041V24.668ZM23.6639 24.9665H20.8999C20.8999 24.5838 20.9832 24.2868 21.0435 24.1152C21.1064 23.9366 21.1757 23.8063 21.2176 23.7337C21.2978 23.5948 21.3607 23.5248 21.3472 23.5408C21.3248 23.5672 21.2203 23.68 20.9763 23.8998C20.5029 24.3263 19.7367 24.9493 18.6382 25.7868L20.3139 27.9848L21.9897 30.1829C23.1245 29.3177 24.0332 28.5864 24.6765 28.0067C24.9908 27.7236 25.3051 27.4204 25.5618 27.1179C25.6879 26.9693 25.8555 26.7567 26.0054 26.4969C26.1158 26.3056 26.4279 25.7406 26.4279 24.9665H23.6639ZM20.3139 27.9848L18.3903 26.0001L11.9226 32.2688L13.8462 34.2535L15.7699 36.2383L22.2376 29.9695L20.3139 27.9848ZM13.8462 34.2535L15.4137 36.5301C18.0732 34.6989 19.571 34.2314 20.1813 34.2314V31.4674V28.7035C17.7401 28.7035 15.0145 30.0933 12.2788 31.977L13.8462 34.2535ZM27.9215 32.0645L29.3648 34.4217C29.3763 34.4146 29.3878 34.4075 29.3993 34.4002L27.9215 32.0645ZM25.1686 34.2204L23.1861 32.2945C22.3548 33.1501 22.1664 34.4425 22.7186 35.4999C23.2709 36.5573 24.4392 37.1411 25.6164 36.9478L25.1686 34.2204ZM28.9829 32.8936L30.4122 35.2594C30.4168 35.2566 30.4215 35.2537 30.4261 35.2509L28.9829 32.8936ZM31.7027 34.2204L34.4424 33.8551C34.3137 32.8901 33.687 32.064 32.7924 31.6802C31.8977 31.2965 30.8672 31.4116 30.0793 31.9833L31.7027 34.2204ZM31.769 34.7179L33.3592 36.9786C34.2018 36.3859 34.6449 35.3738 34.5087 34.3526L31.769 34.7179ZM25.5335 32.363L23.9184 30.1199C23.9137 30.1233 23.9089 30.1268 23.9042 30.1302L25.5335 32.363ZM29.6131 32.9931L31.0351 35.3632C31.0393 35.3608 31.0434 35.3583 31.0475 35.3558L29.6131 32.9931ZM24.8038 34.6184L24.32 31.8971C23.7008 32.0071 23.1377 32.325 22.7237 32.7983L24.8038 34.6184ZM30.6081 31.3016H33.3721C33.3721 30.7737 33.2322 30.1885 32.8747 29.6523C32.5288 29.1334 32.0837 28.8165 31.7115 28.6304C31.0455 28.2974 30.3955 28.2723 30.0774 28.2723V31.0363V33.8002C30.0581 33.8002 29.9774 33.7996 29.8552 33.7792C29.7405 33.7601 29.5122 33.7112 29.2394 33.5748C28.9557 33.4329 28.5769 33.1712 28.2752 32.7187C27.9619 32.2488 27.8441 31.741 27.8441 31.3016H30.6081ZM30.0774 31.0363V28.2723C29.2241 28.2723 28.4617 28.618 28.0833 28.7985C27.5839 29.0367 27.0297 29.358 26.4438 29.7287L27.9215 32.0645L29.3993 34.4002C29.8968 34.0854 30.2437 33.8927 30.4629 33.7881C30.5719 33.7361 30.6077 33.7261 30.5851 33.7333C30.5714 33.7377 30.5245 33.7521 30.4503 33.7664C30.379 33.7802 30.2494 33.8002 30.0774 33.8002V31.0363ZM27.9215 32.0645L26.4783 29.7072C25.2316 30.4705 24.1244 31.3285 23.1861 32.2945L25.1686 34.2204L27.1512 36.1463C27.7164 35.5643 28.4445 34.9851 29.3648 34.4217L27.9215 32.0645ZM25.1686 34.2204L25.6164 36.9478C27.3738 36.6593 28.9935 36.1165 30.4122 35.2594L28.9829 32.8936L27.5536 30.5279C26.8496 30.9533 25.9264 31.295 24.7208 31.4929L25.1686 34.2204ZM28.9829 32.8936L30.4261 35.2509C31.0435 34.8729 31.6502 34.4485 32.136 33.9726C32.5092 33.607 33.3721 32.6821 33.3721 31.3016H30.6081H27.8441C27.8441 30.7694 28.0235 30.3961 28.1191 30.2323C28.2151 30.0677 28.2928 29.999 28.2676 30.0236C28.2499 30.041 28.1875 30.098 28.0574 30.1936C27.9304 30.2869 27.7605 30.4012 27.5397 30.5364L28.9829 32.8936ZM24.1072 35.9782H21.3433C21.3433 37.0091 21.7472 38.1621 22.8165 38.9374C23.721 39.5931 24.7402 39.7041 25.4339 39.7041V36.9401V34.1761C25.2433 34.1761 25.5991 34.1268 26.0613 34.4619C26.3223 34.6512 26.5519 34.9191 26.7014 35.2445C26.844 35.5547 26.8712 35.8227 26.8712 35.9782H24.1072ZM25.4339 36.9401V39.7041C28.0126 39.7041 30.6984 38.3642 33.326 36.4574L31.7027 34.2204L30.0793 31.9833C27.7097 33.7029 26.2163 34.1761 25.4339 34.1761V36.9401ZM31.7027 34.2204L28.9629 34.5857L29.0293 35.0832L31.769 34.7179L34.5087 34.3526L34.4424 33.8551L31.7027 34.2204ZM31.769 34.7179L30.1788 32.4571C27.7373 34.1745 26.0778 34.7068 25.0691 34.7068V37.4708V40.2348C27.7752 40.2348 30.5823 38.9318 33.3592 36.9786L31.769 34.7179ZM25.0691 37.4708V34.7068C24.7215 34.7068 24.9754 34.624 25.346 34.9329C25.5451 35.0987 25.6883 35.3078 25.7697 35.5114C25.8071 35.605 25.8255 35.6821 25.8344 35.7341C25.8388 35.76 25.841 35.7798 25.842 35.7928C25.8425 35.7993 25.8428 35.8043 25.8429 35.8075C25.843 35.8092 25.843 35.8104 25.843 35.8112C25.843 35.8116 25.843 35.8119 25.843 35.8121C25.843 35.8122 25.843 35.8123 25.843 35.8123C25.843 35.8118 25.843 35.8129 25.843 35.8124C25.843 35.8119 25.843 35.8129 25.843 35.8124H23.079H20.3151C20.3151 36.9372 20.6766 38.2374 21.8071 39.1796C22.8411 40.0412 24.09 40.2348 25.0691 40.2348V37.4708ZM23.079 35.8124H25.843C25.843 35.9748 25.7764 35.9598 25.9447 35.7233C26.1242 35.471 26.4894 35.087 27.1627 34.5957L25.5335 32.363L23.9042 30.1302C22.1201 31.4322 20.3151 33.3028 20.3151 35.8124H23.079ZM25.5335 32.363L27.1485 34.606C28.4189 33.6913 29.568 33.3359 30.6413 33.3359V30.5719V27.8079C28.2209 27.8079 25.9648 28.6465 23.9184 30.1199L25.5335 32.363ZM30.6413 30.5719V33.3359C30.7315 33.3359 30.3397 33.3655 29.8411 33.0664C29.5506 32.8921 29.2333 32.6096 29.0025 32.1941C28.7737 31.7823 28.7065 31.3779 28.7065 31.0694H31.4705H34.2345C34.2345 29.9672 33.6851 28.9261 32.6852 28.3262C31.9103 27.8612 31.1039 27.8079 30.6413 27.8079V30.5719ZM31.4705 31.0694H28.7065C28.7065 30.6537 28.829 30.3513 28.9105 30.197C28.9882 30.05 29.0498 29.9953 29.0177 30.0285C28.9902 30.057 28.915 30.1281 28.7673 30.2388C28.6223 30.3476 28.4291 30.4785 28.1786 30.6305L29.6131 32.9931L31.0475 35.3558C31.7601 34.9231 32.4501 34.4321 32.9945 33.8682C33.4846 33.3606 34.2345 32.4049 34.2345 31.0694H31.4705ZM29.6131 32.9931L28.191 30.6231C27.3583 31.1227 26.1081 31.5792 24.32 31.8971L24.8038 34.6184L25.2876 37.3397C27.4796 36.95 29.4356 36.323 31.0351 35.3632L29.6131 32.9931ZM24.8038 34.6184L22.7237 32.7983C22.1579 33.4448 21.3433 34.5532 21.3433 35.9782H24.1072H26.8712C26.8712 36.3558 26.7576 36.5848 26.7414 36.6164C26.7233 36.6517 26.7483 36.5935 26.8839 36.4385L24.8038 34.6184ZM37.0852 30.2071L34.7854 28.6739C34.663 28.8575 34.563 29.0551 34.4876 29.2625L37.0852 30.2071ZM37.0852 31.8323L34.334 31.566C34.3314 31.5935 34.3291 31.6209 34.3273 31.6484L37.0852 31.8323ZM36.5877 34.2867L39.2334 35.0866C39.235 35.081 39.2367 35.0754 39.2384 35.0699L36.5877 34.2867ZM35.0951 36.8738L33.0552 35.0087C32.5894 35.5182 32.3311 36.1835 32.3311 36.8738H35.0951ZM36.9193 36.1441L35.6832 33.6719C35.6538 33.6866 35.6247 33.7019 35.5958 33.7176L36.9193 36.1441ZM37.3837 35.9119L38.6198 38.3841C38.6537 38.3671 38.6873 38.3494 38.7206 38.3311L37.3837 35.9119ZM40.0703 34.2204L42.81 33.8551C42.6826 32.8992 42.0662 32.0789 41.1835 31.6905C40.3009 31.3021 39.2796 31.4018 38.4888 31.9535L40.0703 34.2204ZM40.1366 34.7179L41.6388 37.038C42.5357 36.4573 43.0176 35.4117 42.8763 34.3526L40.1366 34.7179ZM30.6175 37.6035L32.5034 35.5828C32.4817 35.5627 32.4598 35.5428 32.4375 35.5234L30.6175 37.6035ZM30.3521 35.6797L32.5104 37.4064C32.5369 37.3733 32.5625 37.3397 32.5874 37.3054L30.3521 35.6797ZM30.9823 36.4426L29.7462 33.9704C29.6829 34.0021 29.6209 34.0361 29.5602 34.0725L30.9823 36.4426ZM31.2145 37.305L33.0737 35.2598C33.0094 35.2013 32.9424 35.1459 32.8729 35.0938L31.2145 37.305ZM34.4981 35.8124L32.0983 34.4411C32.0956 34.4458 32.0929 34.4505 32.0902 34.4553L34.4981 35.8124ZM35.858 32.1308L38.5857 32.5771C38.6098 32.4296 38.6219 32.2803 38.6219 32.1308H35.858ZM35.858 32.0313H38.6219C38.6219 31.0072 38.0558 30.0671 37.1506 29.5882C36.2455 29.1093 35.1497 29.17 34.3031 29.7461L35.858 32.0313ZM31.513 34.8837L28.8104 35.4628C28.9964 36.3311 29.5882 37.057 30.4011 37.4142C31.214 37.7714 32.149 37.7163 32.9144 37.2661L31.513 34.8837ZM31.4135 34.4194L29.9167 32.0958C28.9501 32.7184 28.4699 33.8743 28.7108 34.9985L31.4135 34.4194ZM37.0852 30.2071L39.3849 31.7402C39.2046 32.0107 38.564 32.772 37.3837 32.772V30.0081V27.2441C35.9822 27.2441 35.1426 28.138 34.7854 28.6739L37.0852 30.2071ZM37.3837 30.0081V32.772C37.024 32.772 36.2465 32.6802 35.5785 32.0122C34.9105 31.3442 34.8187 30.5668 34.8187 30.2071H37.5827H40.3467C40.3467 29.7147 40.2217 28.8377 39.4874 28.1034C38.753 27.369 37.8761 27.2441 37.3837 27.2441V30.0081ZM37.5827 30.2071H34.8187C34.8187 29.3481 35.2607 28.8192 35.4292 28.6506L37.3837 30.6051L39.3381 32.5595C39.772 32.1256 40.3467 31.3313 40.3467 30.2071H37.5827ZM37.3837 30.6051L35.4292 28.6506C34.7704 29.3095 34.5782 30.1346 34.5239 30.3581C34.43 30.7441 34.373 31.1637 34.334 31.566L37.0852 31.8323L39.8363 32.0985C39.8492 31.9652 39.8622 31.8617 39.8739 31.7841C39.8797 31.7458 39.8848 31.7166 39.8888 31.6956C39.8929 31.6744 39.8952 31.6646 39.8952 31.6646C39.8952 31.6649 39.8943 31.6685 39.8924 31.6751C39.8906 31.6818 39.8876 31.6923 39.8831 31.7063C39.8748 31.7326 39.8583 31.7811 39.8309 31.8452C39.8041 31.9076 39.7588 32.0038 39.6883 32.1182C39.6192 32.2304 39.5071 32.3905 39.3381 32.5595L37.3837 30.6051ZM37.0852 31.8323L34.3273 31.6484C34.3017 32.0322 34.1935 32.6353 33.9369 33.5035L36.5877 34.2867L39.2384 35.0699C39.5567 33.9923 39.7802 32.959 39.843 32.0161L37.0852 31.8323ZM36.5877 34.2867L33.9419 33.4868C33.7808 34.0197 33.4996 34.5227 33.0552 35.0087L35.0951 36.8738L37.135 38.7388C38.1058 37.6771 38.8196 36.4553 39.2334 35.0866L36.5877 34.2867ZM35.0951 36.8738H32.3311C32.3311 37.3685 32.4627 37.9247 32.8036 38.436C33.133 38.93 33.5532 39.2262 33.8922 39.3957C34.4919 39.6956 35.0424 39.7041 35.2278 39.7041V36.9401V34.1761C35.3247 34.1761 35.8089 34.1736 36.3644 34.4514C36.6812 34.6098 37.0849 34.8922 37.4032 35.3696C37.733 35.8644 37.8591 36.4012 37.8591 36.8738H35.0951ZM35.2278 36.9401V39.7041C35.8163 39.7041 36.3035 39.5107 36.3779 39.4832C36.5736 39.411 36.7693 39.3241 36.9436 39.242C37.2991 39.0747 37.739 38.8454 38.2429 38.5706L36.9193 36.1441L35.5958 33.7176C35.1267 33.9735 34.7983 34.1421 34.5899 34.2402C34.4823 34.2908 34.4472 34.3034 34.4632 34.2975C34.4711 34.2946 34.5264 34.2741 34.6143 34.2514C34.66 34.2396 34.7313 34.2228 34.822 34.2082C34.9081 34.1943 35.0497 34.1761 35.2278 34.1761V36.9401ZM36.9193 36.1441L38.1554 38.6163L38.6198 38.3841L37.3837 35.9119L36.1476 33.4397L35.6832 33.6719L36.9193 36.1441ZM37.3837 35.9119L38.7206 38.3311C39.6601 37.8119 40.6377 37.1947 41.6518 36.4872L40.0703 34.2204L38.4888 31.9535C37.6012 32.5728 36.7878 33.0833 36.0468 33.4928L37.3837 35.9119ZM40.0703 34.2204L37.3305 34.5857L37.3969 35.0832L40.1366 34.7179L42.8763 34.3526L42.81 33.8551L40.0703 34.2204ZM40.1366 34.7179L38.6344 32.3977C36.9923 33.4609 35.6163 34.2092 34.4918 34.6844C33.3402 35.171 32.6087 35.3038 32.2095 35.3038V38.0678V40.8318C33.6456 40.8318 35.1529 40.4063 36.6437 39.7763C38.1616 39.1348 39.8315 38.2081 41.6388 37.038L40.1366 34.7179ZM32.2095 38.0678V35.3038C32.0282 35.3038 31.9865 35.2832 32.0381 35.2983C32.0985 35.3159 32.2915 35.3851 32.5034 35.5828L30.6175 37.6035L28.7315 39.6241C29.8093 40.63 31.1845 40.8318 32.2095 40.8318V38.0678ZM30.6175 37.6035L32.4375 35.5234C32.4663 35.5485 32.5742 35.6502 32.6756 35.8466C32.784 36.0566 32.8507 36.3104 32.8507 36.5753H30.0868H27.3228C27.3228 37.9411 28.006 38.9911 28.7974 39.6836L30.6175 37.6035ZM30.0868 36.5753H32.8507C32.8507 36.6209 32.8374 36.9977 32.5104 37.4064L30.3521 35.6797L28.1938 33.9531C27.513 34.8041 27.3228 35.7778 27.3228 36.5753H30.0868ZM30.3521 35.6797L32.5874 37.3054C32.4822 37.4501 32.2898 37.659 31.9826 37.8279C31.6639 38.0033 31.3237 38.0789 31.0155 38.0789V35.3149V32.5509C29.7383 32.5509 28.7339 33.2055 28.1168 34.054L30.3521 35.6797ZM31.0155 35.3149V38.0789C30.708 38.0789 29.9819 37.9884 29.3722 37.338C28.7939 36.7211 28.749 36.0519 28.749 35.8456H31.513H34.277C34.277 35.2854 34.1492 34.3509 33.405 33.5572C32.6294 32.7299 31.6546 32.5509 31.0155 32.5509V35.3149ZM31.513 35.8456H28.749C28.749 35.1469 29.0497 34.6223 29.3145 34.3244C29.4366 34.187 29.5479 34.0991 29.6168 34.0503C29.6868 34.0008 29.7347 33.9762 29.7462 33.9704L30.9823 36.4426L32.2184 38.9148C32.7476 38.6502 34.277 37.7549 34.277 35.8456H31.513ZM30.9823 36.4426L29.5602 34.0725C28.4386 34.7455 28.0525 35.8767 28.0525 36.7743H30.8165H33.5804C33.5804 37.0203 33.5366 37.3984 33.3301 37.8114C33.1122 38.2471 32.7794 38.5877 32.4044 38.8127L30.9823 36.4426ZM30.8165 36.7743H28.0525C28.0525 37.6577 28.4285 38.3131 28.7048 38.6814C28.9857 39.0559 29.3074 39.3297 29.5561 39.5161L31.2145 37.305L32.8729 35.0938C32.8733 35.0941 32.8981 35.1126 32.9382 35.1504C32.9769 35.187 33.0469 35.2577 33.1271 35.3646C33.2707 35.5561 33.5804 36.0456 33.5804 36.7743H30.8165ZM31.2145 37.305L29.3552 39.3501C30.029 39.9627 30.9366 40.4006 32.0105 40.4006V37.6366V34.8727C32.2317 34.8727 32.4548 34.9173 32.659 35.0024C32.8574 35.085 32.9941 35.1874 33.0737 35.2598L31.2145 37.305ZM32.0105 37.6366V40.4006C34.3847 40.4006 35.9675 38.8346 36.9059 37.1696L34.4981 35.8124L32.0902 34.4553C31.9863 34.6396 31.8974 34.7643 31.8305 34.8449C31.7641 34.9248 31.7273 34.9519 31.7276 34.9517C31.7305 34.9495 31.7651 34.9255 31.8296 34.9037C31.8956 34.8814 31.9603 34.8727 32.0105 34.8727V37.6366ZM34.4981 35.8124L36.8979 37.1837C37.7437 35.7035 38.3257 34.1655 38.5857 32.5771L35.858 32.1308L33.1303 31.6844C32.9922 32.5283 32.6676 33.4448 32.0983 34.4411L34.4981 35.8124ZM35.858 32.1308H38.6219V32.0313H35.858H33.094V32.1308H35.858ZM35.858 32.0313L34.3031 29.7461C32.1462 31.2137 30.7722 32.1128 30.1116 32.5013L31.513 34.8837L32.9144 37.2661C33.7574 36.7702 35.28 35.7676 37.4128 34.3165L35.858 32.0313ZM31.513 34.8837L34.2156 34.3046L34.1161 33.8402L31.4135 34.4194L28.7108 34.9985L28.8104 35.4628L31.513 34.8837ZM31.4135 34.4194L32.9103 36.743C34.7296 35.571 36.1636 34.6007 37.1826 33.8439C37.6873 33.469 38.1378 33.1116 38.4964 32.7837C38.6747 32.6207 38.8699 32.4291 39.0491 32.2171C39.1932 32.0467 39.4929 31.6738 39.6827 31.1516L37.0852 30.2071L34.4876 29.2625C34.57 29.036 34.6653 28.8783 34.7151 28.8017C34.7692 28.7186 34.8125 28.6661 34.8279 28.6479C34.8558 28.6149 34.8461 28.6309 34.766 28.7042C34.6077 28.849 34.3271 29.0789 33.8866 29.406C33.015 30.0533 31.7016 30.9459 29.9167 32.0958L31.4135 34.4194ZM52.2745 23.1755L50.4197 21.1262L50.4133 21.1321L52.2745 23.1755ZM42.9211 32.363L40.9 30.4776C39.9485 31.4977 39.9062 33.0669 40.8014 34.1368C41.6967 35.2066 43.2488 35.4416 44.4207 34.6848L42.9211 32.363ZM53.4353 24.5022L55.2036 26.6266V26.6266L53.4353 24.5022ZM48.2943 35.9119L49.6656 38.3117C49.6938 38.2956 49.7216 38.2791 49.7492 38.262L48.2943 35.9119ZM49.9527 34.8837L51.4103 37.2321C51.4174 37.2277 51.4245 37.2233 51.4316 37.2188L49.9527 34.8837ZM51.0141 34.2204L53.7538 33.8551C53.6358 32.9699 53.0974 32.1962 52.3083 31.7781C51.5192 31.36 50.5767 31.3488 49.778 31.7482L51.0141 34.2204ZM51.0804 34.7179L52.6136 37.0176C53.4915 36.4324 53.9596 35.3984 53.8201 34.3526L51.0804 34.7179ZM45.0107 34.95L46.9339 36.9353L46.9348 36.9343L45.0107 34.95ZM47.1666 33.0595L45.4976 30.8563C45.4866 30.8646 45.4758 30.873 45.465 30.8814L47.1666 33.0595ZM43.883 33.6565L45.2313 36.0693C45.2373 36.066 45.2433 36.0626 45.2492 36.0592L43.883 33.6565ZM39.4717 36.4426L41.2411 38.5659C41.2566 38.5531 41.2719 38.5401 41.287 38.5269L39.4717 36.4426ZM38.2777 37.4376L36.5082 35.3143C36.444 35.3678 36.3823 35.4241 36.3232 35.4832L38.2777 37.4376ZM37.2163 37.106L35.1514 35.2686C35.1193 35.3047 35.0882 35.3416 35.058 35.3793L37.2163 37.106ZM45.0107 28.9135L46.9576 30.8755V30.8755L45.0107 28.9135ZM53.4353 21.2849L55.1809 23.428L55.1828 23.4264L53.4353 21.2849ZM56.5199 22.5121L58.3802 24.5564L58.3812 24.5555L56.5199 22.5121ZM49.0572 28.5818L50.6956 30.8079V30.8079L49.0572 28.5818ZM41.9261 33.4243L40.504 31.0542C40.2574 31.2022 40.0354 31.3878 39.846 31.6042L41.9261 33.4243ZM40.5994 35.1159L38.0832 33.9721C37.6943 34.8277 37.7667 35.8221 38.2755 36.6123C38.7843 37.4024 39.6596 37.8799 40.5994 37.8799V35.1159ZM40.7984 35.0827L42.0345 37.5549C42.1575 37.4934 42.2757 37.4228 42.3882 37.3437L40.7984 35.0827ZM45.2097 32.4293L46.4601 34.8943V34.8943L45.2097 32.4293ZM48.8913 31.5006L46.7928 33.2994C46.8388 33.3531 46.8869 33.405 46.9369 33.455L48.8913 31.5006ZM48.0621 33.7892L46.1717 31.7727C46.1611 31.7827 46.1505 31.7928 46.14 31.803L48.0621 33.7892ZM59.1733 18.6647H61.9373C61.9373 17.8384 61.5867 16.8641 60.6755 16.2262C59.9439 15.7141 59.1899 15.6685 58.8417 15.6685V18.4325V21.1965C58.7145 21.1965 58.1264 21.1896 57.5054 20.7549C57.1618 20.5144 56.859 20.1754 56.6571 19.7514C56.4618 19.3413 56.4094 18.9545 56.4094 18.6647H59.1733ZM58.8417 18.4325V15.6685C57.9329 15.6685 57.1395 16.0293 56.6694 16.2711C56.1136 16.557 55.5229 16.9408 54.9182 17.3775C53.7027 18.2554 52.1953 19.5192 50.4197 21.1262L52.2745 23.1755L54.1292 25.2248C55.8473 23.6698 57.1812 22.5621 58.1548 21.8589C58.6447 21.5052 58.9855 21.2961 59.198 21.1868C59.4963 21.0334 59.3083 21.1965 58.8417 21.1965V18.4325ZM52.2745 23.1755L50.4133 21.1321C46.8947 24.3368 43.7224 27.452 40.9 30.4776L42.9211 32.363L44.9423 34.2483C47.6478 31.348 50.7111 28.3381 54.1357 25.2189L52.2745 23.1755ZM42.9211 32.363L44.4207 34.6848C47.7219 32.5528 51.3175 29.8612 55.2036 26.6266L53.4353 24.5022L51.6671 22.3778C47.9025 25.5114 44.4886 28.0603 41.4216 30.0411L42.9211 32.363ZM53.4353 24.5022L55.2036 26.6266C57.1396 25.0151 58.657 23.6636 59.71 22.5923C60.2309 22.0624 60.6997 21.5394 61.0569 21.0438C61.2356 20.7959 61.4281 20.4979 61.5851 20.164C61.7271 19.8619 61.9373 19.3293 61.9373 18.6647H59.1733H56.4094C56.4094 18.1769 56.5599 17.8599 56.5823 17.8121C56.6198 17.7325 56.633 17.7275 56.5725 17.8113C56.4516 17.9791 56.2032 18.2742 55.7677 18.7172C54.908 19.5917 53.5564 20.8052 51.6671 22.3778L53.4353 24.5022ZM44.9112 36.6748H42.1472C42.1472 37.2446 42.2915 38.1796 43.0646 38.9526C43.8376 39.7256 44.7726 39.8699 45.3424 39.8699V37.106V34.342C45.6247 34.342 46.3441 34.4144 46.9734 35.0437C47.6027 35.673 47.6752 36.3924 47.6752 36.6748H44.9112ZM45.3424 37.106V39.8699C46.2726 39.8699 47.1808 39.5199 47.8248 39.2337L46.7023 36.7079L45.5797 34.1822C45.3544 34.2823 45.2117 34.3322 45.1381 34.3538C45.1036 34.3639 45.1018 34.3625 45.1279 34.358C45.152 34.3538 45.2275 34.342 45.3424 34.342V37.106ZM46.7023 36.7079L47.8248 39.2337C48.489 38.9385 49.1052 38.632 49.6656 38.3117L48.2943 35.9119L46.923 33.5121C46.5547 33.7225 46.1096 33.9467 45.5797 34.1822L46.7023 36.7079ZM48.2943 35.9119L49.7492 38.262C50.2147 37.9738 50.7685 37.6305 51.4103 37.2321L49.9527 34.8837L48.4951 32.5353C47.8545 32.933 47.3026 33.2751 46.8395 33.5618L48.2943 35.9119ZM49.9527 34.8837L51.4316 37.2188C51.7619 37.0096 52.0107 36.8528 52.1805 36.7466C52.2661 36.6931 52.3261 36.6559 52.3641 36.6327C52.3838 36.6207 52.3907 36.6166 52.3891 36.6176C52.3884 36.618 52.3793 36.6234 52.3648 36.6316C52.359 36.6349 52.313 36.6611 52.2502 36.6925L51.0141 34.2204L49.778 31.7482C49.6028 31.8358 49.3386 32.004 49.2507 32.0589C49.0667 32.1739 48.8069 32.3377 48.4738 32.5486L49.9527 34.8837ZM51.0141 34.2204L48.2743 34.5857L48.3407 35.0832L51.0804 34.7179L53.8201 34.3526L53.7538 33.8551L51.0141 34.2204ZM51.0804 34.7179L49.5472 32.4181C48.112 33.3749 46.9652 34.0426 46.0861 34.4612C45.1279 34.9175 44.769 34.939 44.8117 34.939V37.703V40.467C46.0484 40.467 47.3314 39.9909 48.4627 39.4522C49.6732 38.8758 51.0638 38.0509 52.6136 37.0176L51.0804 34.7179ZM44.8117 37.703V34.939C44.9503 34.939 45.5619 34.9755 46.1194 35.533C46.6768 36.0904 46.7133 36.702 46.7133 36.8406H43.9493H41.1854C41.1854 37.5541 41.3656 38.5969 42.2105 39.4418C43.0554 40.2867 44.0982 40.467 44.8117 40.467V37.703ZM43.9493 36.8406H46.7133C46.7133 37.134 46.6212 37.2962 46.6248 37.2899C46.6264 37.2871 46.6459 37.2533 46.6976 37.1892C46.749 37.1256 46.8251 37.0406 46.9339 36.9353L45.0107 34.95L43.0875 32.9648C42.2024 33.8223 41.1854 35.1325 41.1854 36.8406H43.9493ZM45.0107 34.95L46.9348 36.9343C47.6029 36.2865 48.2476 35.7225 48.8682 35.2376L47.1666 33.0595L45.465 30.8814C44.6705 31.5021 43.8779 32.1984 43.0866 32.9658L45.0107 34.95ZM47.1666 33.0595L48.8357 35.2626C49.2554 34.9446 49.6793 34.5912 50.025 34.2141C50.198 34.0253 50.4118 33.766 50.5951 33.4437C50.765 33.1451 51.0251 32.591 51.0251 31.8654H48.2612H45.4972C45.4972 31.5519 45.5555 31.2949 45.6143 31.1131C45.673 30.9317 45.7416 30.7958 45.7904 30.71C45.8402 30.6226 45.8838 30.562 45.9083 30.5298C45.9336 30.4965 45.9495 30.4793 45.95 30.4787C45.9511 30.4776 45.9427 30.4867 45.922 30.5066C45.9015 30.5261 45.8723 30.553 45.8329 30.5873C45.7528 30.6569 45.6429 30.7462 45.4976 30.8563L47.1666 33.0595ZM48.2612 31.8654H51.0251C51.0251 30.8198 50.466 29.8756 49.5744 29.3661C48.9138 28.9886 48.279 28.9688 48.029 28.9688V31.7328V34.4968C47.9337 34.4968 47.415 34.499 46.8318 34.1658C46.4983 33.9752 46.1308 33.6658 45.8592 33.2001C45.5869 32.7333 45.4972 32.2574 45.4972 31.8654H48.2612ZM48.029 31.7328V28.9688C47.4324 28.9688 46.8982 29.133 46.596 29.2355C46.2308 29.3593 45.8416 29.5237 45.4477 29.7065C44.6564 30.0736 43.6717 30.5971 42.5168 31.2538L43.883 33.6565L45.2492 36.0592C46.3497 35.4334 47.1837 34.995 47.7744 34.7209C48.0715 34.5831 48.2641 34.507 48.3716 34.4705C48.5421 34.4127 48.3713 34.4968 48.029 34.4968V31.7328ZM43.883 33.6565L42.5347 31.2437C40.3121 32.4858 38.5914 33.544 37.6564 34.3583L39.4717 36.4426L41.287 38.5269C41.7229 38.1472 42.9431 37.348 45.2313 36.0693L43.883 33.6565ZM39.4717 36.4426L37.7022 34.3192L36.5082 35.3143L38.2777 37.4376L40.0471 39.561L41.2411 38.5659L39.4717 36.4426ZM38.2777 37.4376L36.3232 35.4832C36.6196 35.1868 36.9184 35.032 37.0977 34.9552C37.2825 34.876 37.4299 34.8415 37.5034 34.8268C37.6421 34.7991 37.6994 34.8063 37.6143 34.8063V37.5703V40.3343C37.883 40.3343 38.2277 40.3194 38.5875 40.2474C38.8603 40.1929 39.6004 40.0238 40.2321 39.3921L38.2777 37.4376ZM37.6143 37.5703V34.8063C37.5316 34.8063 37.8013 34.788 38.1868 34.9326C38.3978 35.0117 38.8074 35.2 39.1826 35.6221C39.6085 36.1012 39.8476 36.7249 39.8476 37.3713H37.0836H34.3196C34.3196 38.084 34.5808 38.7658 35.051 39.2947C35.4704 39.7665 35.9463 39.9962 36.2458 40.1085C36.8082 40.3194 37.3432 40.3343 37.6143 40.3343V37.5703ZM37.0836 37.3713H39.8476C39.8476 37.9258 39.6723 38.3246 39.589 38.4913C39.4956 38.678 39.4046 38.7951 39.3746 38.8326L37.2163 37.106L35.058 35.3793C34.9396 35.5273 34.7822 35.744 34.6446 36.0191C34.517 36.2743 34.3196 36.7504 34.3196 37.3713H37.0836ZM37.2163 37.106L39.2811 38.9433C41.5594 36.383 44.1174 33.6938 46.9576 30.8755L45.0107 28.9135L43.0638 26.9516C40.1549 29.8381 37.5166 32.6106 35.1514 35.2686L37.2163 37.106ZM45.0107 28.9135L46.9576 30.8755C49.777 28.0777 52.5182 25.5968 55.1809 23.428L53.4353 21.2849L51.6898 19.1419C48.8687 21.4397 45.9935 24.0444 43.0638 26.9516L45.0107 28.9135ZM53.4353 21.2849L55.1828 23.4264C56.5171 22.3376 57.5621 21.5844 58.34 21.1177C58.7281 20.8848 59.0003 20.7533 59.1712 20.6863C59.367 20.6095 59.3072 20.6658 59.0738 20.6658V17.9018V15.1378C57.7538 15.1378 56.4624 15.7976 55.4959 16.3775C54.3943 17.0385 53.1175 17.9769 51.6879 19.1434L53.4353 21.2849ZM59.0738 17.9018V20.6658C59.071 20.6658 58.9905 20.6663 58.8584 20.6388C58.7291 20.6119 58.4852 20.5446 58.206 20.37C57.9081 20.1839 57.6002 19.8928 57.3813 19.4824C57.1662 19.0791 57.1059 18.69 57.1059 18.3993H59.8699H62.6339C62.6339 17.3495 62.1334 16.3059 61.1358 15.6823C60.3547 15.1942 59.5376 15.1378 59.0738 15.1378V17.9018ZM59.8699 18.3993H57.1059C57.1059 17.9108 57.2763 17.6521 57.2256 17.7463C57.1993 17.7954 57.1066 17.9459 56.8893 18.2127C56.4569 18.7436 55.7342 19.4891 54.6587 20.4688L56.5199 22.5121L58.3812 24.5555C59.5389 23.5009 60.4912 22.5438 61.1754 21.7038C61.5165 21.285 61.8425 20.833 62.0954 20.3625C62.3239 19.9371 62.6339 19.2416 62.6339 18.3993H59.8699ZM56.5199 22.5121L54.6597 20.4679C52.5287 22.4071 50.1167 24.3701 47.4188 26.3558L49.0572 28.5818L50.6956 30.8079C53.5256 28.725 56.0888 26.6415 58.3802 24.5564L56.5199 22.5121ZM49.0572 28.5818L47.4188 26.3558C44.695 28.3605 42.3938 29.9204 40.504 31.0542L41.9261 33.4243L43.3482 35.7944C45.4385 34.5402 47.8914 32.8718 50.6956 30.8079L49.0572 28.5818ZM41.9261 33.4243L39.846 31.6042C39.4442 32.0635 39.1038 32.4673 38.8391 32.8048C38.636 33.0638 38.2942 33.5078 38.0832 33.9721L40.5994 35.1159L43.1156 36.2596C43.0435 36.4183 42.9851 36.4934 43.0249 36.4352C43.0489 36.4002 43.0998 36.3298 43.1888 36.2163C43.3664 35.99 43.6341 35.6697 44.0062 35.2444L41.9261 33.4243ZM40.5994 35.1159V37.8799C40.829 37.8799 41.4127 37.8658 42.0345 37.5549L40.7984 35.0827L39.5623 32.6105C39.8573 32.4631 40.1132 32.4059 40.2611 32.3812C40.4164 32.3553 40.5359 32.3519 40.5994 32.3519V35.1159ZM40.7984 35.0827L42.3882 37.3437C43.6964 36.4239 45.0535 35.6077 46.4601 34.8943L45.2097 32.4293L43.9594 29.9643C42.3145 30.7987 40.7307 31.7515 39.2086 32.8217L40.7984 35.0827ZM45.2097 32.4293L46.4601 34.8943C47.1909 34.5236 47.7324 34.2736 48.107 34.1229C48.2948 34.0473 48.4029 34.0121 48.4475 33.9994C48.5304 33.9758 48.3764 34.0324 48.0953 34.0324V31.2684V28.5044C47.2921 28.5044 46.4872 28.816 46.0438 28.9944C45.4565 29.2307 44.7543 29.5611 43.9594 29.9643L45.2097 32.4293ZM48.0953 31.2684V34.0324C48.1369 34.0324 48.0214 34.039 47.8189 33.9799C47.6146 33.9203 47.1795 33.7506 46.7928 33.2994L48.8913 31.5006L50.9899 29.7018C50.0069 28.5549 48.6094 28.5044 48.0953 28.5044V31.2684ZM48.8913 31.5006L46.9369 33.455C46.7038 33.2219 46.3595 32.7202 46.3595 31.9981H49.1235H51.8875C51.8875 30.9223 51.3885 30.0889 50.8458 29.5462L48.8913 31.5006ZM49.1235 31.9981H46.3595C46.3595 31.6374 46.4803 31.4348 46.4803 31.4348C46.4822 31.4317 46.4646 31.4616 46.4123 31.5237C46.3605 31.5853 46.2829 31.6685 46.1717 31.7727L48.0621 33.7892L49.9525 35.8056C50.7952 35.0157 51.8875 33.7244 51.8875 31.9981H49.1235ZM48.0621 33.7892L46.14 31.803C45.5312 32.3921 44.9224 32.9129 44.3142 33.3691L45.9726 35.5802L47.631 37.7914C48.438 37.1862 49.2221 36.513 49.9843 35.7754L48.0621 33.7892ZM45.9726 35.5802L44.3142 33.3691C43.9159 33.6678 43.5175 33.9924 43.1923 34.3277C43.0317 34.4933 42.822 34.7295 42.6363 35.0254C42.4815 35.272 42.1472 35.8632 42.1472 36.6748H44.9112H47.6752C47.6752 37.054 47.5925 37.3546 47.5219 37.5465C47.4505 37.7405 47.3701 37.8816 47.3188 37.9635C47.2216 38.1184 47.1445 38.1929 47.1608 38.176C47.1894 38.1465 47.3217 38.0234 47.631 37.7914L45.9726 35.5802Z" fill="white" mask="url(#path-2-outside-1_54_103)"/>
<mask id="path-4-outside-2_54_103" maskUnits="userSpaceOnUse" x="22.3328" y="39.3484" width="46" height="13" fill="black">
<rect fill="white" x="22.3328" y="39.3484" width="46" height="13"/>
<path d="M27.2996 47.6519C27.2996 48.2268 27.7087 48.5142 28.5268 48.5142C29.3671 48.5142 30.4395 48.2489 31.7441 47.7182C33.0487 47.1654 34.2538 46.491 35.3594 45.695L35.4257 46.1925C34.2759 47.0327 32.9823 47.7293 31.5451 48.2821C30.1299 48.8348 28.9248 49.1112 27.9298 49.1112C26.6031 49.1112 25.9397 48.6248 25.9397 47.6519C25.9397 46.5905 26.7689 45.4186 28.4273 44.1361C30.0857 42.8315 31.6888 42.1792 33.2366 42.1792C33.9884 42.1792 34.3643 42.4556 34.3643 43.0084C34.3643 43.3843 34.2206 43.7381 33.9332 44.0697C33.6678 44.4014 33.3251 44.5673 32.9049 44.5673C32.4848 44.5673 32.2748 44.4567 32.2748 44.2356C32.2748 44.0145 32.3964 43.8155 32.6396 43.6386C32.8828 43.4617 33.1482 43.3732 33.4356 43.3732C33.7452 43.3511 33.9 43.2406 33.9 43.0415C33.9 42.931 33.8336 42.8315 33.701 42.743C33.5683 42.6325 33.4025 42.5772 33.2035 42.5772C32.1421 42.5772 30.8928 43.2184 29.4555 44.5009C28.0182 45.7613 27.2996 46.8116 27.2996 47.6519ZM36.1523 48.6137C37.7443 48.6137 39.2922 47.8177 40.7958 46.2257V46.1925C40.7958 45.1311 41.3043 44.1361 42.3215 43.2074C42.2552 42.9642 42.0672 42.8425 41.7576 42.8425C40.1214 42.8425 38.673 43.4617 37.4127 44.6999C36.1523 45.9161 35.5221 46.9885 35.5221 47.9172C35.5221 48.3816 35.7322 48.6137 36.1523 48.6137ZM41.2933 42.345C42.4652 42.345 43.0512 42.732 43.0512 43.5059C43.0512 44.1692 42.6421 44.9653 41.824 45.894V46.1593C41.824 46.889 42.1446 47.2539 42.7858 47.2539C43.1838 47.2539 43.6261 47.088 44.1125 46.7563L45.7378 45.695L45.8041 46.1925L44.2784 47.1543C43.5708 47.6187 42.8743 47.8509 42.1888 47.8509C41.5255 47.8509 41.0832 47.5081 40.8621 46.8227C39.0932 48.3926 37.4127 49.1776 35.8206 49.1776C34.8698 49.1776 34.3944 48.7243 34.3944 47.8177C34.3944 46.6679 35.0688 45.4738 36.4176 44.2356C37.7664 42.9752 39.3917 42.345 41.2933 42.345ZM48.9045 44.1361C47.8431 44.8879 46.7265 45.6286 45.5546 46.3583L45.4551 45.894L48.606 43.7049C49.6895 42.931 50.5187 42.544 51.0936 42.544C51.6685 42.544 51.9559 42.7873 51.9559 43.2737C51.9559 44.0034 51.4474 44.8768 50.4302 45.894L50.9941 45.5623C54.0234 43.5943 55.914 42.6104 56.6658 42.6104C57.4176 42.6104 57.7935 42.8094 57.7935 43.2074C57.7935 43.6496 57.4397 44.3461 56.7321 45.297C59.2529 43.5501 61.2761 42.6767 62.8018 42.6767C63.3988 42.6767 63.6973 42.931 63.6973 43.4396C63.6973 43.9481 63.4762 44.4788 63.034 45.0316C62.5917 45.5623 62.1053 46.0266 61.5746 46.4247C60.1594 47.4418 59.4519 48.083 59.4519 48.3484C59.4519 48.5032 59.5735 48.5806 59.8167 48.5806C60.0821 48.5806 60.5132 48.4479 61.1103 48.1825C61.7073 47.9172 62.238 47.6519 62.7023 47.3865C63.1667 47.0991 63.7195 46.7563 64.3607 46.3583C65.024 45.9382 65.3778 45.7171 65.4221 45.695L65.4884 46.1925C62.5033 48.1825 60.4137 49.1776 59.2197 49.1776C58.6448 49.1776 58.3573 48.9012 58.3573 48.3484C58.3573 47.9725 58.5895 47.5303 59.0539 47.0217C59.5403 46.491 60.0599 46.0045 60.6127 45.5623C62.1385 44.4125 62.9013 43.6496 62.9013 43.2737C62.9013 43.1632 62.7797 43.1079 62.5365 43.1079C61.7183 43.1079 60.5022 43.5501 58.888 44.4346C57.2738 45.3191 55.4828 46.7563 53.5148 48.7464C53.3822 48.8791 53.0947 48.9454 52.6525 48.9454C52.2323 48.9454 52.0223 48.8459 52.0223 48.6469C52.0223 48.5585 52.4092 48.1494 53.1832 47.4197C55.5491 45.1864 56.7321 43.8265 56.7321 43.3401C56.7321 43.2074 56.6547 43.141 56.4999 43.141C55.9914 43.141 54.8747 43.7049 53.15 44.8326C51.4474 45.9382 49.7005 47.2317 47.9095 48.7132C47.6441 48.868 47.4341 48.9454 47.2793 48.9454C46.5938 48.9454 46.2511 48.868 46.2511 48.7132C46.2511 48.6248 46.5496 48.3152 47.1466 47.7845C47.7658 47.2539 48.5839 46.4578 49.601 45.3965C50.6403 44.313 51.1599 43.5612 51.1599 43.141C51.1599 43.0526 51.1046 43.0084 50.9941 43.0084C50.5961 43.0084 49.8995 43.3843 48.9045 44.1361Z"/>
</mask>
<path d="M27.2996 47.6519C27.2996 48.2268 27.7087 48.5142 28.5268 48.5142C29.3671 48.5142 30.4395 48.2489 31.7441 47.7182C33.0487 47.1654 34.2538 46.491 35.3594 45.695L35.4257 46.1925C34.2759 47.0327 32.9823 47.7293 31.5451 48.2821C30.1299 48.8348 28.9248 49.1112 27.9298 49.1112C26.6031 49.1112 25.9397 48.6248 25.9397 47.6519C25.9397 46.5905 26.7689 45.4186 28.4273 44.1361C30.0857 42.8315 31.6888 42.1792 33.2366 42.1792C33.9884 42.1792 34.3643 42.4556 34.3643 43.0084C34.3643 43.3843 34.2206 43.7381 33.9332 44.0697C33.6678 44.4014 33.3251 44.5673 32.9049 44.5673C32.4848 44.5673 32.2748 44.4567 32.2748 44.2356C32.2748 44.0145 32.3964 43.8155 32.6396 43.6386C32.8828 43.4617 33.1482 43.3732 33.4356 43.3732C33.7452 43.3511 33.9 43.2406 33.9 43.0415C33.9 42.931 33.8336 42.8315 33.701 42.743C33.5683 42.6325 33.4025 42.5772 33.2035 42.5772C32.1421 42.5772 30.8928 43.2184 29.4555 44.5009C28.0182 45.7613 27.2996 46.8116 27.2996 47.6519ZM36.1523 48.6137C37.7443 48.6137 39.2922 47.8177 40.7958 46.2257V46.1925C40.7958 45.1311 41.3043 44.1361 42.3215 43.2074C42.2552 42.9642 42.0672 42.8425 41.7576 42.8425C40.1214 42.8425 38.673 43.4617 37.4127 44.6999C36.1523 45.9161 35.5221 46.9885 35.5221 47.9172C35.5221 48.3816 35.7322 48.6137 36.1523 48.6137ZM41.2933 42.345C42.4652 42.345 43.0512 42.732 43.0512 43.5059C43.0512 44.1692 42.6421 44.9653 41.824 45.894V46.1593C41.824 46.889 42.1446 47.2539 42.7858 47.2539C43.1838 47.2539 43.6261 47.088 44.1125 46.7563L45.7378 45.695L45.8041 46.1925L44.2784 47.1543C43.5708 47.6187 42.8743 47.8509 42.1888 47.8509C41.5255 47.8509 41.0832 47.5081 40.8621 46.8227C39.0932 48.3926 37.4127 49.1776 35.8206 49.1776C34.8698 49.1776 34.3944 48.7243 34.3944 47.8177C34.3944 46.6679 35.0688 45.4738 36.4176 44.2356C37.7664 42.9752 39.3917 42.345 41.2933 42.345ZM48.9045 44.1361C47.8431 44.8879 46.7265 45.6286 45.5546 46.3583L45.4551 45.894L48.606 43.7049C49.6895 42.931 50.5187 42.544 51.0936 42.544C51.6685 42.544 51.9559 42.7873 51.9559 43.2737C51.9559 44.0034 51.4474 44.8768 50.4302 45.894L50.9941 45.5623C54.0234 43.5943 55.914 42.6104 56.6658 42.6104C57.4176 42.6104 57.7935 42.8094 57.7935 43.2074C57.7935 43.6496 57.4397 44.3461 56.7321 45.297C59.2529 43.5501 61.2761 42.6767 62.8018 42.6767C63.3988 42.6767 63.6973 42.931 63.6973 43.4396C63.6973 43.9481 63.4762 44.4788 63.034 45.0316C62.5917 45.5623 62.1053 46.0266 61.5746 46.4247C60.1594 47.4418 59.4519 48.083 59.4519 48.3484C59.4519 48.5032 59.5735 48.5806 59.8167 48.5806C60.0821 48.5806 60.5132 48.4479 61.1103 48.1825C61.7073 47.9172 62.238 47.6519 62.7023 47.3865C63.1667 47.0991 63.7195 46.7563 64.3607 46.3583C65.024 45.9382 65.3778 45.7171 65.4221 45.695L65.4884 46.1925C62.5033 48.1825 60.4137 49.1776 59.2197 49.1776C58.6448 49.1776 58.3573 48.9012 58.3573 48.3484C58.3573 47.9725 58.5895 47.5303 59.0539 47.0217C59.5403 46.491 60.0599 46.0045 60.6127 45.5623C62.1385 44.4125 62.9013 43.6496 62.9013 43.2737C62.9013 43.1632 62.7797 43.1079 62.5365 43.1079C61.7183 43.1079 60.5022 43.5501 58.888 44.4346C57.2738 45.3191 55.4828 46.7563 53.5148 48.7464C53.3822 48.8791 53.0947 48.9454 52.6525 48.9454C52.2323 48.9454 52.0223 48.8459 52.0223 48.6469C52.0223 48.5585 52.4092 48.1494 53.1832 47.4197C55.5491 45.1864 56.7321 43.8265 56.7321 43.3401C56.7321 43.2074 56.6547 43.141 56.4999 43.141C55.9914 43.141 54.8747 43.7049 53.15 44.8326C51.4474 45.9382 49.7005 47.2317 47.9095 48.7132C47.6441 48.868 47.4341 48.9454 47.2793 48.9454C46.5938 48.9454 46.2511 48.868 46.2511 48.7132C46.2511 48.6248 46.5496 48.3152 47.1466 47.7845C47.7658 47.2539 48.5839 46.4578 49.601 45.3965C50.6403 44.313 51.1599 43.5612 51.1599 43.141C51.1599 43.0526 51.1046 43.0084 50.9941 43.0084C50.5961 43.0084 49.8995 43.3843 48.9045 44.1361Z" fill="white"/>
<path d="M31.7441 47.7182L32.7855 50.2785C32.7979 50.2734 32.8102 50.2683 32.8224 50.2631L31.7441 47.7182ZM35.3594 45.695L38.0991 45.3297C37.9707 44.3666 37.346 43.5416 36.4538 43.1569C35.5616 42.7722 34.5329 42.8842 33.7444 43.4519L35.3594 45.695ZM35.4257 46.1925L37.0565 48.4241C37.8738 47.8268 38.2992 46.8306 38.1654 45.8272L35.4257 46.1925ZM31.5451 48.2821L30.5529 45.7023C30.5484 45.704 30.5439 45.7058 30.5394 45.7075L31.5451 48.2821ZM28.4273 44.1361L30.1182 46.3225C30.1242 46.3179 30.1302 46.3132 30.1362 46.3084L28.4273 44.1361ZM33.9332 44.0697L31.8444 42.2595C31.8207 42.2869 31.7975 42.3148 31.7748 42.3431L33.9332 44.0697ZM32.6396 43.6386L34.2653 45.8739L34.2653 45.8739L32.6396 43.6386ZM33.4356 43.3732V46.1372C33.5013 46.1372 33.567 46.1349 33.6326 46.1302L33.4356 43.3732ZM33.701 42.743L31.9315 44.8664C32.0071 44.9294 32.086 44.9882 32.1678 45.0428L33.701 42.743ZM29.4555 44.5009L31.2779 46.5791C31.2838 46.5738 31.2898 46.5685 31.2957 46.5632L29.4555 44.5009ZM27.2996 47.6519H24.5356C24.5356 48.6839 24.9575 49.8154 26.0173 50.5601C26.8989 51.1796 27.8786 51.2782 28.5268 51.2782V48.5142V45.7502C28.3569 45.7502 28.723 45.7051 29.1955 46.0372C29.4646 46.2262 29.7102 46.5001 29.8736 46.8446C30.0303 47.175 30.0636 47.4684 30.0636 47.6519H27.2996ZM28.5268 48.5142V51.2782C29.8861 51.2782 31.3436 50.865 32.7855 50.2785L31.7441 47.7182L30.7026 45.1579C29.5354 45.6327 28.848 45.7502 28.5268 45.7502V48.5142ZM31.7441 47.7182L32.8224 50.2631C34.309 49.6332 35.6951 48.8591 36.9744 47.938L35.3594 45.695L33.7444 43.4519C32.8124 44.1229 31.7883 44.6976 30.6657 45.1733L31.7441 47.7182ZM35.3594 45.695L32.6196 46.0603L32.686 46.5578L35.4257 46.1925L38.1654 45.8272L38.0991 45.3297L35.3594 45.695ZM35.4257 46.1925L33.7949 43.9609C32.8569 44.6463 31.7812 45.2299 30.5529 45.7023L31.5451 48.2821L32.5373 50.8618C34.1835 50.2287 35.6948 49.4192 37.0565 48.4241L35.4257 46.1925ZM31.5451 48.2821L30.5394 45.7075C29.2934 46.1943 28.4489 46.3473 27.9298 46.3473V49.1112V51.8752C29.4008 51.8752 30.9665 51.4754 32.5507 50.8566L31.5451 48.2821ZM27.9298 49.1112V46.3473C27.7581 46.3473 27.6971 46.3306 27.7154 46.3351C27.7359 46.3401 27.8824 46.3786 28.0718 46.5175C28.2775 46.6684 28.4619 46.886 28.5803 47.1466C28.6917 47.3917 28.7037 47.5832 28.7037 47.6519H25.9397H23.1757C23.1757 48.8363 23.6257 50.1122 24.8027 50.9753C25.8198 51.7212 27.0102 51.8752 27.9298 51.8752V49.1112ZM25.9397 47.6519H28.7037C28.7037 47.8633 28.6193 47.854 28.8179 47.5733C29.0198 47.2881 29.4155 46.8659 30.1182 46.3225L28.4273 44.1361L26.7364 41.9496C25.001 43.2917 23.1757 45.189 23.1757 47.6519H25.9397ZM28.4273 44.1361L30.1362 46.3084C31.4828 45.2491 32.5 44.9432 33.2366 44.9432V42.1792V39.4152C30.8776 39.4152 28.6886 40.4138 26.7184 41.9637L28.4273 44.1361ZM33.2366 42.1792V44.9432C33.3552 44.9432 32.943 44.9794 32.445 44.6133C32.1675 44.4092 31.93 44.1256 31.7765 43.7868C31.6299 43.4636 31.6003 43.1811 31.6003 43.0084H34.3643H37.1283C37.1283 42.0368 36.7523 40.9189 35.7198 40.1597C34.8459 39.5171 33.8699 39.4152 33.2366 39.4152V42.1792ZM34.3643 43.0084H31.6003C31.6003 42.8339 31.6356 42.6635 31.6958 42.5153C31.7536 42.373 31.8188 42.2891 31.8444 42.2595L33.9332 44.0697L36.0219 45.88C36.6677 45.1348 37.1283 44.1583 37.1283 43.0084H34.3643ZM33.9332 44.0697L31.7748 42.3431C31.8696 42.2247 32.0327 42.0712 32.2732 41.9549C32.5146 41.8381 32.7417 41.8033 32.9049 41.8033V44.5673V47.3312C34.1755 47.3312 35.3083 46.7753 36.0915 45.7964L33.9332 44.0697ZM32.9049 44.5673V41.8033C32.9135 41.8033 32.9879 41.8033 33.1069 41.8241C33.2192 41.8438 33.4473 41.8951 33.7196 42.0384C34.0055 42.1889 34.3677 42.4573 34.6492 42.9018C34.9375 43.357 35.0387 43.8354 35.0387 44.2356H32.2748H29.5108C29.5108 44.7464 29.6383 45.3215 29.9791 45.8596C30.3132 46.3871 30.754 46.7245 31.145 46.9302C31.8452 47.2988 32.5425 47.3312 32.9049 47.3312V44.5673ZM32.2748 44.2356H35.0387C35.0387 44.6619 34.9137 45.0521 34.7244 45.3618C34.5493 45.6483 34.3564 45.8077 34.2653 45.8739L32.6396 43.6386L31.0139 41.4032C30.3344 41.8974 29.5108 42.8342 29.5108 44.2356H32.2748ZM32.6396 43.6386L34.2653 45.8739C34.1749 45.9396 34.0508 46.0098 33.8951 46.0617C33.7381 46.114 33.5806 46.1372 33.4356 46.1372V43.3732V40.6092C32.5359 40.6092 31.7063 40.8997 31.0139 41.4032L32.6396 43.6386ZM33.4356 43.3732L33.6326 46.1302C34.0066 46.1035 34.714 46.006 35.3904 45.5229C36.2329 44.9211 36.664 43.985 36.664 43.0415H33.9H31.136C31.136 42.7267 31.1993 42.337 31.3988 41.9381C31.6005 41.5347 31.8863 41.2325 32.1774 41.0246C32.699 40.652 33.1742 40.6209 33.2387 40.6163L33.4356 43.3732ZM33.9 43.0415H36.664C36.664 41.6401 35.77 40.8005 35.2342 40.4433L33.701 42.743L32.1678 45.0428C31.8973 44.8625 31.136 44.2219 31.136 43.0415H33.9ZM33.701 42.743L35.4704 40.6197C34.7666 40.0332 33.9451 39.8132 33.2035 39.8132V42.5772V45.3412C32.8598 45.3412 32.37 45.2318 31.9315 44.8664L33.701 42.743ZM33.2035 42.5772V39.8132C31.0931 39.8132 29.1895 41.0339 27.6153 42.4386L29.4555 44.5009L31.2957 46.5632C31.8992 46.0248 32.3777 45.6993 32.7326 45.5171C33.0879 45.3347 33.2302 45.3412 33.2035 45.3412V42.5772ZM29.4555 44.5009L27.6331 42.4228C26.8183 43.1374 26.0952 43.8873 25.5574 44.6732C25.0353 45.4363 24.5356 46.4559 24.5356 47.6519H27.2996H30.0636C30.0636 48.0076 29.9232 48.0819 30.1197 47.7947C30.3006 47.5303 30.6555 47.1248 31.2779 46.5791L29.4555 44.5009ZM40.7958 46.2257L42.8052 48.1235C43.2898 47.6104 43.5597 46.9314 43.5597 46.2257H40.7958ZM42.3215 43.2074L44.1852 45.2485C44.9509 44.5494 45.2609 43.4805 44.9881 42.4801L42.3215 43.2074ZM37.4127 44.6999L39.3319 46.6889C39.3379 46.6832 39.3438 46.6774 39.3497 46.6716L37.4127 44.6999ZM41.824 45.894L39.75 44.0669C39.3053 44.5717 39.06 45.2213 39.06 45.894H41.824ZM44.1125 46.7563L42.6012 44.4421C42.5859 44.4522 42.5706 44.4623 42.5555 44.4727L44.1125 46.7563ZM45.7378 45.695L48.4775 45.3297C48.352 44.3888 47.7525 43.578 46.8896 43.1824C46.0268 42.7868 45.0212 42.8617 44.2265 43.3808L45.7378 45.695ZM45.8041 46.1925L47.2781 48.5306C48.1922 47.9543 48.6866 46.8983 48.5438 45.8272L45.8041 46.1925ZM44.2784 47.1543L42.8044 44.8162C42.7901 44.8252 42.776 44.8343 42.7619 44.8435L44.2784 47.1543ZM40.8621 46.8227L43.4926 45.9741C43.206 45.0857 42.4904 44.402 41.5899 44.1562C40.6893 43.9104 39.7256 44.1358 39.0274 44.7554L40.8621 46.8227ZM36.4176 44.2356L38.2868 46.2717C38.2928 46.2662 38.2988 46.2607 38.3047 46.2551L36.4176 44.2356ZM36.1523 48.6137V51.3777C38.756 51.3777 40.9816 50.0544 42.8052 48.1235L40.7958 46.2257L38.7863 44.3278C37.6028 45.581 36.7326 45.8498 36.1523 45.8498V48.6137ZM40.7958 46.2257H43.5597V46.1925H40.7958H38.0318V46.2257H40.7958ZM40.7958 46.1925H43.5597C43.5597 46.1227 43.5609 45.8186 44.1852 45.2485L42.3215 43.2074L40.4578 41.1662C39.0478 42.4536 38.0318 44.1395 38.0318 46.1925H40.7958ZM42.3215 43.2074L44.9881 42.4801C44.8001 41.791 44.3704 41.0908 43.6323 40.6132C42.9504 40.172 42.2485 40.0786 41.7576 40.0786V42.8425V45.6065C41.5764 45.6065 41.1232 45.5739 40.6292 45.2543C40.0791 44.8983 39.7765 44.3805 39.6549 43.9346L42.3215 43.2074ZM41.7576 42.8425V40.0786C39.3355 40.0786 37.2074 41.0269 35.4756 42.7283L37.4127 44.6999L39.3497 46.6716C40.1387 45.8965 40.9072 45.6065 41.7576 45.6065V42.8425ZM37.4127 44.6999L35.4934 42.7109C34.1227 44.0336 32.7581 45.7998 32.7581 47.9172H35.5221H38.2861C38.2861 48.0849 38.2302 48.0677 38.3777 47.8167C38.5257 47.5649 38.815 47.1877 39.3319 46.6889L37.4127 44.6999ZM35.5221 47.9172H32.7581C32.7581 48.5109 32.8864 49.4721 33.63 50.294C34.4212 51.1684 35.4408 51.3777 36.1523 51.3777V48.6137V45.8498C36.4436 45.8498 37.1481 45.943 37.7292 46.5852C38.2628 47.1749 38.2861 47.7879 38.2861 47.9172H35.5221ZM41.2933 42.345V45.109C41.4428 45.109 41.4919 45.1221 41.4682 45.1169C41.4458 45.112 41.2922 45.0762 41.0886 44.9417C40.8664 44.795 40.6348 44.5624 40.4738 44.2435C40.3184 43.9355 40.2872 43.6633 40.2872 43.5059H43.0512H45.8152C45.8152 42.3025 45.2916 41.0927 44.1348 40.3288C43.179 39.6976 42.0958 39.581 41.2933 39.581V42.345ZM43.0512 43.5059H40.2872C40.2872 43.272 40.3566 43.1997 40.286 43.3371C40.217 43.4713 40.0611 43.7137 39.75 44.0669L41.824 45.894L43.8979 47.7211C44.8211 46.6731 45.8152 45.2213 45.8152 43.5059H43.0512ZM41.824 45.894H39.06V46.1593H41.824H44.588V45.894H41.824ZM41.824 46.1593H39.06C39.06 46.8687 39.2081 47.917 39.9882 48.8048C40.8283 49.7607 41.9397 50.0178 42.7858 50.0178V47.2539V44.4899C42.9907 44.4899 43.6212 44.5646 44.1406 45.1557C44.3691 45.4157 44.4829 45.6778 44.5366 45.8612C44.5877 46.0357 44.588 46.1483 44.588 46.1593H41.824ZM42.7858 47.2539V50.0178C43.9467 50.0178 44.9322 49.5428 45.6696 49.04L44.1125 46.7563L42.5555 44.4727C42.4522 44.5431 42.4163 44.5525 42.4455 44.5415C42.4781 44.5292 42.5979 44.4899 42.7858 44.4899V47.2539ZM44.1125 46.7563L45.6239 49.0705L47.2491 48.0092L45.7378 45.695L44.2265 43.3808L42.6012 44.4421L44.1125 46.7563ZM45.7378 45.695L42.998 46.0603L43.0644 46.5578L45.8041 46.1925L48.5438 45.8272L48.4775 45.3297L45.7378 45.695ZM45.8041 46.1925L44.3301 43.8544L42.8044 44.8162L44.2784 47.1543L45.7524 49.4925L47.2781 48.5306L45.8041 46.1925ZM44.2784 47.1543L42.7619 44.8435C42.3987 45.0819 42.2211 45.0869 42.1888 45.0869V47.8509V50.6149C43.5275 50.6149 44.7429 50.1555 45.7949 49.4652L44.2784 47.1543ZM42.1888 47.8509V45.0869C42.3522 45.0869 42.7037 45.1386 43.0528 45.4091C43.3823 45.6645 43.4812 45.9386 43.4926 45.9741L40.8621 46.8227L38.2316 47.6712C38.4642 48.3922 38.8947 49.1804 39.6665 49.7785C40.4578 50.3917 41.3621 50.6149 42.1888 50.6149V47.8509ZM40.8621 46.8227L39.0274 44.7554C37.5248 46.089 36.4732 46.4136 35.8206 46.4136V49.1776V51.9416C38.3521 51.9416 40.6615 50.6962 42.6968 48.8899L40.8621 46.8227ZM35.8206 49.1776V46.4136C35.7392 46.4136 36.1914 46.392 36.6583 46.8372C37.1498 47.3059 37.1584 47.8105 37.1584 47.8177H34.3944H31.6304C31.6304 48.7315 31.8766 49.916 32.8436 50.838C33.7859 51.7365 34.9512 51.9416 35.8206 51.9416V49.1776ZM34.3944 47.8177H37.1584C37.1584 47.7983 37.1781 47.2895 38.2868 46.2717L36.4176 44.2356L34.5484 42.1995C32.9595 43.6582 31.6304 45.5374 31.6304 47.8177H34.3944ZM36.4176 44.2356L38.3047 46.2551C39.1248 45.4888 40.069 45.109 41.2933 45.109V42.345V39.581C38.7144 39.581 36.4081 40.4616 34.5305 42.2161L36.4176 44.2356ZM48.9045 44.1361L50.5021 46.3916C50.5253 46.3752 50.5481 46.3585 50.5707 46.3414L48.9045 44.1361ZM45.5546 46.3583L42.8519 46.9375C43.0406 47.8177 43.646 48.5509 44.4747 48.9026C45.3033 49.2543 46.2513 49.1805 47.0155 48.7047L45.5546 46.3583ZM45.4551 45.894L43.8781 43.624C42.9627 44.2599 42.5189 45.3833 42.7524 46.4731L45.4551 45.894ZM48.606 43.7049L50.183 45.9748C50.1929 45.968 50.2027 45.961 50.2125 45.954L48.606 43.7049ZM50.4302 45.894L48.4758 43.9395C47.492 44.9234 47.3928 46.4851 48.2443 47.5855C49.0957 48.6858 50.6324 48.9818 51.8316 48.2763L50.4302 45.894ZM50.9941 45.5623L52.3955 47.9447C52.4307 47.9239 52.4655 47.9024 52.4998 47.8801L50.9941 45.5623ZM56.7321 45.297L54.5147 43.6468C53.7065 44.733 53.8039 46.2447 54.745 47.2181C55.686 48.1915 57.1936 48.3399 58.3064 47.5688L56.7321 45.297ZM63.034 45.0316L65.1573 46.8011C65.1691 46.7869 65.1808 46.7726 65.1923 46.7583L63.034 45.0316ZM61.5746 46.4247L63.1878 48.6691C63.2029 48.6581 63.218 48.6471 63.233 48.6358L61.5746 46.4247ZM61.1103 48.1826L62.2328 50.7083V50.7083L61.1103 48.1826ZM62.7023 47.3865L64.0736 49.7863C64.1018 49.7703 64.1296 49.7537 64.1571 49.7366L62.7023 47.3865ZM64.3607 46.3583L65.8183 48.7067C65.8254 48.7023 65.8325 48.6979 65.8396 48.6934L64.3607 46.3583ZM65.4221 45.695L68.1618 45.3297C68.0438 44.4445 67.5053 43.6709 66.7163 43.2527C65.9272 42.8346 64.9847 42.8234 64.186 43.2228L65.4221 45.695ZM65.4884 46.1925L67.0216 48.4923C67.8995 47.907 68.3676 46.873 68.2281 45.8272L65.4884 46.1925ZM59.0539 47.0217L57.0164 45.154L57.0127 45.158L59.0539 47.0217ZM60.6127 45.5623L58.9492 43.355C58.9279 43.371 58.9069 43.3873 58.8861 43.404L60.6127 45.5623ZM58.888 44.4346L57.5598 42.0106V42.0106L58.888 44.4346ZM53.5148 48.7464L55.4693 50.7008C55.4729 50.6972 55.4765 50.6935 55.4802 50.6899L53.5148 48.7464ZM53.1832 47.4197L55.0793 49.4307L55.0804 49.4297L53.1832 47.4197ZM53.15 44.8326L54.6553 47.1507L54.6626 47.146L53.15 44.8326ZM47.9095 48.7132L49.3022 51.1007C49.432 51.025 49.5554 50.9388 49.6712 50.843L47.9095 48.7132ZM47.1466 47.7845L45.3478 45.686C45.3352 45.6968 45.3227 45.7077 45.3103 45.7187L47.1466 47.7845ZM49.601 45.3965L47.6063 43.4832L47.6055 43.484L49.601 45.3965ZM48.9045 44.1361L47.3069 41.8806C46.2928 42.5989 45.2219 43.3095 44.0936 44.012L45.5546 46.3583L47.0155 48.7047C48.2311 47.9478 49.3935 47.1769 50.5021 46.3916L48.9045 44.1361ZM45.5546 46.3583L48.2572 45.7792L48.1577 45.3148L45.4551 45.894L42.7524 46.4731L42.8519 46.9375L45.5546 46.3583ZM45.4551 45.894L47.0321 48.1639L50.183 45.9748L48.606 43.7049L47.029 41.435L43.8781 43.624L45.4551 45.894ZM48.606 43.7049L50.2125 45.954C50.6727 45.6254 51.0001 45.4366 51.2094 45.3389C51.3104 45.2918 51.3547 45.2797 51.3491 45.2812C51.3458 45.2821 51.2537 45.308 51.0936 45.308V42.544V39.78C50.2331 39.78 49.4595 40.0553 48.8717 40.3296C48.2517 40.6189 47.6228 41.0105 46.9995 41.4558L48.606 43.7049ZM51.0936 42.544V45.308C51.0573 45.308 50.5147 45.31 49.955 44.8364C49.3068 44.288 49.192 43.5887 49.192 43.2737H51.9559H54.7199C54.7199 42.4722 54.4613 41.4081 53.5257 40.6165C52.6786 39.8996 51.7048 39.78 51.0936 39.78V42.544ZM51.9559 43.2737H49.192C49.192 42.9971 49.2847 42.9156 49.186 43.0852C49.0902 43.2497 48.8807 43.5346 48.4758 43.9395L50.4302 45.894L52.3847 47.8484C53.4801 46.753 54.7199 45.1846 54.7199 43.2737H51.9559ZM50.4302 45.894L51.8316 48.2763L52.3955 47.9447L50.9941 45.5623L49.5927 43.1799L49.0288 43.5116L50.4302 45.894ZM50.9941 45.5623L52.4998 47.8801C53.9835 46.9163 55.1288 46.2328 55.9601 45.8001C56.3772 45.583 56.6684 45.4538 56.853 45.3851C57.096 45.2946 56.981 45.3743 56.6658 45.3743V42.6104V39.8464C55.9747 39.8464 55.3414 40.0492 54.9238 40.2046C54.4478 40.3819 53.936 40.6217 53.4079 40.8966C52.3486 41.4479 51.034 42.2404 49.4883 43.2445L50.9941 45.5623ZM56.6658 42.6104V45.3743C56.888 45.3743 56.6275 45.419 56.2183 45.2024C55.9727 45.0724 55.643 44.8302 55.384 44.4189C55.1189 43.9977 55.0295 43.5603 55.0295 43.2074H57.7935H60.5575C60.5575 42.6555 60.4211 42.0439 60.062 41.4735C59.709 40.9129 59.2383 40.5464 58.8048 40.3168C58.0197 39.9012 57.1954 39.8464 56.6658 39.8464V42.6104ZM57.7935 43.2074H55.0295C55.0295 42.9622 55.0761 42.8039 55.0876 42.7667C55.1012 42.7231 55.1021 42.7343 55.0638 42.8097C54.9841 42.9667 54.8177 43.2398 54.5147 43.6468L56.7321 45.297L58.9495 46.9471C59.3541 46.4033 59.7184 45.8527 59.9924 45.3132C60.237 44.8316 60.5575 44.0796 60.5575 43.2074H57.7935ZM56.7321 45.297L58.3064 47.5688C60.7513 45.8745 62.1742 45.4407 62.8018 45.4407V42.6767V39.9127C60.378 39.9127 57.7545 41.2257 55.1578 43.0251L56.7321 45.297ZM62.8018 42.6767V45.4407C62.7729 45.4407 62.2357 45.4439 61.6811 44.9715C61.0416 44.4267 60.9334 43.7376 60.9334 43.4396H63.6973H66.4613C66.4613 42.633 66.2038 41.5624 65.2658 40.7634C64.4127 40.0366 63.4277 39.9127 62.8018 39.9127V42.6767ZM63.6973 43.4396H60.9334C60.9334 43.365 60.9416 43.3007 60.9524 43.2499C60.9631 43.1999 60.9751 43.1681 60.9801 43.1559C60.9888 43.1352 60.9711 43.1856 60.8757 43.305L63.034 45.0316L65.1923 46.7583C65.8751 45.9047 66.4613 44.7815 66.4613 43.4396H63.6973ZM63.034 45.0316L60.9106 43.2622C60.6 43.6349 60.2683 43.9494 59.9162 44.2135L61.5746 46.4247L63.233 48.6358C63.9422 48.1039 64.5835 47.4897 65.1573 46.8011L63.034 45.0316ZM61.5746 46.4247L59.9614 44.1803C59.226 44.7088 58.5961 45.1948 58.1265 45.6204C57.8981 45.8274 57.6342 46.0855 57.4056 46.3783C57.2907 46.5256 57.1384 46.74 57.0053 47.0105C56.8831 47.2587 56.6879 47.7314 56.6879 48.3484H59.4519H62.2158C62.2158 48.8991 62.0428 49.2937 61.9648 49.4521C61.8759 49.6327 61.7899 49.7456 61.7634 49.7795C61.7118 49.8456 61.7132 49.8302 61.8386 49.7165C62.0766 49.5008 62.508 49.1576 63.1878 48.6691L61.5746 46.4247ZM59.4519 48.3484H56.6879C56.6879 49.2873 57.1331 50.2651 58.0592 50.8544C58.7733 51.3088 59.4909 51.3445 59.8167 51.3445V48.5806V45.8166C59.8993 45.8166 60.4345 45.8136 61.027 46.1907C61.3624 46.4041 61.6921 46.7265 61.9231 47.1675C62.1496 47.6 62.2158 48.0211 62.2158 48.3484H59.4519ZM59.8167 48.5806V51.3445C60.7342 51.3445 61.6545 50.9653 62.2328 50.7083L61.1103 48.1826L59.9877 45.6568C59.8723 45.7081 59.7755 45.7482 59.6958 45.7791C59.6154 45.8102 59.5598 45.829 59.5263 45.8393C59.4908 45.8502 59.4943 45.8472 59.5296 45.8405C59.5485 45.8369 59.5816 45.8313 59.6269 45.8264C59.6718 45.8215 59.7362 45.8166 59.8167 45.8166V48.5806ZM61.1103 48.1826L62.2328 50.7083C62.897 50.4131 63.5132 50.1066 64.0736 49.7863L62.7023 47.3865L61.331 44.9867C60.9627 45.1972 60.5176 45.4213 59.9877 45.6568L61.1103 48.1826ZM62.7023 47.3865L64.1571 49.7366C64.6227 49.4484 65.1765 49.1051 65.8183 48.7067L64.3607 46.3583L62.9031 44.0099C62.2624 44.4076 61.7106 44.7497 61.2475 45.0364L62.7023 47.3865ZM64.3607 46.3583L65.8396 48.6934C66.1699 48.4842 66.4186 48.3274 66.5885 48.2212C66.6741 48.1677 66.7341 48.1306 66.7721 48.1073C66.7918 48.0953 66.7987 48.0912 66.7971 48.0922C66.7964 48.0926 66.7873 48.098 66.7728 48.1062C66.767 48.1095 66.721 48.1357 66.6582 48.1671L65.4221 45.695L64.186 43.2228C64.0108 43.3104 63.7466 43.4786 63.6586 43.5335C63.4747 43.6485 63.2149 43.8123 62.8818 44.0233L64.3607 46.3583ZM65.4221 45.695L62.6823 46.0603L62.7487 46.5578L65.4884 46.1925L68.2281 45.8272L68.1618 45.3297L65.4221 45.695ZM65.4884 46.1925L63.9552 43.8927C62.52 44.8496 61.3732 45.5172 60.4941 45.9358C59.5359 46.3921 59.177 46.4136 59.2197 46.4136V49.1776V51.9416C60.4564 51.9416 61.7393 51.4655 62.8707 50.9268C64.0812 50.3504 65.4717 49.5255 67.0216 48.4923L65.4884 46.1925ZM59.2197 49.1776V46.4136C59.3318 46.4136 59.9282 46.439 60.4887 46.9779C61.0693 47.5363 61.1213 48.1705 61.1213 48.3484H58.3573H55.5933C55.5933 49.079 55.7891 50.1279 56.6572 50.9627C57.5051 51.778 58.5327 51.9416 59.2197 51.9416V49.1776ZM58.3573 48.3484H61.1213C61.1213 48.7307 61.005 48.9695 60.9787 49.0196C60.9521 49.0702 60.9669 49.0257 61.095 48.8853L59.0539 47.0217L57.0127 45.158C56.4293 45.797 55.5933 46.9009 55.5933 48.3484H58.3573ZM59.0539 47.0217L61.0913 48.8894C61.4834 48.4616 61.8994 48.0726 62.3394 47.7206L60.6127 45.5623L58.8861 43.404C58.2205 43.9365 57.5972 44.5204 57.0164 45.154L59.0539 47.0217ZM60.6127 45.5623L62.2762 47.7696C63.0765 47.1665 63.7675 46.5983 64.2836 46.0822C64.538 45.8278 64.8191 45.518 65.0546 45.1665C65.238 44.8927 65.6653 44.2061 65.6653 43.2737H62.9013H60.1373C60.1373 42.8645 60.2379 42.5584 60.3024 42.3986C60.3694 42.2323 60.4373 42.1267 60.4619 42.0899C60.5067 42.0231 60.5017 42.0464 60.3747 42.1734C60.128 42.4201 59.6747 42.8082 58.9492 43.355L60.6127 45.5623ZM62.9013 43.2737H65.6653C65.6653 42.705 65.497 42.0979 65.1074 41.5666C64.7404 41.0662 64.29 40.7859 63.9538 40.6331C63.3493 40.3583 62.781 40.3439 62.5365 40.3439V43.1079V45.8719C62.5352 45.8719 62.1493 45.8851 61.6664 45.6656C61.391 45.5404 60.9862 45.2946 60.6496 44.8357C60.2905 44.3459 60.1373 43.7871 60.1373 43.2737H62.9013ZM62.5365 43.1079V40.3439C60.9528 40.3439 59.1915 41.1166 57.5598 42.0106L58.888 44.4346L60.2162 46.8585C60.9469 46.4581 61.5216 46.1949 61.9553 46.0371C62.4158 45.8697 62.5813 45.8719 62.5365 45.8719V43.1079ZM58.888 44.4346L57.5598 42.0106C55.623 43.0719 53.6185 44.7107 51.5495 46.8029L53.5148 48.7464L55.4802 50.6899C57.3471 48.802 58.9247 47.5662 60.2162 46.8585L58.888 44.4346ZM53.5148 48.7464L51.5604 46.792C51.7975 46.5549 52.0351 46.4151 52.2031 46.3356C52.3707 46.2562 52.5055 46.2192 52.5782 46.2025C52.7123 46.1715 52.7572 46.1814 52.6525 46.1814V48.9454V51.7094C52.99 51.7094 53.3997 51.6861 53.8212 51.5889C54.2054 51.5002 54.8832 51.2869 55.4693 50.7008L53.5148 48.7464ZM52.6525 48.9454V46.1814C52.6538 46.1814 52.6673 46.1814 52.6914 46.1831C52.7151 46.1847 52.7549 46.1882 52.8078 46.1966C52.9 46.2111 53.1072 46.2517 53.3631 46.3729C53.6262 46.4975 54.0083 46.741 54.3221 47.1868C54.6533 47.6576 54.7863 48.1813 54.7863 48.6469H52.0223H49.2583C49.2583 49.212 49.4175 49.8228 49.8013 50.3682C50.1675 50.8886 50.6284 51.1943 50.9966 51.3687C51.6602 51.683 52.312 51.7094 52.6525 51.7094V48.9454ZM52.0223 48.6469H54.7863C54.7863 48.8902 54.7538 49.0929 54.7212 49.2391C54.6881 49.3875 54.6476 49.5098 54.6137 49.6001C54.5479 49.7748 54.4779 49.9044 54.4378 49.9743C54.3587 50.1122 54.2895 50.2008 54.2766 50.2174C54.2438 50.2596 54.2454 50.2525 54.3204 50.1732C54.4589 50.0268 54.7034 49.7851 55.0793 49.4307L53.1832 47.4197L51.287 45.4086C50.889 45.784 50.5531 46.1116 50.3046 46.3744C50.1861 46.4995 50.0426 46.657 49.9131 46.8235C49.8518 46.9023 49.7464 47.0431 49.643 47.2232C49.6145 47.2729 49.2583 47.8451 49.2583 48.6469H52.0223ZM53.1832 47.4197L55.0804 49.4297C56.286 48.2917 57.25 47.3208 57.9302 46.5389C58.2659 46.153 58.5858 45.7527 58.8376 45.3598C58.9638 45.1628 59.1067 44.9156 59.2254 44.6329C59.3322 44.3782 59.4961 43.9174 59.4961 43.3401H56.7321H53.9681C53.9681 42.8843 54.095 42.5724 54.128 42.494C54.1726 42.3875 54.2047 42.3437 54.183 42.3775C54.139 42.4462 54.0154 42.6166 53.7595 42.9107C53.2568 43.4887 52.4463 44.3144 51.2859 45.4097L53.1832 47.4197ZM56.7321 43.3401H59.4961C59.4961 42.7268 59.2973 41.7989 58.4728 41.0922C57.7299 40.4554 56.908 40.3771 56.4999 40.3771V43.141V45.905C56.2466 45.905 55.5408 45.8598 54.8753 45.2894C54.1282 44.649 53.9681 43.8206 53.9681 43.3401H56.7321ZM56.4999 43.141V40.3771C55.9235 40.3771 55.4207 40.5237 55.0985 40.6355C54.7398 40.7599 54.3797 40.9227 54.0352 41.0967C53.3457 41.4448 52.5384 41.9301 51.6374 42.5192L53.15 44.8326L54.6626 47.146C55.4862 46.6074 56.0997 46.2469 56.5269 46.0312C56.7407 45.9232 56.8629 45.8746 56.9104 45.8581C56.9946 45.8289 56.8221 45.905 56.4999 45.905V43.141ZM53.15 44.8326L51.6447 42.5145C49.8414 43.6854 48.0092 45.0438 46.1478 46.5834L47.9095 48.7132L49.6712 50.843C51.3919 49.4197 53.0533 48.191 54.6553 47.1507L53.15 44.8326ZM47.9095 48.7132L46.5168 46.3258C46.4761 46.3495 46.5069 46.3271 46.5974 46.2938C46.6737 46.2657 46.92 46.1814 47.2793 46.1814V48.9454V51.7094C48.2068 51.7094 48.9553 51.3031 49.3022 51.1007L47.9095 48.7132ZM47.2793 48.9454V46.1814C46.9868 46.1814 46.9796 46.1602 47.1169 46.1913C47.1662 46.2024 47.4909 46.2727 47.8655 46.5265C48.2992 46.8203 49.0151 47.5396 49.0151 48.7132H46.2511H43.4871C43.4871 49.9643 44.2458 50.7513 44.7652 51.1032C45.2255 51.415 45.6787 51.5336 45.8993 51.5835C46.3795 51.6919 46.8863 51.7094 47.2793 51.7094V48.9454ZM46.2511 48.7132H49.0151C49.0151 49.0805 48.9408 49.3694 48.886 49.5399C48.8285 49.7188 48.7631 49.8567 48.7181 49.9434C48.631 50.1112 48.5479 50.2243 48.5182 50.2638C48.4554 50.3476 48.4211 50.3784 48.4646 50.3333C48.5395 50.2556 48.7008 50.1011 48.9829 49.8504L47.1466 47.7845L45.3103 45.7187C44.9954 45.9986 44.7089 46.2643 44.4853 46.4961C44.3796 46.6058 44.2334 46.7638 44.0959 46.9471C44.0289 47.0363 43.9179 47.1922 43.8121 47.396C43.7417 47.5315 43.4871 48.0274 43.4871 48.7132H46.2511ZM47.1466 47.7845L48.9454 49.8831C49.6669 49.2647 50.5579 48.3927 51.5966 47.3089L49.601 45.3965L47.6055 43.484C46.6098 44.523 45.8647 45.243 45.3478 45.686L47.1466 47.7845ZM49.601 45.3965L51.5957 47.3098C52.1615 46.72 52.6644 46.1406 53.0439 45.5915C53.3248 45.1852 53.9239 44.2737 53.9239 43.141H51.1599H48.3959C48.3959 42.9131 48.4305 42.735 48.4594 42.623C48.4886 42.5097 48.5203 42.4328 48.5357 42.398C48.5634 42.3356 48.5659 42.348 48.4965 42.4484C48.3564 42.6512 48.0799 42.9895 47.6063 43.4832L49.601 45.3965ZM51.1599 43.141H53.9239C53.9239 42.4868 53.6889 41.5583 52.8451 40.8832C52.1191 40.3024 51.3447 40.2444 50.9941 40.2444V43.0084V45.7724C50.754 45.7724 50.0625 45.7364 49.3918 45.1999C48.6033 44.569 48.3959 43.7068 48.3959 43.141H51.1599ZM50.9941 43.0084V40.2444C50.0725 40.2444 49.2875 40.6275 48.8605 40.8579C48.3396 41.1391 47.7919 41.5125 47.2383 41.9308L48.9045 44.1361L50.5707 46.3414C51.0122 46.0078 51.3103 45.8174 51.4859 45.7227C51.5717 45.6764 51.5848 45.6767 51.5374 45.693C51.5044 45.7043 51.3047 45.7724 50.9941 45.7724V43.0084Z" fill="white" mask="url(#path-4-outside-2_54_103)"/>
<path d="M36.1787 6.23145C50.9683 6.23145 64.3959 9.54175 74.1533 14.9316C83.8838 20.3067 90.126 27.856 90.126 36.376C90.1259 44.8958 83.8838 52.4453 74.1533 57.8203C64.3959 63.2101 50.9682 66.5195 36.1787 66.5195C21.3891 66.5195 7.9615 63.2102 -1.7959 57.8203C-11.5263 52.4453 -17.7685 44.8958 -17.7686 36.376C-17.7686 27.8561 -11.5263 20.3067 -1.7959 14.9316C7.9615 9.54171 21.3891 6.23149 36.1787 6.23145Z" stroke="white" stroke-width="1.53688"/>
</g>
</g>
<rect x="59" width="72" height="72" rx="36" fill="#E4E5E7"/>
<path d="M89.5115 67.7563C89.5115 68.4432 92.0175 69.0001 95.1087 69.0001C98.2 69.0001 100.706 68.4432 100.706 67.7563C100.706 67.0693 98.2 66.5125 95.1087 66.5125C92.0175 66.5125 89.5115 67.0693 89.5115 67.7563Z" fill="white"/>
<path d="M65.7738 47.2274C67.4348 47.2274 69.7604 49.5342 70.9682 52.3797C72.1761 55.2252 71.8087 57.5319 70.1478 57.5319C68.4869 57.5319 66.1612 55.2252 64.9534 52.3797C63.7455 49.5342 64.1129 47.2274 65.7738 47.2274Z" fill="white"/>
<path d="M119.704 57.454C121.365 57.454 123.73 55.1647 124.988 52.3407C126.245 49.5167 125.918 47.2274 124.257 47.2274C122.596 47.2274 120.23 49.5167 118.973 52.3407C117.716 55.1647 118.043 57.454 119.704 57.454Z" fill="white"/>
<path d="M114.997 60.3802C116.619 60.3802 115.856 61.7816 113.293 63.5102C110.73 65.2388 107.338 66.6401 105.716 66.6401C104.094 66.6401 104.857 65.2388 107.419 63.5102C109.982 61.7816 113.374 60.3802 114.997 60.3802Z" fill="white"/>
<path d="M84.3156 66.6401C85.9377 66.6401 85.1751 65.2388 82.6123 63.5102C80.0496 61.7816 76.6571 60.3802 75.0351 60.3802C73.413 60.3802 74.1756 61.7816 76.7384 63.5102C79.3011 65.2388 82.6936 66.6401 84.3156 66.6401Z" fill="white"/>
<path d="M125.994 29.6125C127.711 29.6125 129.103 32.1184 129.103 35.2097C129.103 38.3009 127.711 40.8069 125.994 40.8069C124.277 40.8069 122.884 38.3009 122.884 35.2097C122.884 32.1184 124.277 29.6125 125.994 29.6125Z" fill="white"/>
<path d="M63.8029 29.6125C65.5203 29.6125 66.9125 32.1184 66.9125 35.2097C66.9125 38.3009 65.5203 40.8069 63.8029 40.8069C62.0856 40.8069 60.6934 38.3009 60.6934 35.2097C60.6934 32.1184 62.0856 29.6125 63.8029 29.6125Z" fill="white"/>
<path d="M89.3012 4.11418C89.3012 3.42724 91.8072 2.87036 94.8984 2.87036C97.9897 2.87036 100.496 3.42724 100.496 4.11418C100.496 4.80112 97.9897 5.358 94.8984 5.358C91.8072 5.358 89.3012 4.80113 89.3012 4.11418Z" fill="white"/>
<path d="M119.41 14.3386C121.071 14.3386 123.594 16.5512 125.045 19.2806C126.497 22.01 126.327 24.2226 124.666 24.2226C123.005 24.2226 120.482 22.01 119.03 19.2806C117.579 16.5512 117.749 14.3386 119.41 14.3386Z" fill="white"/>
<path d="M65.5112 24.2226C67.1722 24.2226 69.6951 22.01 71.1464 19.2806C72.5976 16.5512 72.4276 14.3386 70.7667 14.3386C69.1057 14.3386 66.5828 16.5512 65.1316 19.2806C63.6803 22.01 63.8503 24.2226 65.5112 24.2226Z" fill="white"/>
<path d="M114.786 11.4902C116.408 11.4902 115.646 10.0889 113.083 8.36032C110.52 6.63172 107.128 5.23041 105.506 5.23041C103.884 5.23041 104.646 6.63172 107.209 8.36032C109.772 10.0889 113.164 11.4902 114.786 11.4902Z" fill="white"/>
<path d="M84.1053 5.23038C85.7274 5.23038 84.9648 6.63169 82.402 8.36029C79.8393 10.0889 76.4468 11.4902 74.8248 11.4902C73.2027 11.4902 73.9653 10.0889 76.5281 8.36029C79.0908 6.63169 82.4833 5.23038 84.1053 5.23038Z" fill="white"/>
<defs>
<filter id="filter0_d_54_103" x="-23.1329" y="5.46313" width="118.624" height="71.0172" filterUnits="userSpaceOnUse" color-interpolation-filters="sRGB">
<feFlood flood-opacity="0" result="BackgroundImageFix"/>
<feColorMatrix in="SourceAlpha" type="matrix" values="0 0 0 0 0 0 0 0 0 0 0 0 0 0 0 0 0 0 127 0" result="hardAlpha"/>
<feOffset dy="4.596"/>
<feGaussianBlur stdDeviation="2.298"/>
<feComposite in2="hardAlpha" operator="out"/>
<feColorMatrix type="matrix" values="0 0 0 0 0 0 0 0 0 0 0 0 0 0 0 0 0 0 0.05 0"/>
<feBlend mode="normal" in2="BackgroundImageFix" result="effect1_dropShadow_54_103"/>
<feBlend mode="normal" in="SourceGraphic" in2="effect1_dropShadow_54_103" result="shape"/>
</filter>
<clipPath id="clip0_54_103">
<rect width="72" height="72" rx="36" fill="white"/>
</clipPath>
</defs>
</svg>
