<svg width="90" height="63" viewBox="0 0 90 63" fill="none" xmlns="http://www.w3.org/2000/svg">
<path d="M75.8196 13.1167C75.8196 12.9512 75.7014 12.8684 75.465 12.8684C74.5193 12.8684 72.1786 14.5589 68.443 17.9399C64.731 21.3209 61.3973 24.5955 58.4419 27.7636C61.8465 25.5648 65.594 22.7631 69.6842 19.3585C73.7745 15.9539 75.8196 13.8733 75.8196 13.1167ZM60.5698 32.3741C60.5698 32.6814 60.7235 32.8351 61.0308 32.8351C61.3618 32.8351 61.8465 32.6932 62.4849 32.4095C63.1233 32.1258 63.6907 31.8421 64.1872 31.5584C64.6837 31.251 65.2748 30.8845 65.9604 30.459C66.6697 30.0097 67.048 29.7733 67.0953 29.7497L67.1662 30.2816C63.9744 32.4095 61.7401 33.4735 60.4634 33.4735C59.8487 33.4735 59.5413 33.1661 59.5413 32.5514C59.5413 31.9367 59.9196 31.2628 60.6762 30.5299C61.4564 29.7733 62.2248 29.0995 62.9814 28.5084C63.7616 27.9173 64.1517 27.4917 64.1517 27.2317C64.1517 27.1371 64.069 27.0898 63.9035 27.0898C63.3597 27.0898 61.882 27.7755 59.4704 29.1468C57.0588 30.4944 55.4865 31.4874 54.7536 32.1258L53.4768 33.1897C53.3823 33.2843 53.1458 33.3316 52.7676 33.3316C52.3893 33.3316 52.2001 33.2607 52.2001 33.1188C52.2001 33.0479 52.2474 32.9533 52.342 32.8351C54.8245 30.0452 57.6026 27.1253 60.6762 24.0753C63.7498 21.0253 66.7525 18.3064 69.6842 15.9184C72.6396 13.5068 74.6493 12.301 75.7133 12.301C76.2807 12.301 76.5644 12.4783 76.5644 12.833C76.5644 13.5896 75.3704 15.0554 72.9825 17.2306C70.6181 19.3821 67.9583 21.5455 65.0029 23.7207C62.0475 25.8958 59.5059 27.6218 57.378 28.8985C56.5505 29.8442 56.0776 30.4471 55.9594 30.7072C56.054 30.7072 56.1249 30.6954 56.1722 30.6717C57.6853 29.6078 59.2576 28.6621 60.889 27.8346C62.5204 27.0071 63.5488 26.5933 63.9744 26.5933C64.4 26.5933 64.6837 26.6761 64.8256 26.8416C64.9911 27.0071 65.0738 27.1844 65.0738 27.3735C65.0738 27.941 64.6955 28.5793 63.939 29.2886C63.206 29.9979 62.4613 30.6363 61.7047 31.2037C60.9481 31.7712 60.5698 32.1613 60.5698 32.3741Z" fill="white"/>
<path d="M52.2018 25.4584C52.2964 25.3166 52.4027 25.2456 52.521 25.2456C52.6628 25.2456 52.7337 25.3166 52.7337 25.4584C52.7337 25.6003 52.6628 25.7421 52.521 25.884C52.3791 26.0259 52.2727 26.4633 52.2018 27.1962C52.1545 27.9055 51.9772 28.7803 51.6698 29.8206C51.3624 30.8372 50.8305 31.7593 50.0739 32.5868C50.0739 32.6341 50.1212 32.6578 50.2158 32.6578C50.3813 32.6578 50.9842 32.3741 52.0245 31.8066L52.521 31.5584C53.4194 31.0619 54.377 30.459 55.3936 29.7497L55.4645 30.2816C51.7762 32.6696 48.9508 33.8636 46.9885 33.8636C46.2082 33.8636 45.6408 33.6981 45.2862 33.3671C44.9079 33.0361 44.7187 32.6696 44.7187 32.2677C44.7187 31.8657 44.8133 31.5465 45.0024 31.3101C45.1916 31.05 45.428 30.92 45.7117 30.92C46.0664 30.92 46.2437 31.1091 46.2437 31.4874C46.2437 31.7239 46.0546 31.9367 45.6763 32.1258C45.558 32.1967 45.4989 32.3149 45.4989 32.4804C45.4989 32.646 45.6408 32.8351 45.9245 33.0479C46.1846 33.2843 46.4683 33.4025 46.7757 33.4025C47.816 33.4025 48.7026 32.7523 49.4355 31.452C50.1921 30.128 50.6768 28.8158 50.8896 27.5154V27.409C48.5962 28.9694 47.0476 29.9861 46.2437 30.459L46.1373 29.9625C49.9911 27.4799 52.0126 25.9786 52.2018 25.4584Z" fill="white"/>
<path d="M45.2762 26.6288C45.2762 26.4396 45.087 26.345 44.7087 26.345C44.3305 26.345 43.562 26.7115 42.4035 27.4445C41.245 28.1537 40.2638 28.9221 39.46 29.7497C41.0441 29.4896 42.4035 29.0167 43.5384 28.3311C44.6969 27.6218 45.2762 27.0543 45.2762 26.6288ZM38.3251 31.6293C38.3251 32.3149 38.798 32.6578 39.7437 32.6578C41.5406 32.6578 43.7748 31.6884 46.4465 29.7497L46.5174 30.2816C43.7276 32.244 41.3396 33.2252 39.3536 33.2252C37.935 33.2252 37.2257 32.6341 37.2257 31.452C37.2257 30.2698 38.1005 29.0404 39.8501 27.7636C41.6233 26.4869 43.4438 25.8485 45.3116 25.8485C45.9027 25.8485 46.1983 26.0259 46.1983 26.3805C46.1983 26.9479 45.5363 27.6336 44.2122 28.4375C42.9119 29.2177 41.1977 29.7969 39.0698 30.1752C38.5733 30.7427 38.3251 31.2274 38.3251 31.6293Z" fill="white"/>
<path d="M34.1272 26.8061C34.4109 26.8061 34.6356 26.9007 34.8011 27.0898C34.9666 27.279 35.0493 27.5036 35.0493 27.7636C35.0493 28.2838 34.6237 28.8985 33.7726 29.6078C32.9451 30.3171 32.1057 30.9909 31.2546 31.6293C30.4271 32.244 30.0133 32.7169 30.0133 33.0479C30.0133 33.237 30.167 33.3316 30.4744 33.3316C31.491 33.3316 33.0396 32.7405 35.1202 31.5584C36.0187 31.0619 36.9762 30.459 37.9929 29.7497L38.0638 30.2816C37.2599 30.8018 36.3615 31.3338 35.3685 31.8775C34.8011 32.2322 33.9735 32.6341 32.886 33.0834C31.7984 33.5562 30.8999 33.7926 30.1906 33.7926C29.4813 33.7926 29.1267 33.4735 29.1267 32.8351C29.1267 32.1967 29.5523 31.4874 30.4034 30.7072C31.2782 29.927 32.1412 29.2413 32.9923 28.6503C33.8671 28.0592 34.3045 27.6927 34.3045 27.5508C34.3045 27.3853 34.1036 27.3026 33.7016 27.3026C32.6141 27.3026 30.959 27.9882 28.7366 29.3596C27.6726 29.9979 25.923 31.4401 23.4878 33.6862L14.8344 41.985C13.0139 43.7582 12.0209 44.7276 11.8554 44.8931C11.6662 45.0823 11.3707 45.1768 10.9687 45.1768C10.5432 45.1768 10.3304 45.0941 10.3304 44.9286C10.3304 44.5976 16.8913 38.3321 30.0133 26.1323L27.1407 28.0828C26.0058 28.8867 24.8118 29.6787 23.5587 30.459L23.4523 29.9625C27.85 26.9361 30.9472 24.7846 32.7441 23.5079C35.6049 20.8598 37.2127 19.5358 37.5673 19.5358C37.7564 19.5358 37.851 19.6422 37.851 19.855C37.851 20.186 36.657 21.2618 34.2691 23.0823L27.3535 29.7851C30.2379 27.7991 32.4958 26.8061 34.1272 26.8061Z" fill="white"/>
<path d="M75.7137 9.34563C76.2096 9.34567 77.0829 9.40596 77.9178 9.92766C78.9845 10.5944 79.5193 11.7104 79.5194 12.8329C79.5194 13.7336 79.1885 14.4777 78.9442 14.9325C78.6739 15.4355 78.3253 15.9186 77.9608 16.3661C77.2292 17.2643 76.2104 18.2883 74.9725 19.4159C72.7312 21.4555 70.244 23.4917 67.5203 25.5292C67.7572 25.9286 67.9368 26.3999 68.0018 26.9365C68.1651 26.9891 68.325 27.0568 68.4793 27.1386C69.2703 27.5579 69.8257 28.311 69.9959 29.1835L70.0252 29.3593L70.0955 29.8906C70.2446 31.0088 69.7442 32.1154 68.8055 32.7411C67.1484 33.8458 65.6612 34.7274 64.367 35.3437C63.1574 35.9197 61.7859 36.4286 60.4637 36.4286C59.7009 36.4286 58.5858 36.2361 57.6824 35.3329C57.3207 34.9712 57.0732 34.575 56.9061 34.1816C56.822 34.2457 56.7519 34.3041 56.6942 34.3544C56.6781 34.3684 56.6617 34.3827 56.6453 34.3964L55.369 35.4599C54.7435 35.9877 54.0723 36.1415 53.8084 36.1943C53.4237 36.2712 53.0547 36.287 52.7674 36.287C52.4776 36.287 51.9057 36.2712 51.3045 36.0458C50.9844 35.9258 50.4755 35.6799 50.0272 35.1757C49.5988 34.6938 49.3338 34.0927 49.2645 33.454C50.5102 33.0601 51.9632 32.3816 53.6229 31.415C53.1879 31.8924 52.7602 32.3651 52.342 32.8351C52.2474 32.9533 52.2001 33.0479 52.2001 33.1188C52.2003 33.2428 52.3451 33.3125 52.6346 33.3281L52.7676 33.3316C53.1458 33.3316 53.3823 33.2843 53.4768 33.1897L54.7536 32.1258C55.4865 31.4874 57.0588 30.4944 59.4704 29.1468C61.882 27.7755 63.3597 27.0898 63.9035 27.0898C64.069 27.0898 64.1517 27.1371 64.1517 27.2317C64.1517 27.4917 63.7616 27.9173 62.9814 28.5084C62.2248 29.0995 61.4564 29.7733 60.6762 30.5299C59.9196 31.2628 59.5413 31.9367 59.5413 32.5514C59.5413 33.1661 59.8487 33.4735 60.4634 33.4735C61.7401 33.4735 63.9744 32.4095 67.1662 30.2816L67.0953 29.7497C67.048 29.7733 66.6697 30.0097 65.9604 30.459C65.2748 30.8845 64.6837 31.251 64.1872 31.5584C63.6907 31.8421 63.1233 32.1258 62.4849 32.4095C61.8465 32.6932 61.3618 32.8351 61.0308 32.8351C60.7235 32.8351 60.5698 32.6814 60.5698 32.3741C60.5698 32.1613 60.9481 31.7712 61.7047 31.2037C62.4613 30.6363 63.206 29.9979 63.939 29.2886C64.6955 28.5793 65.0738 27.941 65.0738 27.3735C65.0738 27.1844 64.9911 27.0071 64.8256 26.8416C64.6837 26.6761 64.4 26.5933 63.9744 26.5933C63.5488 26.5933 62.5204 27.0071 60.889 27.8346C59.2576 28.6621 57.6853 29.6078 56.1722 30.6717C56.1249 30.6954 56.054 30.7072 55.9594 30.7072C56.0776 30.4471 56.5505 29.8442 57.378 28.8985C59.5059 27.6218 62.0475 25.8958 65.0029 23.7207C67.9583 21.5455 70.6181 19.3821 72.9825 17.2306C75.3704 15.0554 76.5644 13.5896 76.5644 12.833C76.5644 12.4783 76.2807 12.301 75.7133 12.301C74.6493 12.301 72.6396 13.5068 69.6842 15.9184C66.7525 18.3064 63.7498 21.0253 60.6762 24.0753C58.5623 26.1729 56.589 28.2099 54.7547 30.1845C53.9732 30.708 53.2291 31.167 52.521 31.5584L52.0245 31.8066C50.9842 32.3741 50.3813 32.6578 50.2158 32.6578C50.1212 32.6578 50.0739 32.6341 50.0739 32.5868C50.8305 31.7593 51.3624 30.8372 51.6698 29.8206C51.7651 29.4981 51.8465 29.191 51.9168 28.9003C53.97 26.6655 56.196 24.3575 58.5946 21.9775L59.7664 20.8271C62.4947 18.1779 65.1788 15.7767 67.8182 13.6269C69.3459 12.3804 70.7102 11.3772 71.8875 10.6708C72.921 10.0508 74.3023 9.34563 75.7137 9.34563ZM51.5574 30.9443C51.5044 30.989 51.4509 31.0377 51.3973 31.0907C51.4487 31.0398 51.5024 30.9913 51.5574 30.9443ZM75.465 12.8684C75.7014 12.8684 75.8196 12.9512 75.8196 13.1167C75.8189 13.8736 73.7736 15.9546 69.6842 19.3585C65.594 22.7631 61.8465 25.5648 58.4419 27.7636C61.3973 24.5955 64.731 21.3209 68.443 17.9399C72.1786 14.5589 74.5193 12.8684 75.465 12.8684Z" fill="white"/>
<path d="M58.4149 30.1034C58.479 31.1615 57.97 32.1806 57.0711 32.7626C55.1387 34.0138 53.3524 35.0045 51.7293 35.6904C50.1355 36.3639 48.5236 36.8193 46.9881 36.8193C45.9138 36.8192 44.4812 36.6099 43.3397 35.5888V35.5907C42.5991 34.9426 41.9467 34.0017 41.7957 32.7978C42.8058 32.4686 43.8933 31.9484 45.0594 31.2382C45.0401 31.2611 45.0208 31.2848 45.0024 31.3101C44.8133 31.5465 44.7187 31.8657 44.7187 32.2677C44.7187 32.6696 44.9079 33.0361 45.2862 33.3671C45.6408 33.6981 46.2082 33.8636 46.9885 33.8636C48.6105 33.8636 50.8215 33.0465 53.6229 31.415C53.1879 31.8924 52.7602 32.3651 52.342 32.8351C52.2474 32.9533 52.2001 33.0479 52.2001 33.1188C52.2001 33.2607 52.3893 33.3316 52.7676 33.3316C53.1458 33.3316 53.3823 33.2843 53.4768 33.1897L54.7536 32.1258C55.3366 31.6181 56.4506 30.8861 58.0955 29.9296L58.3944 29.8906L58.4149 30.1034ZM50.8896 27.5154C50.6768 28.8158 50.1921 30.128 49.4355 31.452C48.7026 32.7523 47.816 33.4025 46.7757 33.4025C46.4683 33.4025 46.1846 33.2843 45.9245 33.0479C45.6408 32.8351 45.4989 32.646 45.4989 32.4804C45.4989 32.3149 45.558 32.1967 45.6763 32.1258C46.0546 31.9367 46.2437 31.7239 46.2437 31.4874C46.2437 31.1091 46.0664 30.92 45.7117 30.92C45.6527 30.92 45.5958 30.9262 45.5408 30.9374C45.8187 30.7591 46.1001 30.5693 46.3865 30.37C47.2246 29.8657 48.7268 28.8805 50.8896 27.409V27.5154ZM52.5213 22.29C53.0479 22.29 53.9853 22.424 54.7703 23.2089C55.5555 23.9941 55.6893 24.9324 55.6893 25.4589C55.6892 25.969 55.5777 26.4153 55.4149 26.7958C55.8115 26.7986 56.2093 26.88 56.5838 27.0448C56.8472 27.1607 57.0877 27.3132 57.3016 27.4941C56.4242 28.4029 55.576 29.3004 54.7547 30.1845C53.9732 30.708 53.2291 31.167 52.521 31.5584L52.0245 31.8066C50.9842 32.3741 50.3813 32.6578 50.2158 32.6578C50.1212 32.6578 50.0739 32.6341 50.0739 32.5868C50.8305 31.7593 51.3624 30.8372 51.6698 29.8206C51.9772 28.7803 52.1545 27.9055 52.2018 27.1962C52.2727 26.4633 52.3791 26.0259 52.521 25.884C52.6628 25.7421 52.7337 25.6003 52.7337 25.4584C52.7337 25.3166 52.6628 25.2456 52.521 25.2456C52.4027 25.2456 52.2964 25.3166 52.2018 25.4584C52.017 25.9647 50.0981 27.3982 46.4471 29.7607L46.4465 29.7497C46.3793 29.7984 46.3106 29.845 46.244 29.8925C46.2084 29.9155 46.1732 29.9393 46.1373 29.9625L46.1385 29.9677C44.5146 31.1152 43.0569 31.8947 41.7645 32.3075L41.7635 32.2675L41.7733 31.9394C41.8201 31.1905 42.0389 30.3387 42.6151 29.5693C42.7604 29.3698 42.9251 29.1799 43.1092 29.0058C43.5048 28.8296 43.8729 28.641 44.2122 28.4375C45.5282 27.6384 46.1893 26.956 46.1971 26.3906C47.2856 25.6684 48.1451 25.0746 48.7821 24.6015C49.2526 24.252 49.5522 24.0062 49.7215 23.8515L49.7244 23.8486C49.7307 23.8389 49.7366 23.8289 49.743 23.8193C50.125 23.2463 51.0228 22.29 52.5213 22.29ZM58.1258 29.3847C57.4641 29.7927 56.8127 30.2214 56.1722 30.6717C56.1249 30.6954 56.054 30.7072 55.9594 30.7072C56.0474 30.514 56.3307 30.1314 56.8094 29.5605L58.1258 29.3847ZM58.3944 29.8906L58.0955 29.9296C58.1879 29.8759 58.282 29.8217 58.3778 29.7665L58.3944 29.8906ZM58.0614 28.4794C58.1798 28.7281 58.2629 28.9949 58.3084 29.2734C58.2475 29.3104 58.1865 29.3473 58.1258 29.3847L56.8094 29.5605C56.9754 29.3625 57.165 29.1419 57.378 28.8985C57.6016 28.7644 57.8286 28.6235 58.0614 28.4794ZM44.5369 27.4775L44.6053 27.5849C44.3866 27.7678 44.1137 27.9626 43.7879 28.1718C43.992 27.9039 44.2428 27.6669 44.5369 27.4775ZM45.0496 27.1435C44.9408 27.281 44.7928 27.4281 44.6053 27.5849L44.5369 27.4775C44.7125 27.3644 44.8826 27.2519 45.0496 27.1435Z" fill="white"/>
<path d="M37.3309 30.7411C37.2616 30.9801 37.2257 31.2168 37.2257 31.452C37.2257 32.6341 37.935 33.2252 39.3536 33.2252C40.9847 33.2252 42.886 32.5619 45.0594 31.2382C45.0401 31.2611 45.0208 31.2848 45.0024 31.3101C44.8133 31.5465 44.7187 31.8657 44.7187 32.2677C44.7187 32.6696 44.9079 33.0361 45.2862 33.3671C45.5579 33.6207 45.9548 33.7756 46.4764 33.8349C44.0806 35.2762 41.6824 36.1806 39.3533 36.1806C38.3066 36.1806 36.9715 35.9737 35.866 35.0527C34.974 34.3093 34.5298 33.3569 34.3582 32.4257C34.756 32.2314 35.0932 32.0496 35.3685 31.8775C36.07 31.4934 36.7237 31.1135 37.3309 30.7411ZM49.158 28.5771C49.2395 28.7654 49.3025 28.963 49.3436 29.1679L49.3758 29.3593L49.4471 29.8906C49.5927 30.9824 49.1186 32.0654 48.2176 32.6991C47.8945 32.9264 47.5697 33.1435 47.2459 33.3534C47.0927 33.3844 46.9363 33.4025 46.7757 33.4025C46.4683 33.4025 46.1846 33.2843 45.9245 33.0479C45.6408 32.8351 45.4989 32.646 45.4989 32.4804C45.4989 32.3149 45.558 32.1967 45.6763 32.1258C46.0546 31.9367 46.2437 31.7239 46.2437 31.4874C46.2437 31.1091 46.0664 30.92 45.7117 30.92C45.6527 30.92 45.5958 30.9262 45.5408 30.9374C45.8187 30.7591 46.1001 30.5693 46.3865 30.37C46.979 30.0135 47.9035 29.417 49.158 28.5771ZM45.3114 22.8935C45.8059 22.8935 46.6684 22.9502 47.4969 23.4472C48.566 24.0887 49.1541 25.2022 49.1541 26.3808C49.1541 26.9848 49.0088 27.5155 48.8035 27.9687C48.8421 28.0197 48.8797 28.0715 48.9149 28.1249C48.2063 28.6089 47.3839 29.1545 46.4471 29.7607L46.4465 29.7497C46.3801 29.7978 46.3128 29.8445 46.2469 29.8915C46.2105 29.915 46.174 29.9388 46.1373 29.9625L46.1385 29.9677C43.6023 31.7598 41.4713 32.6577 39.7437 32.6578C38.798 32.6578 38.3251 32.3149 38.3251 31.6293C38.3251 31.2274 38.5733 30.7427 39.0698 30.1752C41.1977 29.7969 42.9119 29.2177 44.2122 28.4375C45.5363 27.6336 46.1983 26.9479 46.1983 26.3805C46.1983 26.0259 45.9027 25.8485 45.3116 25.8485C43.4438 25.8485 41.6233 26.4869 39.8501 27.7636C38.8216 28.5141 38.0966 29.2489 37.6727 29.9667C36.7739 30.5816 35.9243 31.114 35.1202 31.5584C34.8369 31.7193 34.5622 31.8677 34.2987 32.0068C34.2875 31.8968 34.2796 31.7876 34.2752 31.6796L34.2703 31.4521L34.2762 31.2021C34.3913 28.6439 36.2603 26.7244 38.1082 25.3759L38.1229 25.3652C40.3109 23.7898 42.7235 22.8936 45.3114 22.8935ZM44.7087 26.345C45.087 26.345 45.2762 26.4396 45.2762 26.6288C45.2762 27.0543 44.6969 27.6218 43.5384 28.3311C42.4035 29.0167 41.0441 29.4896 39.46 29.7497C40.2638 28.9221 41.245 28.1537 42.4035 27.4445C43.562 26.7115 44.3305 26.345 44.7087 26.345Z" fill="white"/>
<path d="M37.851 19.855C37.851 19.6422 37.7564 19.5358 37.5673 19.5358C37.2127 19.5358 35.6049 20.8598 32.7441 23.5079C30.9472 24.7846 27.85 26.9361 23.4523 29.9625L23.5587 30.459C24.8118 29.6787 26.0058 28.8867 27.1407 28.0828L30.0133 26.1323C16.8913 38.3321 10.3304 44.5976 10.3304 44.9286C10.3304 45.0734 10.4934 45.1547 10.8192 45.1728L10.9687 45.1768C11.3202 45.1768 11.5904 45.1045 11.7791 44.9599L11.8554 44.8931C12.0209 44.7276 13.0139 43.7582 14.8344 41.985L23.4878 33.6862C25.923 31.4401 27.6726 29.9979 28.7366 29.3596C30.959 27.9882 32.6141 27.3026 33.7016 27.3026C34.1036 27.3026 34.3045 27.3853 34.3045 27.5508C34.3045 27.6927 33.8671 28.0592 32.9923 28.6503C32.1412 29.2413 31.2782 29.927 30.4034 30.7072C29.5523 31.4874 29.1267 32.1967 29.1267 32.8351C29.1267 33.4735 29.4813 33.7926 30.1906 33.7926C30.8999 33.7926 31.7984 33.5562 32.886 33.0834C33.9735 32.6341 34.8011 32.2322 35.3685 31.8775C36.07 31.4934 36.7237 31.1135 37.3309 30.7411C37.2616 30.9801 37.2257 31.2168 37.2257 31.452C37.2257 32.5202 37.8052 33.1041 38.9637 33.207C38.3001 33.6162 37.5918 34.0275 36.8397 34.4404C36.0797 34.9037 35.1116 35.3608 34.0135 35.8144C32.7855 36.3438 31.4713 36.748 30.1903 36.748C29.4525 36.7479 28.3476 36.5885 27.4158 35.7499C27.0886 35.4554 26.8428 35.1307 26.659 34.7978C26.3031 35.1164 25.9216 35.4604 25.5164 35.8339L16.8963 44.1015L13.9451 46.9833C12.9768 47.9515 11.7652 48.1318 10.9686 48.1318C10.65 48.1318 10.0459 48.1129 9.41877 47.8691C9.08221 47.7382 8.57035 47.4782 8.12678 46.9609C7.69637 46.4587 7.44392 45.8438 7.38752 45.204L7.37483 44.9286L7.38166 44.7294C7.41182 44.2817 7.53597 43.9511 7.58869 43.8183C7.66543 43.625 7.74725 43.4759 7.79768 43.3896C7.899 43.2161 8.00113 43.0781 8.0594 43.0019C8.18409 42.8388 8.32432 42.6785 8.44514 42.5448C8.69823 42.2649 9.04534 41.9049 9.46467 41.4833C10.3123 40.6311 11.5649 39.4144 13.2098 37.8437C15.1264 36.0134 17.5978 33.6833 20.6209 30.8525L20.5623 30.582C20.3116 29.412 20.7915 28.2065 21.7772 27.5282L27.3875 23.6523C28.8465 22.6388 30.0108 21.8207 30.8846 21.2011C32.2593 19.9314 33.3761 18.9392 34.2166 18.247C34.6455 17.8938 35.0537 17.5769 35.4139 17.3339C35.5901 17.215 35.8146 17.0734 36.0633 16.9501C36.2007 16.882 36.7916 16.58 37.5672 16.58C38.2134 16.58 39.2122 16.7783 39.9891 17.6523C40.6172 18.359 40.7718 19.1466 40.8006 19.6552L40.8065 19.8554L40.7918 20.1542C40.7264 20.8273 40.4576 21.3122 40.3543 21.4911C40.194 21.7688 40.0154 21.9964 39.8807 22.1552C39.6062 22.4786 39.2695 22.8026 38.9334 23.1054C38.386 23.5986 37.658 24.1936 36.7723 24.8827C36.8588 24.9646 36.944 25.0507 37.0252 25.1435C37.4536 25.633 37.7392 26.1982 37.8865 26.7958C38.3251 26.78 38.7687 26.8623 39.1834 27.0448C39.5086 27.188 39.7989 27.387 40.0467 27.6269C39.9815 27.672 39.9151 27.7168 39.8501 27.7636C38.8216 28.5141 38.0966 29.2489 37.6727 29.9667C36.7739 30.5816 35.9243 31.114 35.1202 31.5584C33.0396 32.7405 31.491 33.3316 30.4744 33.3316C30.167 33.3316 30.0133 33.237 30.0133 33.0479C30.0133 32.7169 30.4271 32.244 31.2546 31.6293C32.1057 30.9909 32.9451 30.3171 33.7726 29.6078C34.6237 28.8985 35.0493 28.2838 35.0493 27.7636C35.0493 27.5036 34.9666 27.279 34.8011 27.0898C34.6356 26.9007 34.4109 26.8061 34.1272 26.8061C32.4958 26.8061 30.2379 27.7991 27.3535 29.7851L34.2691 23.0823C36.5075 21.3757 37.6968 20.3233 37.8367 19.9257L37.851 19.855ZM40.993 29.8906C41.1357 30.9612 40.6823 32.0182 39.8221 32.6552C39.7959 32.6556 39.7696 32.6578 39.7437 32.6578C38.798 32.6578 38.3251 32.3149 38.3251 31.6293C38.3251 31.2274 38.5733 30.7427 39.0698 30.1752C39.2286 30.147 39.3847 30.1144 39.5389 30.0839L40.993 29.8906ZM40.993 29.8906L39.5389 30.0839C40.0418 29.9845 40.5196 29.8721 40.9735 29.749L40.993 29.8906ZM40.9227 29.3593L40.9315 29.4257C40.4644 29.5551 39.9745 29.6652 39.46 29.7497C39.5338 29.6736 39.6095 29.5984 39.6863 29.5234L40.9227 29.3593ZM40.7205 28.6152C40.8184 28.8505 40.8881 29.1001 40.9227 29.3593L39.6863 29.5234C40.0053 29.212 40.35 28.9094 40.7205 28.6152Z" fill="white"/>
<path d="M60.557 38.6235C59.4221 39.4273 58.2281 40.2194 56.9751 40.9996L56.8687 40.5031L60.2378 38.1624C61.3963 37.3349 62.2829 36.9212 62.8977 36.9212C63.5124 36.9212 63.8197 37.1812 63.8197 37.7014C63.8197 38.4816 63.276 39.4155 62.1884 40.5031L62.7913 40.1485C66.0304 38.0442 68.0519 36.9921 68.8557 36.9921C69.6596 36.9921 70.0615 37.2049 70.0615 37.6305C70.0615 38.1033 69.6833 38.8481 68.9267 39.8647C71.622 37.9969 73.7853 37.063 75.4167 37.063C76.0551 37.063 76.3743 37.3349 76.3743 37.8787C76.3743 38.4225 76.1378 38.9899 75.665 39.581C75.1921 40.1485 74.672 40.645 74.1045 41.0705C72.5914 42.1581 71.8348 42.8438 71.8348 43.1275C71.8348 43.293 71.9648 43.3758 72.2249 43.3758C72.5086 43.3758 72.9697 43.2339 73.608 42.9502C74.2464 42.6665 74.8138 42.3827 75.3103 42.099C75.8068 41.7917 76.3979 41.4252 77.0836 40.9996C77.7929 40.5504 78.1712 40.314 78.2184 40.2903L78.2894 40.8223C75.0975 42.9502 72.8633 44.0141 71.5865 44.0141C70.9718 44.0141 70.6645 43.7186 70.6645 43.1275C70.6645 42.7256 70.9127 42.2527 71.4092 41.7089C71.9294 41.1415 72.485 40.6213 73.076 40.1485C74.7074 38.919 75.5231 38.1033 75.5231 37.7014C75.5231 37.5832 75.3931 37.5241 75.133 37.5241C74.2582 37.5241 72.9578 37.9969 71.2319 38.9427C69.5059 39.8884 67.5908 41.4252 65.4866 43.5531C65.3447 43.6949 65.0374 43.7659 64.5645 43.7659C64.1153 43.7659 63.8907 43.6595 63.8907 43.4467C63.8907 43.3521 64.3044 42.9147 65.1319 42.1345C67.6618 39.7465 68.9267 38.2925 68.9267 37.7723C68.9267 37.6305 68.8439 37.5595 68.6784 37.5595C68.1346 37.5595 66.9407 38.1624 65.0965 39.3682C63.276 40.5504 61.4081 41.9335 59.493 43.5176C59.2093 43.6831 58.9847 43.7659 58.8192 43.7659C58.0863 43.7659 57.7198 43.6831 57.7198 43.5176C57.7198 43.423 58.039 43.092 58.6774 42.5246C59.3394 41.9572 60.2142 41.106 61.3018 39.9711C62.413 38.8126 62.9686 38.0088 62.9686 37.5595C62.9686 37.465 62.9095 37.4177 62.7913 37.4177C62.3657 37.4177 61.6209 37.8196 60.557 38.6235Z" fill="white"/>
<path d="M46.9216 43.4112C48.6239 43.4112 50.279 42.5601 51.8867 40.8578V40.8223C51.8867 39.6874 52.4305 38.6235 53.5181 37.6305C53.4471 37.3704 53.2462 37.2403 52.9152 37.2403C51.1656 37.2403 49.6169 37.9024 48.2693 39.2264C46.9216 40.5267 46.2478 41.6734 46.2478 42.6665C46.2478 43.163 46.4724 43.4112 46.9216 43.4112ZM52.4187 36.7084C53.6718 36.7084 54.2983 37.1221 54.2983 37.9496C54.2983 38.6589 53.8609 39.5101 52.9861 40.5031V40.7868C52.9861 41.5671 53.3289 41.9572 54.0146 41.9572C54.4402 41.9572 54.913 41.7798 55.4332 41.4252L57.1709 40.2903L57.2419 40.8223L55.6105 41.8508C54.8539 42.3473 54.1091 42.5955 53.3762 42.5955C52.6669 42.5955 52.1941 42.2291 51.9576 41.4961C50.0662 43.1748 48.2693 44.0141 46.567 44.0141C45.5503 44.0141 45.042 43.5294 45.042 42.5601C45.042 41.3306 45.7631 40.0539 47.2053 38.7299C48.6476 37.3822 50.3853 36.7084 52.4187 36.7084Z" fill="white"/>
<path d="M37.4559 42.3827C37.4559 42.9975 37.8933 43.3048 38.7681 43.3048C39.6665 43.3048 40.8132 43.0211 42.2081 42.4537C43.6031 41.8626 44.8916 41.1415 46.0738 40.2903L46.1447 40.8223C44.9153 41.7207 43.5322 42.4655 41.9953 43.0566C40.4822 43.6476 39.1936 43.9432 38.1297 43.9432C36.7111 43.9432 36.0018 43.423 36.0018 42.3827C36.0018 41.2479 36.8884 39.9948 38.6617 38.6235C40.4349 37.2285 42.149 36.5311 43.8041 36.5311C44.6079 36.5311 45.0099 36.8266 45.0099 37.4177C45.0099 37.8196 44.8562 38.1979 44.5488 38.5525C44.2651 38.9072 43.8986 39.0845 43.4494 39.0845C43.0002 39.0845 42.7756 38.9663 42.7756 38.7299C42.7756 38.4934 42.9056 38.2806 43.1657 38.0915C43.4258 37.9024 43.7095 37.8078 44.0168 37.8078C44.3478 37.7841 44.5133 37.6659 44.5133 37.4531C44.5133 37.3349 44.4424 37.2285 44.3006 37.134C44.1587 37.0157 43.9814 36.9566 43.7686 36.9566C42.6337 36.9566 41.2979 37.6423 39.7611 39.0136C38.2243 40.3612 37.4559 41.4843 37.4559 42.3827Z" fill="white"/>
<path d="M62.8976 33.9654C63.5511 33.9654 64.5923 34.0935 65.4982 34.8599C65.5562 34.909 65.6119 34.9593 65.6652 35.0103C66.1262 34.779 66.5728 34.5761 66.9933 34.4195C67.4397 34.2533 68.1168 34.0367 68.8556 34.0367C69.4218 34.0367 70.3033 34.0953 71.1427 34.5396C71.332 34.6398 71.5276 34.7653 71.7189 34.9185C72.9813 34.4079 74.2218 34.108 75.4171 34.108C76.0863 34.108 77.1389 34.2404 78.0509 35.0171C78.9296 35.7657 79.2497 36.7372 79.3155 37.5464C79.4128 37.5853 79.509 37.6296 79.6027 37.6793C80.4461 38.1264 81.0214 38.9536 81.1476 39.9L81.2189 40.4322L81.2394 40.6412C81.3038 41.6863 80.8088 42.6951 79.9288 43.2818C78.2717 44.3865 76.7846 45.268 75.4903 45.8843C74.2806 46.4604 72.9084 46.9693 71.5861 46.9693C70.8515 46.9692 69.7532 46.794 68.8468 45.9224C68.5605 45.6472 68.3423 45.3505 68.1778 45.0484C67.9847 45.2362 67.7873 45.4299 67.588 45.6314C67.5842 45.6353 67.5801 45.6393 67.5763 45.6431C66.9498 46.2695 66.2253 46.4975 65.8146 46.5923C65.3639 46.6963 64.9255 46.7212 64.5646 46.7212C64.2005 46.7212 63.5035 46.693 62.7941 46.357C62.4609 46.1992 62.0579 45.9398 61.7042 45.5269C61.5956 45.6157 61.4861 45.7043 61.3771 45.7945C61.2533 45.8969 61.1213 45.9899 60.9825 46.0709C60.6117 46.2872 59.811 46.7212 58.8195 46.7212C58.3993 46.7212 57.8572 46.7024 57.3439 46.5865C57.1079 46.5332 56.6232 46.4062 56.131 46.0728C55.6103 45.72 54.8646 44.9584 54.7736 43.7623L54.7648 43.5171L54.7765 43.2525C54.7841 43.1676 54.7934 43.0859 54.8068 43.0084C54.6464 42.8352 54.5068 42.6431 54.3917 42.4361C54.7942 42.3128 55.2011 42.1194 55.6105 41.8508L56.9728 40.9908L56.9751 40.9996C58.2281 40.2194 59.4221 39.4273 60.557 38.6235C61.6209 37.8196 62.3657 37.4177 62.7913 37.4177C62.9095 37.4177 62.9686 37.465 62.9686 37.5595C62.9686 38.0088 62.413 38.8126 61.3018 39.9711C60.2142 41.106 59.3394 41.9572 58.6774 42.5246C58.04 43.0911 57.7208 43.4224 57.7198 43.5176C57.7198 43.6624 58.0004 43.7442 58.5616 43.7623L58.8192 43.7659C58.9847 43.7659 59.2093 43.6831 59.493 43.5176C61.4081 41.9335 63.276 40.5504 65.0965 39.3682C66.9407 38.1624 68.1346 37.5595 68.6784 37.5595C68.8439 37.5595 68.9267 37.6305 68.9267 37.7723C68.9267 38.2925 67.6618 39.7465 65.1319 42.1345C64.3044 42.9147 63.8907 43.3521 63.8907 43.4467C63.8908 43.6327 64.0627 43.738 64.4064 43.7613L64.5645 43.7659C64.9783 43.7659 65.2656 43.7117 65.4259 43.6031L65.4866 43.5531C67.5908 41.4252 69.5059 39.8884 71.2319 38.9427C72.9578 37.9969 74.2582 37.5241 75.133 37.5241C75.3931 37.5241 75.5231 37.5832 75.5231 37.7014C75.5231 38.1033 74.7074 38.919 73.076 40.1485C72.485 40.6213 71.9294 41.1415 71.4092 41.7089C70.9127 42.2527 70.6645 42.7256 70.6645 43.1275C70.6645 43.7186 70.9718 44.0141 71.5865 44.0141C72.8633 44.0141 75.0975 42.9502 78.2894 40.8223L78.2184 40.2903C78.1712 40.314 77.7929 40.5504 77.0836 40.9996C76.3979 41.4252 75.8068 41.7917 75.3103 42.099C74.8138 42.3827 74.2464 42.6665 73.608 42.9502C72.9697 43.2339 72.5086 43.3758 72.2249 43.3758C71.9648 43.3758 71.8348 43.293 71.8348 43.1275C71.8348 42.8438 72.5914 42.1581 74.1045 41.0705C74.672 40.645 75.1921 40.1485 75.665 39.581C76.1378 38.9899 76.3743 38.4225 76.3743 37.8787C76.3743 37.3349 76.0551 37.063 75.4167 37.063C73.7853 37.063 71.622 37.9969 68.9267 39.8647C69.6833 38.8481 70.0615 38.1033 70.0615 37.6305C70.0615 37.2049 69.6596 36.9921 68.8557 36.9921C68.0519 36.9921 66.0304 38.0442 62.7913 40.1485L62.1884 40.5031C63.276 39.4155 63.8197 38.4816 63.8197 37.7014C63.8197 37.1812 63.5124 36.9212 62.8977 36.9212C62.2829 36.9212 61.3963 37.3349 60.2378 38.1624L57.171 40.2925L57.1709 40.2903L55.4332 41.4252C54.978 41.7355 54.5586 41.9101 54.1759 41.9488C54.1395 41.8414 54.1091 41.731 54.0851 41.6187L53.9786 41.1226C53.7289 39.9574 54.204 38.7557 55.1827 38.0757L58.5519 35.7349C59.2079 35.2683 59.8693 34.8577 60.5216 34.5533C61.1501 34.26 61.9775 33.9654 62.8976 33.9654Z" fill="white"/>
<path d="M59.8732 39.0982C59.9595 39.2938 60.0269 39.499 60.0695 39.7125L60.1007 39.9L60.171 40.4322C60.2014 40.6601 60.2035 40.8872 60.1818 41.1099C59.5949 41.6935 59.0949 42.1667 58.6774 42.5246C58.04 43.0911 57.7208 43.4224 57.7198 43.5176C57.7198 43.6232 57.869 43.6938 58.1671 43.732L57.1866 44.3511L57.1857 44.3492C56.0713 45.0709 54.7883 45.5513 53.3761 45.5513C52.8772 45.5513 52.3521 45.4746 51.837 45.2906C50.2067 46.3276 48.4439 46.9693 46.5665 46.9693C45.6369 46.9692 44.3913 46.7501 43.3839 45.7896C42.5031 44.9498 42.1815 43.9061 42.1056 43.0113C43.2335 42.5699 44.2777 42.0456 45.2384 41.4371C45.1077 41.8157 45.042 42.19 45.042 42.5601C45.042 43.5294 45.5503 44.0141 46.567 44.0141C48.2693 44.0141 50.0662 43.1748 51.9576 41.4961C52.1941 42.2291 52.6669 42.5955 53.3762 42.5955C54.1091 42.5955 54.8539 42.3473 55.6105 41.8508L56.9728 40.9908L56.9751 40.9996C57.9796 40.3741 58.9446 39.7389 59.8732 39.0982ZM52.9152 37.2403C53.2462 37.2403 53.4471 37.3704 53.5181 37.6305C52.4305 38.6235 51.8867 39.6874 51.8867 40.8223V40.8578C50.279 42.5601 48.6239 43.4112 46.9216 43.4112C46.4724 43.4112 46.2478 43.163 46.2478 42.6665C46.2478 41.6734 46.9216 40.5267 48.2693 39.2264C49.6169 37.9024 51.1656 37.2403 52.9152 37.2403ZM52.4191 33.7525C53.2771 33.7525 54.4353 33.8775 55.4571 34.5523C56.497 35.239 57.0557 36.2632 57.2081 37.3365C57.6145 37.3416 58.0215 37.4294 58.4025 37.6041C58.8915 37.8283 59.3005 38.1777 59.5978 38.606L57.171 40.2925L57.1709 40.2903L55.4332 41.4252C54.913 41.7798 54.4402 41.9572 54.0146 41.9572C53.3289 41.9572 52.9861 41.5671 52.9861 40.7868V40.5031C53.8609 39.5101 54.2983 38.6589 54.2983 37.9496C54.2983 37.1221 53.6718 36.7084 52.4187 36.7084C50.3853 36.7084 48.6476 37.3822 47.2053 38.7299C46.5158 39.3629 45.9918 39.9858 45.632 40.5972C44.5722 41.3156 43.4315 41.9353 42.2081 42.4537C42.1682 42.4699 42.1276 42.4838 42.088 42.4996C42.1002 41.2325 42.4971 40.0834 43.1144 39.0523C43.2071 39.0724 43.3185 39.0845 43.4494 39.0845C43.8986 39.0845 44.2651 38.9072 44.5488 38.5525C44.8562 38.1979 45.0099 37.8196 45.0099 37.4177C45.0098 37.203 44.9558 37.0279 44.8497 36.8912C44.967 36.7761 45.0867 36.6629 45.2071 36.5523C47.2112 34.6885 49.6705 33.7525 52.4191 33.7525ZM44.462 37.2896C44.4955 37.3414 44.5133 37.3958 44.5133 37.4531C44.5133 37.6659 44.3478 37.7841 44.0168 37.8078C44.011 37.8078 44.005 37.8081 43.9991 37.8082C44.1475 37.6303 44.3036 37.4586 44.462 37.2896Z" fill="white"/>
<path d="M48.6622 38.8668C48.8056 39.1274 48.912 39.4103 48.9718 39.7086L49.003 39.9L49.0743 40.4312L49.0939 40.6324C49.1587 41.6358 48.708 42.6098 47.8888 43.2086C47.8219 43.2575 47.7523 43.3031 47.6847 43.3511C47.4314 43.3895 47.1771 43.4112 46.9216 43.4112C46.4724 43.4112 46.2478 43.163 46.2478 42.6665C46.2478 41.6734 46.9216 40.5267 48.2693 39.2264C48.3979 39.1 48.53 38.981 48.6622 38.8668ZM44.5133 37.4531L44.506 37.5289C44.4697 37.6942 44.3063 37.7871 44.0168 37.8078L43.9025 37.8121C43.6389 37.8328 43.3931 37.9262 43.1657 38.0915C42.9056 38.2806 42.7756 38.4934 42.7756 38.7299C42.7756 38.9663 43.0002 39.0845 43.4494 39.0845C43.8986 39.0845 44.2651 38.9072 44.5488 38.5525C44.8471 38.2083 44.9992 37.8415 45.0079 37.4527L45.0099 37.4177C45.0099 36.8266 44.6079 36.5311 43.8041 36.5311C42.149 36.5311 40.4349 37.2285 38.6617 38.6235C36.8884 39.9948 36.0018 41.2479 36.0018 42.3827C36.0018 43.423 36.7111 43.9432 38.1297 43.9432C39.1936 43.9432 40.4822 43.6476 41.9953 43.0566C43.1658 42.6064 44.2462 42.0655 45.2384 41.4371C45.1077 41.8157 45.042 42.19 45.042 42.5601C45.042 43.5294 45.5503 44.0141 46.567 44.0141C46.6107 44.0141 46.6545 44.0104 46.6984 44.0093C45.5661 44.7151 44.3503 45.3161 43.0558 45.814C41.3668 46.4725 39.6983 46.8989 38.13 46.899C37.1467 46.899 35.8738 46.7336 34.7862 45.9361C33.6066 45.071 33.1094 43.8183 33.0519 42.6216L33.046 42.3824L33.0519 42.1373C33.1679 39.6317 35.0432 37.6895 36.8351 36.3004C38.9415 34.6434 41.2818 33.5758 43.8038 33.5757C44.4809 33.5757 45.5247 33.6846 46.4591 34.3716C47.5631 35.1834 47.9649 36.3787 47.965 37.4175C47.965 37.6128 47.9505 37.8032 47.9269 37.9888C47.9575 38.0135 47.9872 38.0392 48.0167 38.065C47.7366 38.2646 47.4661 38.4862 47.2053 38.7299C46.5158 39.3629 45.9918 39.9858 45.632 40.5972C44.5722 41.3156 43.4315 41.9353 42.2081 42.4537C40.8132 43.0211 39.6665 43.3048 38.7681 43.3048C37.8933 43.3048 37.4559 42.9975 37.4559 42.3827C37.4559 41.4843 38.2243 40.3612 39.7611 39.0136C41.2979 37.6423 42.6337 36.9566 43.7686 36.9566C43.9814 36.9566 44.1587 37.0157 44.3006 37.134C44.4424 37.2285 44.5133 37.3349 44.5133 37.4531Z" fill="white"/>
<path d="M87.6436 31.2061C87.6436 14.8791 68.3918 1.64355 44.6436 1.64355C20.8953 1.64355 1.64355 14.8791 1.64355 31.2061C1.64355 47.533 20.8953 60.7686 44.6436 60.7686C68.3918 60.7686 87.6436 47.533 87.6436 31.2061ZM89.2871 31.2061C89.2871 40.0663 84.0617 47.9079 75.9805 53.4639C67.8917 59.0249 56.8072 62.4121 44.6436 62.4121C32.4799 62.4121 21.3954 59.0249 13.3066 53.4639C5.22537 47.9079 0 40.0663 0 31.2061C0 22.3458 5.22537 14.5042 13.3066 8.94824C21.3954 3.38724 32.4799 0 44.6436 0C56.8072 0 67.8917 3.38724 75.9805 8.94824C84.0617 14.5042 89.2871 22.3458 89.2871 31.2061Z" fill="white"/>
</svg>
