<svg width="21" height="16" viewBox="0 0 21 16" fill="none" xmlns="http://www.w3.org/2000/svg">
<path d="M8.32031 7.69717C8.32031 5.84263 7.82994 4.23993 7.125 3.15127C6.40941 2.04631 5.61522 1.64931 4.98438 1.64931C4.35359 1.64945 3.56019 2.0465 2.84473 3.15127C2.13973 4.23993 1.64941 5.84255 1.64941 7.69717C1.64947 9.55173 2.13972 11.1545 2.84473 12.2431C3.56015 13.3476 4.35364 13.7439 4.98438 13.744V15.3935C2.31752 15.3932 0.140247 12.1595 0.00683594 8.09267L0 7.69717C0 3.44642 2.23155 0.000178468 4.98438 -9.96692e-05C7.73735 -9.96692e-05 9.96973 3.44624 9.96973 7.69717L9.96289 8.09267C9.82948 12.1597 7.65139 15.3935 4.98438 15.3935V13.744C5.61519 13.744 6.40943 13.3479 7.125 12.2431C7.83 11.1545 8.32026 9.55173 8.32031 7.69717Z" fill="black"/>
<path d="M6.70737 7.14638C6.70737 8.9682 5.23049 10.4451 3.40867 10.4451C1.58684 10.4451 0.109961 8.9682 0.109961 7.14638C0.109961 5.32456 1.58684 3.84768 3.40867 3.84768C5.23049 3.84768 6.70737 5.32456 6.70737 7.14638Z" fill="black"/>
<path d="M5.60793 4.94724C5.60793 5.55452 5.11563 6.04681 4.50836 6.04681C3.90108 6.04681 3.40879 5.55452 3.40879 4.94724C3.40879 4.33997 3.90108 3.84768 4.50836 3.84768C5.11563 3.84768 5.60793 4.33997 5.60793 4.94724Z" fill="white"/>
<path d="M19.3164 7.69714C19.3164 5.84261 18.826 4.23991 18.1211 3.15125C17.4055 2.04629 16.6113 1.64929 15.9804 1.64929C15.3497 1.64943 14.5563 2.04648 13.8408 3.15125C13.1358 4.23991 12.6455 5.84253 12.6455 7.69714C12.6455 9.55171 13.1358 11.1544 13.8408 12.243C14.5562 13.3476 15.3497 13.7439 15.9804 13.744V15.3934C13.3136 15.3932 11.1363 12.1595 11.0029 8.09265L10.9961 7.69714C10.9961 3.44639 13.2276 0.000156067 15.9804 -0.00012207C18.7334 -0.00012207 20.9658 3.44622 20.9658 7.69714L20.959 8.09265C20.8255 12.1596 18.6475 15.3934 15.9804 15.3934V13.744C16.6113 13.744 17.4055 13.3479 18.1211 12.243C18.8261 11.1544 19.3163 9.55171 19.3164 7.69714Z" fill="black"/>
<path d="M17.7026 7.14636C17.7026 8.96818 16.2257 10.4451 14.4039 10.4451C12.5821 10.4451 11.1052 8.96818 11.1052 7.14636C11.1052 5.32453 12.5821 3.84765 14.4039 3.84765C16.2257 3.84765 17.7026 5.32453 17.7026 7.14636Z" fill="black"/>
<path d="M16.6031 4.94722C16.6031 5.5545 16.1108 6.04679 15.5036 6.04679C14.8963 6.04679 14.404 5.5545 14.404 4.94722C14.404 4.33995 14.8963 3.84765 15.5036 3.84765C16.1108 3.84765 16.6031 4.33995 16.6031 4.94722Z" fill="white"/>
</svg>
