<svg width="21" height="16" viewBox="0 0 21 16" fill="none" xmlns="http://www.w3.org/2000/svg">
<path fill-rule="evenodd" clip-rule="evenodd" d="M15.9805 0C18.7334 0 20.9658 3.44634 20.9658 7.69727L20.959 8.09277C20.8256 12.1597 18.6475 15.3936 15.9805 15.3936C13.3716 15.3932 11.2323 12.2984 11.0156 8.35645H9.9502C9.73352 12.2986 7.59347 15.3936 4.98438 15.3936C2.31757 15.3932 0.140249 12.1595 0.00683594 8.09277L0 7.69727C0 3.44657 2.2316 0.000375043 4.98438 0C7.59332 0 9.73327 3.09523 9.9502 7.03711H11.0156C11.2325 3.09545 13.3717 0.000358881 15.9805 0ZM4.98438 1.64941C4.35361 1.6496 3.56015 2.04667 2.84473 3.15137C2.13975 4.24003 1.64941 5.84269 1.64941 7.69727C1.64947 9.5518 2.13974 11.1546 2.84473 12.2432C3.5601 13.3477 4.35366 13.744 4.98438 13.7441C5.61518 13.7441 6.40944 13.348 7.125 12.2432C7.74502 11.2858 8.19837 9.9307 8.29883 8.35645H6.02051C5.78343 8.7074 5.38213 8.93838 4.92676 8.93848C4.1981 8.93848 3.60758 8.34776 3.60742 7.61914C3.60742 6.89038 4.198 6.2998 4.92676 6.2998C5.44632 6.29992 5.89427 6.60054 6.10938 7.03711H8.29883C8.19826 5.46328 7.74484 4.1086 7.125 3.15137C6.40941 2.04644 5.61521 1.64941 4.98438 1.64941ZM15.9805 1.64941C15.3497 1.6496 14.5562 2.04667 13.8408 3.15137C13.221 4.10861 12.7675 5.46326 12.667 7.03711H15.4502L14.3779 5.96484L14.8447 5.49805L15.3105 5.03125L17.9766 7.69727L15.3105 10.3633L14.8447 9.89648L14.3779 9.42969L15.4512 8.35645H12.667C12.7675 9.93069 13.2208 11.2858 13.8408 12.2432C14.5562 13.3477 15.3498 13.744 15.9805 13.7441C16.6113 13.7441 17.4055 13.348 18.1211 12.2432C18.8261 11.1546 19.3164 9.55183 19.3164 7.69727C19.3164 5.84273 18.826 4.24003 18.1211 3.15137C17.4055 2.04644 16.6113 1.64941 15.9805 1.64941Z" fill="black"/>
</svg>
