<svg width="193" height="134" viewBox="0 0 193 134" fill="none" xmlns="http://www.w3.org/2000/svg">
<path d="M192.441 131.815V132.9H0.200195V131.815H192.441Z" fill="black"/>
<path d="M170.61 0.199812C170.609 0.200385 170.609 0.20144 170.607 0.202605L170.555 0.254966C170.518 0.292104 170.463 0.34755 170.39 0.420077C170.245 0.56513 170.031 0.779021 169.754 1.05399C169.2 1.60399 168.396 2.39848 167.397 3.37533C165.398 5.32914 162.618 8.01233 159.493 10.93C153.234 16.7738 145.619 23.5292 140.122 27.2631C135.934 30.1079 129.187 34.9277 122.552 40.1481C115.925 45.3609 109.373 51.0013 105.599 55.4829C100.923 61.0355 92.5247 71.3428 83.19 81.7367C73.8528 92.1334 63.6193 102.57 55.2757 108.405C51.3708 110.768 49.2312 112.757 48.104 114.521C47.0748 116.132 46.9118 117.52 46.9737 118.745C45.0222 119.453 43.8059 119.988 42.3006 120.434C40.7311 120.899 38.8779 121.253 35.6644 121.529C33.4015 121.723 31.7442 122.499 30.6562 123.61C29.5684 124.72 29.0877 126.127 29.1154 127.502C29.1707 130.233 31.2494 132.9 34.577 132.9H62.0676C65.2472 132.9 69.3423 131.377 73.8453 129.191C78.3683 126.996 83.4009 124.082 88.4687 121.221C93.5478 118.353 98.6672 115.534 103.402 113.502C108.152 111.463 112.437 110.251 115.865 110.521L115.88 110.522L115.894 110.522C119.603 110.612 128.972 113.133 136.097 122.595C140.673 128.673 144.934 131.278 148.708 132.338C152.441 133.386 155.692 132.9 158.001 132.9C162.926 132.9 166.839 130.357 167.157 126.694C167.24 125.739 166.966 124.917 166.401 124.244C165.849 123.585 165.041 123.096 164.092 122.733C162.197 122.008 159.575 121.726 156.729 121.726C156.139 121.726 155.363 121.514 154.432 121.067C153.509 120.625 152.471 119.971 151.367 119.135C149.158 117.461 146.72 115.083 144.451 112.286C139.897 106.673 136.11 99.4841 136.11 93.0295C136.11 89.661 135.667 86.981 135.271 84.7192C134.871 82.4367 134.536 80.6486 134.692 78.9608C134.994 75.6927 137.172 72.6384 145.458 67.5001C150.694 64.253 156.052 61.2953 160.638 59.0274C165.24 56.7514 169.019 55.1929 171.116 54.7142L170.875 53.6562C168.64 54.1663 164.758 55.7788 160.157 58.0545C155.539 60.3383 150.151 63.3129 144.886 66.5778C136.591 71.7218 133.966 75.0241 133.612 78.861C133.439 80.7257 133.812 82.6778 134.202 84.9066C134.596 87.156 135.025 89.7594 135.025 93.0295C135.025 99.8526 138.994 107.283 143.608 112.97C145.923 115.823 148.423 118.265 150.712 120C151.856 120.867 152.957 121.563 153.964 122.046C154.962 122.524 155.907 122.811 156.729 122.811C159.534 122.811 161.997 123.094 163.704 123.747C164.555 124.072 165.178 124.474 165.57 124.941C165.949 125.394 166.135 125.931 166.076 126.6C165.83 129.435 162.681 131.815 158.001 131.815C155.507 131.815 152.543 132.287 149.001 131.293C145.501 130.31 141.428 127.871 136.964 121.942C129.628 112.198 119.942 109.537 115.926 109.437C112.226 109.154 107.745 110.457 102.974 112.505C98.1782 114.563 93.0112 117.409 87.935 120.276C82.8474 123.149 77.8555 126.039 73.3716 128.215C68.8678 130.401 64.9734 131.815 62.0676 131.815H43.0567C42.1335 131.815 41.2582 131.329 40.6122 130.529C39.9663 129.73 39.5826 128.654 39.633 127.561C39.6829 126.48 40.1566 125.365 41.2611 124.459C42.3745 123.545 44.1618 122.82 46.8679 122.61C46.9655 122.603 47.0621 122.594 47.1576 122.586C47.8186 122.543 48.6915 122.554 49.7265 122.581C50.8997 122.612 52.2659 122.664 53.6902 122.673C56.5301 122.692 59.6939 122.543 62.24 121.689C63.8542 121.147 66.4696 119.588 69.4858 117.562C72.5229 115.522 76.0256 112.965 79.4382 110.379C86.2576 105.211 92.7512 99.8979 94.4756 98.3135L93.7415 97.5144C92.0571 99.0621 85.5979 104.35 78.783 109.514C75.3784 112.094 71.8936 114.637 68.8805 116.661C65.8464 118.7 63.3484 120.172 61.8948 120.66C59.5326 121.452 56.5257 121.606 53.6972 121.588C53.6164 121.587 53.5359 121.586 53.4556 121.585C54.0664 121.402 54.6191 121.194 55.1448 120.956C57.0186 120.107 58.5501 118.872 61.1192 117.165C66.3091 113.715 78.5283 104.081 85.2492 98.326L84.5437 97.5019C77.8347 103.246 65.654 112.848 60.5184 116.261C57.842 118.04 56.4646 119.167 54.6973 119.967C52.9638 120.752 50.8525 121.214 46.7841 121.528C43.9327 121.749 41.9091 122.524 40.5727 123.62C39.2275 124.723 38.6126 126.127 38.5488 127.511C38.4856 128.882 38.9634 130.216 39.7681 131.212C39.9432 131.428 40.1352 131.631 40.3423 131.815H34.577C31.9243 131.815 30.2454 129.708 30.2004 127.48C30.178 126.376 30.5617 125.257 31.4315 124.369C32.3014 123.481 33.6957 122.787 35.7569 122.61C39.0154 122.331 40.9466 121.967 42.6092 121.474C44.2388 120.991 45.6444 120.368 47.7252 119.626C52.5388 117.911 58.4477 113.98 63.8475 109.804C69.2602 105.618 74.2128 101.146 77.1231 98.3019L76.3646 97.526C73.4805 100.345 68.5595 104.789 63.1839 108.946C58.0584 112.909 52.5651 116.574 48.0474 118.346C48.0417 117.377 48.2368 116.329 49.0185 115.106C50.0177 113.542 51.9997 111.654 55.8541 109.323L55.8695 109.314L55.8841 109.304C64.3428 103.392 74.6549 92.8644 83.9974 82.4617C93.3475 72.0507 101.767 61.7174 106.429 56.1817C110.125 51.7927 116.599 46.2115 123.222 41.0012C129.836 35.7984 136.562 30.9935 140.732 28.1609C146.307 24.374 153.977 17.5641 160.234 11.7231C163.366 8.79835 166.153 6.10929 168.155 4.15132C169.157 3.17227 169.963 2.37582 170.519 1.82405C170.796 1.54818 171.012 1.3332 171.158 1.18734L171.38 0.964631C171.38 0.964631 171.378 0.961649 170.996 0.581698C170.611 0.199133 170.611 0.199463 170.611 0.199463L170.61 0.199812Z" fill="black"/>
<path d="M96.5959 26.4945C80.1027 38.1694 70.3971 52.4834 64.4416 73.5311C63.9495 72.1686 63.0625 70.7001 61.7048 69.1676L60.8926 69.8872C62.9388 72.1969 63.7573 74.2385 63.8314 75.856L63.9061 77.4912L64.8228 76.1353C65.5758 75.0215 67.6932 73.0599 70.5693 72.0998L70.2257 71.0704C68.2855 71.7181 66.6553 72.7855 65.4894 73.8143C71.3856 52.9829 80.9593 38.8927 97.2229 27.3803L96.5959 26.4945Z" fill="black"/>
<path d="M165.03 71.0116C153.439 77.553 150.629 89.4005 150.356 96.0937C150.503 95.8344 150.663 95.5794 150.838 95.3349C151.626 94.2324 152.749 93.2698 154.225 93.0745L154.367 94.1502C153.302 94.2912 152.414 94.9969 151.721 95.9661C151.03 96.9326 150.58 98.0991 150.383 99.0133L149.315 98.9696C149.21 98.1728 148.8 97.1047 148.098 96.1579C147.398 95.2147 146.442 94.4358 145.269 94.1384L145.536 93.0863C147.016 93.4615 148.167 94.4284 148.97 95.5115C149.078 95.6576 149.18 95.8072 149.277 95.9582C149.584 89.0069 152.516 76.8275 164.497 70.0664L165.03 71.0116Z" fill="black"/>
<path d="M192.441 131.815V132.9H0.200195V131.815H192.441Z" stroke="black" stroke-width="0.4"/>
<path d="M170.61 0.199812C170.609 0.200385 170.609 0.20144 170.607 0.202605L170.555 0.254966C170.518 0.292104 170.463 0.34755 170.39 0.420077C170.245 0.56513 170.031 0.779021 169.754 1.05399C169.2 1.60399 168.396 2.39848 167.397 3.37533C165.398 5.32914 162.618 8.01233 159.493 10.93C153.234 16.7738 145.619 23.5292 140.122 27.2631C135.934 30.1079 129.187 34.9277 122.552 40.1481C115.925 45.3609 109.373 51.0013 105.599 55.4829C100.923 61.0355 92.5247 71.3428 83.19 81.7367C73.8528 92.1334 63.6193 102.57 55.2757 108.405C51.3708 110.768 49.2312 112.757 48.104 114.521C47.0748 116.132 46.9118 117.52 46.9737 118.745C45.0222 119.453 43.8059 119.988 42.3006 120.434C40.7311 120.899 38.8779 121.253 35.6644 121.529C33.4015 121.723 31.7442 122.499 30.6562 123.61C29.5684 124.72 29.0877 126.127 29.1154 127.502C29.1707 130.233 31.2494 132.9 34.577 132.9H62.0676C65.2472 132.9 69.3423 131.377 73.8453 129.191C78.3683 126.996 83.4009 124.082 88.4687 121.221C93.5478 118.353 98.6672 115.534 103.402 113.502C108.152 111.463 112.437 110.251 115.865 110.521L115.88 110.522L115.894 110.522C119.603 110.612 128.972 113.133 136.097 122.595C140.673 128.673 144.934 131.278 148.708 132.338C152.441 133.386 155.692 132.9 158.001 132.9C162.926 132.9 166.839 130.357 167.157 126.694C167.24 125.739 166.966 124.917 166.401 124.244C165.849 123.585 165.041 123.096 164.092 122.733C162.197 122.008 159.575 121.726 156.729 121.726C156.139 121.726 155.363 121.514 154.432 121.067C153.509 120.625 152.471 119.971 151.367 119.135C149.158 117.461 146.72 115.083 144.451 112.286C139.897 106.673 136.11 99.4841 136.11 93.0295C136.11 89.661 135.667 86.981 135.271 84.7192C134.871 82.4367 134.536 80.6486 134.692 78.9608C134.994 75.6927 137.172 72.6384 145.458 67.5001C150.694 64.253 156.052 61.2953 160.638 59.0274C165.24 56.7514 169.019 55.1929 171.116 54.7142L170.875 53.6562C168.64 54.1663 164.758 55.7788 160.157 58.0545C155.539 60.3383 150.151 63.3129 144.886 66.5778C136.591 71.7218 133.966 75.0241 133.612 78.861C133.439 80.7257 133.812 82.6778 134.202 84.9066C134.596 87.156 135.025 89.7594 135.025 93.0295C135.025 99.8526 138.994 107.283 143.608 112.97C145.923 115.823 148.423 118.265 150.712 120C151.856 120.867 152.957 121.563 153.964 122.046C154.962 122.524 155.907 122.811 156.729 122.811C159.534 122.811 161.997 123.094 163.704 123.747C164.555 124.072 165.178 124.474 165.57 124.941C165.949 125.394 166.135 125.931 166.076 126.6C165.83 129.435 162.681 131.815 158.001 131.815C155.507 131.815 152.543 132.287 149.001 131.293C145.501 130.31 141.428 127.871 136.964 121.942C129.628 112.198 119.942 109.537 115.926 109.437C112.226 109.154 107.745 110.457 102.974 112.505C98.1782 114.563 93.0112 117.409 87.935 120.276C82.8474 123.149 77.8555 126.039 73.3716 128.215C68.8678 130.401 64.9734 131.815 62.0676 131.815H43.0567C42.1335 131.815 41.2582 131.329 40.6122 130.529C39.9663 129.73 39.5826 128.654 39.633 127.561C39.6829 126.48 40.1566 125.365 41.2611 124.459C42.3745 123.545 44.1618 122.82 46.8679 122.61C46.9655 122.603 47.0621 122.594 47.1576 122.586C47.8186 122.543 48.6915 122.554 49.7265 122.581C50.8997 122.612 52.2659 122.664 53.6902 122.673C56.5301 122.692 59.6939 122.543 62.24 121.689C63.8542 121.147 66.4696 119.588 69.4858 117.562C72.5229 115.522 76.0256 112.965 79.4382 110.379C86.2576 105.211 92.7512 99.8979 94.4756 98.3135L93.7415 97.5144C92.0571 99.0621 85.5979 104.35 78.783 109.514C75.3784 112.094 71.8936 114.637 68.8805 116.661C65.8464 118.7 63.3484 120.172 61.8948 120.66C59.5326 121.452 56.5257 121.606 53.6972 121.588C53.6164 121.587 53.5359 121.586 53.4556 121.585C54.0664 121.402 54.6191 121.194 55.1448 120.956C57.0186 120.107 58.5501 118.872 61.1192 117.165C66.3091 113.715 78.5283 104.081 85.2492 98.326L84.5437 97.5019C77.8347 103.246 65.654 112.848 60.5184 116.261C57.842 118.04 56.4646 119.167 54.6973 119.967C52.9638 120.752 50.8525 121.214 46.7841 121.528C43.9327 121.749 41.9091 122.524 40.5727 123.62C39.2275 124.723 38.6126 126.127 38.5488 127.511C38.4856 128.882 38.9634 130.216 39.7681 131.212C39.9432 131.428 40.1352 131.631 40.3423 131.815H34.577C31.9243 131.815 30.2454 129.708 30.2004 127.48C30.178 126.376 30.5617 125.257 31.4315 124.369C32.3014 123.481 33.6957 122.787 35.7569 122.61C39.0154 122.331 40.9466 121.967 42.6092 121.474C44.2388 120.991 45.6444 120.368 47.7252 119.626C52.5388 117.911 58.4477 113.98 63.8475 109.804C69.2602 105.618 74.2128 101.146 77.1231 98.3019L76.3646 97.526C73.4805 100.345 68.5595 104.789 63.1839 108.946C58.0584 112.909 52.5651 116.574 48.0474 118.346C48.0417 117.377 48.2368 116.329 49.0185 115.106C50.0177 113.542 51.9997 111.654 55.8541 109.323L55.8695 109.314L55.8841 109.304C64.3428 103.392 74.6549 92.8644 83.9974 82.4617C93.3475 72.0507 101.767 61.7174 106.429 56.1817C110.125 51.7927 116.599 46.2115 123.222 41.0012C129.836 35.7984 136.562 30.9935 140.732 28.1609C146.307 24.374 153.977 17.5641 160.234 11.7231C163.366 8.79835 166.153 6.10929 168.155 4.15132C169.157 3.17227 169.963 2.37582 170.519 1.82405C170.796 1.54818 171.012 1.3332 171.158 1.18734L171.38 0.964631C171.38 0.964631 171.378 0.961649 170.996 0.581698C170.611 0.199133 170.611 0.199463 170.611 0.199463L170.61 0.199812Z" stroke="black" stroke-width="0.4"/>
<path d="M96.5959 26.4945C80.1027 38.1694 70.3971 52.4834 64.4416 73.5311C63.9495 72.1686 63.0625 70.7001 61.7048 69.1676L60.8926 69.8872C62.9388 72.1969 63.7573 74.2385 63.8314 75.856L63.9061 77.4912L64.8228 76.1353C65.5758 75.0215 67.6932 73.0599 70.5693 72.0998L70.2257 71.0704C68.2855 71.7181 66.6553 72.7855 65.4894 73.8143C71.3856 52.9829 80.9593 38.8927 97.2229 27.3803L96.5959 26.4945Z" stroke="black" stroke-width="0.4"/>
<path d="M165.03 71.0116C153.439 77.553 150.629 89.4005 150.356 96.0937C150.503 95.8344 150.663 95.5794 150.838 95.3349C151.626 94.2324 152.749 93.2698 154.225 93.0745L154.367 94.1502C153.302 94.2912 152.414 94.9969 151.721 95.9661C151.03 96.9326 150.58 98.0991 150.383 99.0133L149.315 98.9696C149.21 98.1728 148.8 97.1047 148.098 96.1579C147.398 95.2147 146.442 94.4358 145.269 94.1384L145.536 93.0863C147.016 93.4615 148.167 94.4284 148.97 95.5115C149.078 95.6576 149.18 95.8072 149.277 95.9582C149.584 89.0069 152.516 76.8275 164.497 70.0664L165.03 71.0116Z" stroke="black" stroke-width="0.4"/>
</svg>
