<svg width="193" height="157" viewBox="0 0 193 157" fill="none" xmlns="http://www.w3.org/2000/svg">
<path d="M192.441 155.307V156.392H0.200195V155.307H192.441Z" fill="black"/>
<path d="M158.1 152.352V154.445H157.015V153.437H35.6263V154.445H34.5414V152.352H158.1Z" fill="black"/>
<path d="M87.7763 128.461C90.2027 127.556 94.0011 127.098 102.464 128.327C109.425 129.337 112.148 130.398 114.041 131.511C115.914 132.611 116.748 133.593 120.227 134.6C125.607 136.157 128.839 140.78 131.103 144.845C131.672 145.867 132.186 146.865 132.657 147.778C133.131 148.695 133.559 149.52 133.965 150.217C134.374 150.918 134.74 151.452 135.081 151.805C135.428 152.164 135.669 152.254 135.83 152.254V153.495C135.175 153.495 134.632 153.125 134.189 152.667C133.742 152.204 133.316 151.565 132.894 150.841C132.469 150.112 132.026 149.258 131.555 148.347C131.082 147.431 130.578 146.451 130.019 145.449C127.773 141.415 124.75 137.2 119.882 135.791C116.205 134.727 115.127 133.587 113.413 132.58C111.72 131.586 109.18 130.555 102.286 129.554C93.885 128.335 90.3394 128.829 88.2099 129.623C87.1166 130.031 86.4112 130.504 85.4857 130.982C84.571 131.455 83.5592 131.86 82.0341 132.005C79.4395 132.252 78.1514 133.64 76.7341 135.293C75.3178 136.946 73.7715 138.875 70.6951 139.607C69.7428 139.834 68.5771 140.715 67.2735 142.065C65.9935 143.39 64.6719 145.067 63.3956 146.735C62.1303 148.39 60.9011 150.048 59.8375 151.284C59.3055 151.902 58.7947 152.438 58.3229 152.824C57.8795 153.187 57.3551 153.517 56.8111 153.517V152.276C56.8905 152.276 57.1202 152.206 57.5371 151.864C57.9258 151.546 58.3818 151.074 58.8978 150.474C59.9304 149.275 61.1236 147.664 62.4102 145.982C63.686 144.314 65.0463 142.585 66.3813 141.203C67.6925 139.846 69.0751 138.718 70.4075 138.401C73.043 137.773 74.3526 136.166 75.7923 134.486C77.2309 132.808 78.7991 131.067 81.9164 130.771C83.2471 130.644 84.1052 130.3 84.916 129.881C85.716 129.467 86.5917 128.903 87.7763 128.461Z" fill="black"/>
<path d="M95.4909 0.243766C95.7327 0.168431 95.9853 0.190573 96.2121 0.307647C96.4192 0.414573 96.5706 0.582376 96.6823 0.746432C96.7965 0.914065 96.8935 1.11398 96.979 1.33392C97.5993 2.92893 98.3344 5.69622 99.1126 8.96885C99.8937 12.254 100.728 16.0903 101.544 19.8453C102.36 23.6038 103.158 27.2798 103.868 30.2564C104.224 31.7446 104.555 33.052 104.856 34.1039C105.159 35.1679 105.42 35.9326 105.628 36.3592C107.39 39.9785 106.59 44.0758 106.022 47.3498C105.731 49.0336 105.502 50.473 105.607 51.6333C105.708 52.7469 106.105 53.5097 107.019 53.979C107.617 54.2862 108.104 54.9295 108.503 55.6693C108.915 56.4321 109.285 57.3982 109.605 58.48C110.246 60.6458 110.705 63.3494 110.862 65.9921C111.02 68.6259 110.882 71.255 110.292 73.2507C109.737 75.1297 108.685 76.7087 106.863 76.8297C106.862 76.9755 106.886 77.2047 106.959 77.5338C107.15 78.3966 107.608 79.6702 108.285 81.2441C109.633 84.3778 111.79 88.5729 114.183 92.7789C116.577 96.9841 119.196 101.18 121.464 104.319C122.6 105.89 123.636 107.18 124.504 108.071C124.938 108.517 125.315 108.848 125.629 109.062C125.96 109.289 126.143 109.333 126.206 109.333C126.453 109.333 126.879 109.382 127.118 109.76C127.351 110.129 127.223 110.527 127.133 110.735C126.933 111.194 126.457 111.766 125.87 112.378C124.659 113.641 122.678 115.371 120.408 117.271C115.836 121.095 110.067 125.624 106.648 128.66L105.249 129.915L104.421 128.991L105.821 127.737L105.823 127.735C109.253 124.689 115.097 120.096 119.612 116.319C121.885 114.417 123.817 112.727 124.975 111.519C125.38 111.097 125.658 110.764 125.827 110.523C125.512 110.443 125.207 110.277 124.928 110.086C124.52 109.806 124.079 109.412 123.615 108.936C122.686 107.982 121.61 106.636 120.459 105.045C118.156 101.858 115.512 97.6206 113.106 93.3922C110.7 89.1645 108.519 84.9258 107.146 81.7342C106.462 80.1456 105.965 78.7836 105.748 77.8015C105.642 77.3242 105.585 76.8614 105.651 76.488C105.686 76.2954 105.763 76.0675 105.942 75.883C106.137 75.6823 106.389 75.5978 106.636 75.5978L106.736 75.5954C107.769 75.5432 108.576 74.6796 109.102 72.8992C109.633 71.1012 109.778 68.6358 109.624 66.066C109.471 63.5052 109.027 60.8961 108.416 58.8319C108.111 57.7986 107.769 56.92 107.412 56.2581C107.042 55.5732 106.705 55.2115 106.453 55.0821C105.053 54.3637 104.499 53.1464 104.372 51.7453C104.25 50.391 104.516 48.781 104.8 47.1383C105.386 43.7591 106.066 40.094 104.512 36.902C104.252 36.3678 103.967 35.5093 103.663 34.4446C103.356 33.3676 103.019 32.0401 102.662 30.5444C101.948 27.5528 101.147 23.8628 100.332 20.1085C99.5152 16.3506 98.6836 12.5269 97.9058 9.25579C97.125 5.97211 96.4078 3.28668 95.8233 1.78353C95.7947 1.71 95.767 1.64828 95.7419 1.59642C95.6554 1.72466 95.5501 1.91439 95.4305 2.18008C95.2557 2.5687 95.0708 3.07186 94.8773 3.67969C94.1003 6.12024 93.2512 10.0416 92.3838 14.4036C91.5212 18.7417 90.6388 23.5248 89.8063 27.6038C88.9768 31.6677 88.1761 35.1426 87.4574 36.8689C86.0338 40.288 86.5152 43.4787 86.9355 46.5155C87.3463 49.4836 87.7355 52.4516 85.6373 54.9313C84.7748 55.9506 83.9653 57.7228 83.339 59.8829C82.7175 62.0265 82.2951 64.4864 82.1686 66.8277C82.0415 69.1784 82.2152 71.361 82.7508 72.9728C83.2897 74.5947 84.1266 75.4714 85.2362 75.602C85.7644 75.6642 86.2004 75.9122 86.4932 76.3365C86.7688 76.7358 86.8803 77.2368 86.9027 77.7572C86.9473 78.7934 86.6476 80.1597 86.1386 81.6958C85.1126 84.7922 83.145 88.8424 80.8505 92.9052C78.5526 96.9739 75.9092 101.086 73.5147 104.312C72.318 105.924 71.176 107.324 70.165 108.389C69.1771 109.43 68.2441 110.228 67.4642 110.531C67.2148 110.628 67.0934 110.725 67.0376 110.791C66.9928 110.844 66.9752 110.893 66.9765 110.967C66.9803 111.175 67.1398 111.561 67.6387 112.153C68.6042 113.3 70.4453 114.773 72.7471 116.469C77.1439 119.71 83.117 123.69 86.9582 127.401L87.3233 127.76L87.3296 127.766L87.3359 127.773L88.2065 128.694L87.3048 129.546L86.437 128.628C82.7045 124.906 76.6379 120.878 72.0112 117.468C69.7284 115.785 67.7653 114.229 66.69 112.953C66.1685 112.333 65.7484 111.659 65.7363 110.99C65.7297 110.625 65.8452 110.281 66.0896 109.991C66.3231 109.714 66.6474 109.518 67.0153 109.375C67.5114 109.182 68.2782 108.576 69.2654 107.536C70.2296 106.52 71.3386 105.162 72.5188 103.573C74.8779 100.395 77.4938 96.3265 79.7704 92.2954C82.0504 88.2584 83.9725 84.2896 84.9612 81.3059C85.4595 79.802 85.698 78.6127 85.6635 77.8106C85.6463 77.4119 85.5639 77.1732 85.4725 77.0409C85.3984 76.9335 85.2947 76.8578 85.0914 76.8339C83.275 76.6202 82.1754 75.1735 81.5741 73.3638C80.9694 71.5439 80.7989 69.1865 80.9301 66.7607C81.0617 64.3257 81.5001 61.7724 82.148 59.5377C82.791 57.3196 83.6598 55.3484 84.6906 54.1302C86.3789 52.1349 86.1309 49.7499 85.7068 46.6855C85.2922 43.6897 84.7407 40.1676 86.3124 36.3924C86.9751 34.8008 87.7539 31.4582 88.5912 27.3559C89.4254 23.2687 90.2974 18.5365 91.1673 14.1617C92.0325 9.81071 92.8938 5.82106 93.6953 3.30339C93.8964 2.67168 94.0979 2.11969 94.2996 1.67148C94.4951 1.23678 94.7136 0.846513 94.968 0.583414C95.0975 0.449509 95.2704 0.312495 95.4909 0.243766Z" fill="black"/>
<path d="M90.0463 65.638C91.0967 66.2715 93.0975 66.9818 95.3557 67.1701C97.6094 67.3579 100.034 67.019 101.998 65.6589L102.704 66.6789C100.424 68.2576 97.6789 68.608 95.2527 68.4058C92.8311 68.2039 90.6414 67.4448 89.4061 66.6999L90.0463 65.638Z" fill="black"/>
<path d="M86.4323 36.6013C90.6529 33.5323 98.6357 32.025 105.722 36.5818L105.051 37.6251C98.4404 33.3739 91.0136 34.8035 87.1618 37.6042L86.4323 36.6013Z" fill="black"/>
<path d="M34.5415 24.723L34.7607 78.4158C34.6528 78.2739 34.5381 78.1298 34.4172 77.9846C33.5661 76.963 32.3776 75.8448 31.0093 74.9408L30.411 75.846C31.684 76.687 32.7946 77.7323 33.5834 78.6791C33.9778 79.1526 34.2844 79.5925 34.4892 79.9606C34.706 80.3504 34.7694 80.5912 34.7698 80.6881L35.8551 80.6834C35.8553 80.7335 35.8457 80.7533 35.8557 80.7181C35.8629 80.6927 35.8765 80.6518 35.8997 80.5942C35.9458 80.4793 36.0191 80.3227 36.1204 80.1325C36.3224 79.7533 36.6236 79.2635 37.0105 78.7405C37.79 77.6868 38.8829 76.5445 40.1664 75.8743L39.6639 74.9124C38.1772 75.6886 36.9677 76.9737 36.138 78.0952C36.0355 78.2338 35.9383 78.3707 35.8465 78.5046L35.6265 24.7185L34.5415 24.723Z" fill="black"/>
<path d="M156.786 73.4876L157.005 127.18C156.898 127.039 156.783 126.894 156.662 126.749C155.811 125.728 154.622 124.609 153.254 123.705L152.656 124.611C153.929 125.452 155.039 126.497 155.828 127.444C156.223 127.917 156.529 128.357 156.734 128.725C156.951 129.115 157.014 129.356 157.015 129.453L158.1 129.448C158.1 129.498 158.09 129.518 158.1 129.483C158.108 129.457 158.121 129.416 158.144 129.359C158.191 129.244 158.264 129.087 158.365 128.897C158.567 128.518 158.868 128.028 159.255 127.505C160.035 126.451 161.128 125.309 162.411 124.639L161.909 123.677C160.422 124.453 159.212 125.738 158.383 126.86C158.28 126.998 158.183 127.135 158.091 127.269L157.871 73.4831L156.786 73.4876Z" fill="black"/>
<path d="M192.441 155.307V156.392H0.200195V155.307H192.441Z" stroke="black" stroke-width="0.4"/>
<path d="M158.1 152.352V154.445H157.015V153.437H35.6263V154.445H34.5414V152.352H158.1Z" stroke="black" stroke-width="0.4"/>
<path d="M87.7763 128.461C90.2027 127.556 94.0011 127.098 102.464 128.327C109.425 129.337 112.148 130.398 114.041 131.511C115.914 132.611 116.748 133.593 120.227 134.6C125.607 136.157 128.839 140.78 131.103 144.845C131.672 145.867 132.186 146.865 132.657 147.778C133.131 148.695 133.559 149.52 133.965 150.217C134.374 150.918 134.74 151.452 135.081 151.805C135.428 152.164 135.669 152.254 135.83 152.254V153.495C135.175 153.495 134.632 153.125 134.189 152.667C133.742 152.204 133.316 151.565 132.894 150.841C132.469 150.112 132.026 149.258 131.555 148.347C131.082 147.431 130.578 146.451 130.019 145.449C127.773 141.415 124.75 137.2 119.882 135.791C116.205 134.727 115.127 133.587 113.413 132.58C111.72 131.586 109.18 130.555 102.286 129.554C93.885 128.335 90.3394 128.829 88.2099 129.623C87.1166 130.031 86.4112 130.504 85.4857 130.982C84.571 131.455 83.5592 131.86 82.0341 132.005C79.4395 132.252 78.1514 133.64 76.7341 135.293C75.3178 136.946 73.7715 138.875 70.6951 139.607C69.7428 139.834 68.5771 140.715 67.2735 142.065C65.9935 143.39 64.6719 145.067 63.3956 146.735C62.1303 148.39 60.9011 150.048 59.8375 151.284C59.3055 151.902 58.7947 152.438 58.3229 152.824C57.8795 153.187 57.3551 153.517 56.8111 153.517V152.276C56.8905 152.276 57.1202 152.206 57.5371 151.864C57.9258 151.546 58.3818 151.074 58.8978 150.474C59.9304 149.275 61.1236 147.664 62.4102 145.982C63.686 144.314 65.0463 142.585 66.3813 141.203C67.6925 139.846 69.0751 138.718 70.4075 138.401C73.043 137.773 74.3526 136.166 75.7923 134.486C77.2309 132.808 78.7991 131.067 81.9164 130.771C83.2471 130.644 84.1052 130.3 84.916 129.881C85.716 129.467 86.5917 128.903 87.7763 128.461Z" stroke="black" stroke-width="0.4"/>
<path d="M95.4909 0.243766C95.7327 0.168431 95.9853 0.190573 96.2121 0.307647C96.4192 0.414573 96.5706 0.582376 96.6823 0.746432C96.7965 0.914065 96.8935 1.11398 96.979 1.33392C97.5993 2.92893 98.3344 5.69622 99.1126 8.96885C99.8937 12.254 100.728 16.0903 101.544 19.8453C102.36 23.6038 103.158 27.2798 103.868 30.2564C104.224 31.7446 104.555 33.052 104.856 34.1039C105.159 35.1679 105.42 35.9326 105.628 36.3592C107.39 39.9785 106.59 44.0758 106.022 47.3498C105.731 49.0336 105.502 50.473 105.607 51.6333C105.708 52.7469 106.105 53.5097 107.019 53.979C107.617 54.2862 108.104 54.9295 108.503 55.6693C108.915 56.4321 109.285 57.3982 109.605 58.48C110.246 60.6458 110.705 63.3494 110.862 65.9921C111.02 68.6259 110.882 71.255 110.292 73.2507C109.737 75.1297 108.685 76.7087 106.863 76.8297C106.862 76.9755 106.886 77.2047 106.959 77.5338C107.15 78.3966 107.608 79.6702 108.285 81.2441C109.633 84.3778 111.79 88.5729 114.183 92.7789C116.577 96.9841 119.196 101.18 121.464 104.319C122.6 105.89 123.636 107.18 124.504 108.071C124.938 108.517 125.315 108.848 125.629 109.062C125.96 109.289 126.143 109.333 126.206 109.333C126.453 109.333 126.879 109.382 127.118 109.76C127.351 110.129 127.223 110.527 127.133 110.735C126.933 111.194 126.457 111.766 125.87 112.378C124.659 113.641 122.678 115.371 120.408 117.271C115.836 121.095 110.067 125.624 106.648 128.66L105.249 129.915L104.421 128.991L105.821 127.737L105.823 127.735C109.253 124.689 115.097 120.096 119.612 116.319C121.885 114.417 123.817 112.727 124.975 111.519C125.38 111.097 125.658 110.764 125.827 110.523C125.512 110.443 125.207 110.277 124.928 110.086C124.52 109.806 124.079 109.412 123.615 108.936C122.686 107.982 121.61 106.636 120.459 105.045C118.156 101.858 115.512 97.6206 113.106 93.3922C110.7 89.1645 108.519 84.9258 107.146 81.7342C106.462 80.1456 105.965 78.7836 105.748 77.8015C105.642 77.3242 105.585 76.8614 105.651 76.488C105.686 76.2954 105.763 76.0675 105.942 75.883C106.137 75.6823 106.389 75.5978 106.636 75.5978L106.736 75.5954C107.769 75.5432 108.576 74.6796 109.102 72.8992C109.633 71.1012 109.778 68.6358 109.624 66.066C109.471 63.5052 109.027 60.8961 108.416 58.8319C108.111 57.7986 107.769 56.92 107.412 56.2581C107.042 55.5732 106.705 55.2115 106.453 55.0821C105.053 54.3637 104.499 53.1464 104.372 51.7453C104.25 50.391 104.516 48.781 104.8 47.1383C105.386 43.7591 106.066 40.094 104.512 36.902C104.252 36.3678 103.967 35.5093 103.663 34.4446C103.356 33.3676 103.019 32.0401 102.662 30.5444C101.948 27.5528 101.147 23.8628 100.332 20.1085C99.5152 16.3506 98.6836 12.5269 97.9058 9.25579C97.125 5.97211 96.4078 3.28668 95.8233 1.78353C95.7947 1.71 95.767 1.64828 95.7419 1.59642C95.6554 1.72466 95.5501 1.91439 95.4305 2.18008C95.2557 2.5687 95.0708 3.07186 94.8773 3.67969C94.1003 6.12024 93.2512 10.0416 92.3838 14.4036C91.5212 18.7417 90.6388 23.5248 89.8063 27.6038C88.9768 31.6677 88.1761 35.1426 87.4574 36.8689C86.0338 40.288 86.5152 43.4787 86.9355 46.5155C87.3463 49.4836 87.7355 52.4516 85.6373 54.9313C84.7748 55.9506 83.9653 57.7228 83.339 59.8829C82.7175 62.0265 82.2951 64.4864 82.1686 66.8277C82.0415 69.1784 82.2152 71.361 82.7508 72.9728C83.2897 74.5947 84.1266 75.4714 85.2362 75.602C85.7644 75.6642 86.2004 75.9122 86.4932 76.3365C86.7688 76.7358 86.8803 77.2368 86.9027 77.7572C86.9473 78.7934 86.6476 80.1597 86.1386 81.6958C85.1126 84.7922 83.145 88.8424 80.8505 92.9052C78.5526 96.9739 75.9092 101.086 73.5147 104.312C72.318 105.924 71.176 107.324 70.165 108.389C69.1771 109.43 68.2441 110.228 67.4642 110.531C67.2148 110.628 67.0934 110.725 67.0376 110.791C66.9928 110.844 66.9752 110.893 66.9765 110.967C66.9803 111.175 67.1398 111.561 67.6387 112.153C68.6042 113.3 70.4453 114.773 72.7471 116.469C77.1439 119.71 83.117 123.69 86.9582 127.401L87.3233 127.76L87.3296 127.766L87.3359 127.773L88.2065 128.694L87.3048 129.546L86.437 128.628C82.7045 124.906 76.6379 120.878 72.0112 117.468C69.7284 115.785 67.7653 114.229 66.69 112.953C66.1685 112.333 65.7484 111.659 65.7363 110.99C65.7297 110.625 65.8452 110.281 66.0896 109.991C66.3231 109.714 66.6474 109.518 67.0153 109.375C67.5114 109.182 68.2782 108.576 69.2654 107.536C70.2296 106.52 71.3386 105.162 72.5188 103.573C74.8779 100.395 77.4938 96.3265 79.7704 92.2954C82.0504 88.2584 83.9725 84.2896 84.9612 81.3059C85.4595 79.802 85.698 78.6127 85.6635 77.8106C85.6463 77.4119 85.5639 77.1732 85.4725 77.0409C85.3984 76.9335 85.2947 76.8578 85.0914 76.8339C83.275 76.6202 82.1754 75.1735 81.5741 73.3638C80.9694 71.5439 80.7989 69.1865 80.9301 66.7607C81.0617 64.3257 81.5001 61.7724 82.148 59.5377C82.791 57.3196 83.6598 55.3484 84.6906 54.1302C86.3789 52.1349 86.1309 49.7499 85.7068 46.6855C85.2922 43.6897 84.7407 40.1676 86.3124 36.3924C86.9751 34.8008 87.7539 31.4582 88.5912 27.3559C89.4254 23.2687 90.2974 18.5365 91.1673 14.1617C92.0325 9.81071 92.8938 5.82106 93.6953 3.30339C93.8964 2.67168 94.0979 2.11969 94.2996 1.67148C94.4951 1.23678 94.7136 0.846513 94.968 0.583414C95.0975 0.449509 95.2704 0.312495 95.4909 0.243766Z" stroke="black" stroke-width="0.4"/>
<path d="M90.0463 65.638C91.0967 66.2715 93.0975 66.9818 95.3557 67.1701C97.6094 67.3579 100.034 67.019 101.998 65.6589L102.704 66.6789C100.424 68.2576 97.6789 68.608 95.2527 68.4058C92.8311 68.2039 90.6414 67.4448 89.4061 66.6999L90.0463 65.638Z" stroke="black" stroke-width="0.4"/>
<path d="M86.4323 36.6013C90.6529 33.5323 98.6357 32.025 105.722 36.5818L105.051 37.6251C98.4404 33.3739 91.0136 34.8035 87.1618 37.6042L86.4323 36.6013Z" stroke="black" stroke-width="0.4"/>
<path d="M34.5415 24.723L34.7607 78.4158C34.6528 78.2739 34.5381 78.1298 34.4172 77.9846C33.5661 76.963 32.3776 75.8448 31.0093 74.9408L30.411 75.846C31.684 76.687 32.7946 77.7323 33.5834 78.6791C33.9778 79.1526 34.2844 79.5925 34.4892 79.9606C34.706 80.3504 34.7694 80.5912 34.7698 80.6881L35.8551 80.6834C35.8553 80.7335 35.8457 80.7533 35.8557 80.7181C35.8629 80.6927 35.8765 80.6518 35.8997 80.5942C35.9458 80.4793 36.0191 80.3227 36.1204 80.1325C36.3224 79.7533 36.6236 79.2635 37.0105 78.7405C37.79 77.6868 38.8829 76.5445 40.1664 75.8743L39.6639 74.9124C38.1772 75.6886 36.9677 76.9737 36.138 78.0952C36.0355 78.2338 35.9383 78.3707 35.8465 78.5046L35.6265 24.7185L34.5415 24.723Z" stroke="black" stroke-width="0.4"/>
<path d="M156.786 73.4876L157.005 127.18C156.898 127.039 156.783 126.894 156.662 126.749C155.811 125.728 154.622 124.609 153.254 123.705L152.656 124.611C153.929 125.452 155.039 126.497 155.828 127.444C156.223 127.917 156.529 128.357 156.734 128.725C156.951 129.115 157.014 129.356 157.015 129.453L158.1 129.448C158.1 129.498 158.09 129.518 158.1 129.483C158.108 129.457 158.121 129.416 158.144 129.359C158.191 129.244 158.264 129.087 158.365 128.897C158.567 128.518 158.868 128.028 159.255 127.505C160.035 126.451 161.128 125.309 162.411 124.639L161.909 123.677C160.422 124.453 159.212 125.738 158.383 126.86C158.28 126.998 158.183 127.135 158.091 127.269L157.871 73.4831L156.786 73.4876Z" stroke="black" stroke-width="0.4"/>
</svg>
